<svg width="20" height="20" viewBox="0 0 20 20" fill="none" xmlns="http://www.w3.org/2000/svg">
<mask id="mask0_4217_4296" style="mask-type:alpha" maskUnits="userSpaceOnUse" x="0" y="0" width="20" height="20">
<rect width="20" height="20" fill="white"/>
</mask>
<g mask="url(#mask0_4217_4296)">
<path d="M4.30199 14.334V8.63611C4.30199 8.44583 4.36803 8.285 4.50012 8.15361C4.6322 8.02208 4.7956 7.95631 4.99033 7.95631C5.18519 7.95631 5.34658 8.02208 5.47449 8.15361C5.60255 8.285 5.66658 8.44583 5.66658 8.63611V14.339C5.66658 14.5328 5.60137 14.6945 5.47095 14.8242C5.34039 14.954 5.17776 15.0188 4.98303 15.0188C4.78831 15.0188 4.62616 14.9531 4.49658 14.8217C4.36685 14.6903 4.30199 14.5278 4.30199 14.334ZM9.40345 14.339V8.63611C9.40345 8.44583 9.46949 8.285 9.60158 8.15361C9.73366 8.02208 9.89546 7.95631 10.087 7.95631C10.2784 7.95631 10.4389 8.02208 10.5685 8.15361C10.6982 8.285 10.763 8.44583 10.763 8.63611V14.339C10.763 14.5294 10.697 14.6903 10.5649 14.8217C10.4328 14.9531 10.271 15.0188 10.0795 15.0188C9.8881 15.0188 9.72762 14.9531 9.59803 14.8217C9.46831 14.6903 9.40345 14.5294 9.40345 14.339ZM2.25178 17.5736C2.05137 17.5736 1.88296 17.5051 1.74658 17.368C1.61019 17.2309 1.54199 17.0617 1.54199 16.8603C1.54199 16.6589 1.61019 16.4909 1.74658 16.3563C1.88296 16.2216 2.05137 16.1542 2.25178 16.1542H17.748C17.9484 16.1542 18.1177 16.2228 18.2557 16.3599C18.3938 16.4971 18.4628 16.6663 18.4628 16.8676C18.4628 17.069 18.3938 17.237 18.2557 17.3717C18.1177 17.5063 17.9484 17.5736 17.748 17.5736H2.25178ZM14.3332 14.334V8.63611C14.3332 8.44583 14.3993 8.285 14.5314 8.15361C14.6635 8.02208 14.8269 7.95631 15.0218 7.95631C15.2165 7.95631 15.3778 8.02208 15.5057 8.15361C15.6338 8.285 15.6978 8.44583 15.6978 8.63611V14.339C15.6978 14.5328 15.6326 14.6945 15.5022 14.8242C15.3716 14.954 15.209 15.0188 15.0143 15.0188C14.8196 15.0188 14.6574 14.9531 14.5278 14.8217C14.3981 14.6903 14.3332 14.5278 14.3332 14.334ZM17.8166 6.8209H2.11095C1.95123 6.8209 1.81651 6.7652 1.70678 6.65382C1.59692 6.54243 1.54199 6.40854 1.54199 6.25215V5.83819C1.54199 5.73819 1.56963 5.64256 1.62491 5.55131C1.68019 5.45993 1.75081 5.3884 1.83678 5.33673L9.30012 1.08673C9.51678 0.965759 9.75005 0.905273 9.99991 0.905273C10.2498 0.905273 10.483 0.965759 10.6997 1.08673L18.1322 5.3109C18.2321 5.37645 18.3121 5.45923 18.3724 5.55923C18.4327 5.65909 18.4628 5.77111 18.4628 5.89527V6.14819C18.4628 6.33902 18.401 6.49888 18.2772 6.62777C18.1535 6.75652 17.9999 6.8209 17.8166 6.8209Z" fill="#C8C9CE"/>
</g>
</svg>
