<svg width="38" height="38" viewBox="0 0 38 38" fill="none" xmlns="http://www.w3.org/2000/svg">
<path d="M0 4C0 1.79086 1.79086 0 4 0H34C36.2091 0 38 1.79086 38 4V34C38 36.2091 36.2091 38 34 38H4C1.79086 38 0 36.2091 0 34V4Z" fill="#201435"/>

<g mask="url(#mask0_4124_42724)">
<path d="M13.6449 23.6327C14.5166 23.0805 15.3778 22.6645 16.2287 22.3848C17.0795 22.1051 18.0032 21.9652 18.9999 21.9652C19.9966 21.9652 20.9255 22.1068 21.7866 22.3898C22.6477 22.6729 23.5107 23.0872 24.3757 23.6327C24.9803 22.8794 25.4086 22.1284 25.6605 21.3796C25.9125 20.6307 26.0384 19.8375 26.0384 19C26.0384 17.002 25.365 15.3293 24.018 13.9821C22.6711 12.635 20.9987 11.9615 19.0007 11.9615C17.003 11.9615 15.3303 12.635 13.9826 13.9821C12.6351 15.3293 11.9614 17.002 11.9614 19C11.9614 19.8372 12.09 20.6299 12.3474 21.3779C12.6048 22.126 13.0373 22.8776 13.6449 23.6327ZM18.996 19.6598C18.1825 19.6598 17.4991 19.3818 16.946 18.8257C16.3926 18.2694 16.116 17.5856 16.116 16.7744C16.116 15.9632 16.3939 15.2799 16.9497 14.7246C17.5057 14.1693 18.1904 13.8917 19.0039 13.8917C19.8173 13.8917 20.5007 14.1706 21.0539 14.7286C21.6072 15.2863 21.8839 15.9709 21.8839 16.7821C21.8839 17.5935 21.606 18.276 21.0501 18.8296C20.4941 19.3831 19.8094 19.6598 18.996 19.6598ZM18.9916 27.4579C17.8234 27.4579 16.7238 27.2362 15.6928 26.7927C14.6619 26.3494 13.7641 25.7429 12.9995 24.9734C12.2349 24.2039 11.6342 23.3061 11.1974 22.28C10.7605 21.2541 10.542 20.1575 10.542 18.9902C10.542 17.823 10.7641 16.7261 11.2082 15.6994C11.6524 14.6727 12.2588 13.7786 13.0274 13.0171C13.7959 12.2554 14.6933 11.6517 15.7197 11.2059C16.746 10.76 17.8428 10.5371 19.0103 10.5371C20.1778 10.5371 21.2747 10.76 22.301 11.2059C23.3273 11.6517 24.2213 12.2554 24.9828 13.0171C25.7445 13.7786 26.3482 14.6737 26.7941 15.7023C27.2399 16.7308 27.4628 17.8282 27.4628 18.9944C27.4628 20.1608 27.2399 21.2566 26.7941 22.2819C26.3482 23.3072 25.7445 24.2041 24.9828 24.9725C24.2213 25.7411 23.3254 26.3475 22.2951 26.7917C21.2647 27.2359 20.1635 27.4579 18.9916 27.4579Z" fill="#B29FEB"/>
</g>
</svg>
