<svg width="20" height="20" viewBox="0 0 20 20" fill="none" xmlns="http://www.w3.org/2000/svg">
<mask id="mask0_4217_5963" style="mask-type:alpha" maskUnits="userSpaceOnUse" x="0" y="0" width="20" height="20">
<rect width="20" height="20" fill="white"/>
</mask>
<g mask="url(#mask0_4217_5963)">
<path d="M16.7901 5.97292V4.04313H14.8603V2.62355H16.7901V0.688965H18.2097V2.62355H20.1443V4.04313H18.2097V5.97292H16.7901ZM13.0118 8.92563C13.3308 8.92563 13.603 8.81299 13.8285 8.58771C14.0539 8.3623 14.1666 8.09001 14.1666 7.77084C14.1666 7.45167 14.0539 7.17938 13.8285 6.95396C13.603 6.72869 13.3308 6.61605 13.0118 6.61605C12.6926 6.61605 12.4212 6.72813 12.1974 6.9523C11.9737 7.17646 11.8618 7.44876 11.8618 7.76917C11.8618 8.08945 11.9736 8.3623 12.1972 8.58771C12.4208 8.81299 12.6923 8.92563 13.0118 8.92563ZM6.98803 8.92563C7.3072 8.92563 7.57866 8.81355 7.80241 8.58938C8.02616 8.36521 8.13803 8.09292 8.13803 7.77251C8.13803 7.45223 8.02623 7.17938 7.80262 6.95396C7.57901 6.72869 7.30748 6.61605 6.98803 6.61605C6.66901 6.61605 6.39678 6.72869 6.17137 6.95396C5.94595 7.17938 5.83324 7.45167 5.83324 7.77084C5.83324 8.09001 5.94595 8.3623 6.17137 8.58771C6.39678 8.81299 6.66901 8.92563 6.98803 8.92563ZM9.99991 14.5625C10.9266 14.5625 11.7778 14.3115 12.5537 13.8096C13.3294 13.3076 13.8875 12.627 14.2282 11.7677H5.77158C6.12616 12.627 6.68783 13.3076 7.45658 13.8096C8.22546 14.3115 9.07324 14.5625 9.99991 14.5625ZM10.0062 18.4579C8.83671 18.4579 7.73921 18.2365 6.71366 17.7938C5.6881 17.351 4.79116 16.7454 4.02283 15.9771C3.25449 15.2088 2.64894 14.312 2.20616 13.2869C1.76338 12.2619 1.54199 11.1647 1.54199 9.99521C1.54199 8.82577 1.76408 7.7266 2.20824 6.69771C2.65241 5.66896 3.25616 4.77383 4.01949 4.0123C4.78283 3.25063 5.68046 2.64771 6.71241 2.20355C7.74435 1.75924 8.84019 1.53709 9.99991 1.53709C10.6194 1.53709 11.2175 1.60396 11.7943 1.73771C12.3712 1.87133 12.9254 2.05674 13.4568 2.29396V5.6548H15.1785V7.37646H18.0293C18.1689 7.79952 18.276 8.22598 18.3507 8.65584C18.4255 9.0857 18.4628 9.53376 18.4628 10C18.4628 11.1597 18.2407 12.2556 17.7964 13.2875C17.3522 14.3194 16.7493 15.2171 15.9876 15.9804C15.2261 16.7438 14.3312 17.3475 13.3028 17.7917C12.2745 18.2358 11.1756 18.4579 10.0062 18.4579Z" fill="#C8C9CE"/>
</g>
</svg>
