<svg width="20" height="20" viewBox="0 0 20 20" fill="none" xmlns="http://www.w3.org/2000/svg">
<mask id="mask0_4217_1116" style="mask-type:alpha" maskUnits="userSpaceOnUse" x="0" y="0" width="20" height="20">
<rect width="20" height="20" fill="white"/>
</mask>
<g mask="url(#mask0_4217_1116)">
<path fill-rule="evenodd" clip-rule="evenodd" d="M15.8792 11.2998C16.1542 11.0248 16.4959 10.8832 16.9 10.8832C17.3042 10.8832 17.6459 11.0248 17.9209 11.2998C18.1959 11.5748 18.3334 11.9082 18.3334 12.3165C18.3334 12.7248 18.1959 13.0623 17.9209 13.3373C17.6459 13.6123 17.3042 13.7498 16.9 13.7498C16.4959 13.7498 16.1542 13.6123 15.8792 13.3373C15.7584 13.2165 15.6667 13.0873 15.6 12.9415H14.1667V13.3332C14.1667 13.7915 13.7917 14.1665 13.3334 14.1665H12.8917V15.604C13.0334 15.6665 13.1667 15.7623 13.2834 15.879C13.5584 16.154 13.7 16.4957 13.6959 16.8998C13.6959 17.304 13.5584 17.6457 13.2834 17.9207C13.0084 18.1957 12.675 18.3332 12.2667 18.3332C11.8584 18.3332 11.5209 18.1957 11.2459 17.9207C10.9709 17.6457 10.8334 17.304 10.8334 16.8998C10.8334 16.4957 10.9709 16.154 11.2459 15.879C11.3667 15.7582 11.4959 15.6665 11.6417 15.5998V14.1665H8.35835V15.5998C8.50419 15.6665 8.63335 15.7582 8.75419 15.879C9.02919 16.154 9.16669 16.4957 9.16669 16.8998C9.16669 17.304 9.02919 17.6457 8.75419 17.9207C8.47919 18.1957 8.13752 18.3332 7.73335 18.3332C7.32919 18.3332 6.98752 18.1957 6.71252 17.9207C6.43752 17.6457 6.30002 17.304 6.30002 16.8998C6.30419 16.4957 6.44169 16.154 6.71669 15.879C6.83335 15.7582 6.96669 15.6665 7.10835 15.5998V14.1665H6.66669C6.20835 14.1665 5.83335 13.7915 5.83335 13.3332V12.9415H4.40002C4.33335 13.0873 4.24169 13.2165 4.12085 13.3373C3.84585 13.6123 3.50419 13.7498 3.10002 13.7498C2.69585 13.7498 2.35419 13.6123 2.07919 13.3373C1.80419 13.0623 1.66669 12.7207 1.66669 12.3165C1.66669 11.9123 1.80419 11.5707 2.07919 11.2957C2.35419 11.0207 2.69585 10.8832 3.10002 10.8873C3.50419 10.8873 3.84585 11.0248 4.12085 11.2998C4.24169 11.4165 4.33335 11.5498 4.40002 11.6915H5.83335V8.30817H4.39585C4.33335 8.44984 4.23752 8.58317 4.12085 8.69984C3.84585 8.97484 3.50419 9.1165 3.10002 9.1165C2.69585 9.11234 2.35419 8.97484 2.07919 8.69984C1.80419 8.42484 1.66669 8.0915 1.66669 7.68317C1.66669 7.27484 1.80419 6.93734 2.07919 6.66234C2.35419 6.38734 2.69585 6.24984 3.10002 6.24984C3.50419 6.24984 3.84585 6.38734 4.12085 6.66234C4.24169 6.78317 4.33335 6.91234 4.40002 7.05817H5.83335V6.6665C5.83335 6.20817 6.20835 5.83317 6.66669 5.83317H7.10835V4.39567C6.96669 4.33317 6.83335 4.23734 6.71669 4.12067C6.44169 3.84567 6.30002 3.504 6.30002 3.09984C6.30002 2.69567 6.44169 2.354 6.71669 2.079C6.99169 1.804 7.32502 1.6665 7.73335 1.6665C8.14169 1.6665 8.47919 1.804 8.75419 2.079C9.02919 2.354 9.16669 2.69567 9.16669 3.09984C9.16669 3.504 9.02919 3.84567 8.75419 4.12067C8.63335 4.2415 8.50419 4.33317 8.35835 4.39984V5.83317H11.6417V4.39984C11.4959 4.33317 11.3667 4.2415 11.2459 4.12067C10.9709 3.84567 10.8334 3.504 10.8334 3.09984C10.8334 2.69567 10.9709 2.354 11.2459 2.079C11.5209 1.804 11.8625 1.6665 12.2667 1.6665C12.6709 1.6665 13.0125 1.804 13.2875 2.079C13.5625 2.354 13.7 2.69567 13.7 3.09984C13.7 3.504 13.5625 3.84567 13.2875 4.12067C13.1667 4.2415 13.0375 4.33317 12.8917 4.39984V5.83317H13.3334C13.7917 5.83317 14.1667 6.20817 14.1667 6.6665V7.05817H15.6C15.6667 6.91234 15.7584 6.78317 15.8792 6.66234C16.1542 6.38734 16.4959 6.24984 16.9 6.24984C17.3042 6.24984 17.6459 6.38734 17.9209 6.66234C18.1959 6.93734 18.3334 7.279 18.3334 7.68317C18.3334 8.08734 18.1959 8.429 17.9209 8.704C17.6459 8.979 17.3042 9.1165 16.9 9.1165C16.4959 9.1165 16.1542 8.979 15.8792 8.704C15.7584 8.58317 15.6667 8.454 15.6 8.30817H14.1667V11.6915H15.6042C15.6667 11.5498 15.7625 11.4165 15.8792 11.2998ZM9.74169 11.2582L9.97085 11.9207H11.0375L9.59585 8.079H8.39169L6.94585 11.9207H7.97919L8.20835 11.2582H9.74169ZM11.5 11.9207H12.5V8.079H11.5V11.9207ZM8.44586 10.5082H9.49586L9.22086 9.69567C9.2042 9.65401 9.18753 9.60401 9.1667 9.54152L9.1667 9.5415C9.14586 9.47901 9.12503 9.41235 9.1042 9.3457L9.1042 9.34567C9.09378 9.31025 9.0844 9.27483 9.07503 9.23942C9.06565 9.204 9.05628 9.16858 9.04586 9.13317C9.03348 9.08053 9.01879 9.0348 9.00522 8.99255C9.00053 8.97794 8.99598 8.96375 8.9917 8.94984H8.95003C8.93753 9.02067 8.9167 9.09984 8.88753 9.1915C8.85836 9.279 8.8292 9.37067 8.80419 9.45817C8.77503 9.54984 8.75003 9.629 8.7292 9.69567L8.44586 10.5082Z" fill="#C8C9CE"/>
</g>
</svg>
