<svg width="38" height="38" viewBox="0 0 38 38" fill="none" xmlns="http://www.w3.org/2000/svg">
<path d="M0 4C0 1.79086 1.79086 0 4 0H34C36.2091 0 38 1.79086 38 4V34C38 36.2091 36.2091 38 34 38H4C1.79086 38 0 36.2091 0 34V4Z" fill="#201435"/>
<mask id="mask0_4124_42765" style="mask-type:alpha" maskUnits="userSpaceOnUse" x="9" y="9" width="20" height="20">
<rect x="9" y="9" width="20" height="20" fill="#201435"/>
</mask>
<g mask="url(#mask0_4124_42765)">
<path d="M20.2371 19.1534L22.9728 17.3278C23.1572 17.2095 23.2494 17.045 23.2494 16.8343C23.2494 16.6237 23.1572 16.4593 22.9728 16.3409L20.2371 14.5103C20.0389 14.3814 19.8345 14.3715 19.6238 14.4805C19.4131 14.5896 19.3078 14.7632 19.3078 15.0014V18.6624C19.3078 18.9009 19.4131 19.0754 19.6238 19.1859C19.8344 19.2965 20.0388 19.2857 20.2371 19.1534ZM15.7753 23.6697C15.3919 23.6697 15.0595 23.5285 14.778 23.2462C14.4966 22.9637 14.3559 22.63 14.3559 22.2453V11.8818C14.3559 11.4984 14.4966 11.166 14.778 10.8845C15.0595 10.6031 15.3919 10.4624 15.7753 10.4624H26.1438C26.5285 10.4624 26.8621 10.6031 27.1446 10.8845C27.427 11.166 27.5682 11.4984 27.5682 11.8818V22.2453C27.5682 22.63 27.427 22.9637 27.1446 23.2462C26.8621 23.5285 26.5285 23.6697 26.1438 23.6697H15.7753ZM13.4432 27.5166C13.0483 27.5616 12.6975 27.4701 12.3907 27.2422C12.0839 27.0143 11.9064 26.7034 11.8582 26.3097L10.5346 16.0293C10.4864 15.6357 10.5814 15.2804 10.8194 14.9634C11.0575 14.6465 11.3735 14.4648 11.7675 14.4184L13.1059 14.2726V22.7518C13.1059 23.36 13.3151 23.8734 13.7336 24.292C14.1522 24.7105 14.6656 24.9197 15.2738 24.9197H25.7626C25.7857 25.2373 25.7006 25.5143 25.5071 25.7505C25.3135 25.9868 25.0596 26.1221 24.7453 26.1566L13.4432 27.5166Z" fill="#B29FEB"/>
</g>
</svg>
