<svg width="20" height="20" viewBox="0 0 20 20" fill="none" xmlns="http://www.w3.org/2000/svg">
<path d="M10 6.66667C8.96667 6.66667 8.125 7.50833 8.125 8.54167C8.125 9.575 8.96667 10.4167 10 10.4167C11.0333 10.4167 11.875 9.575 11.875 8.54167C11.875 7.50833 11.0333 6.66667 10 6.66667Z" fill="currentColor"/>
<path d="M10 11.25C9.16667 11.25 8.33333 11.6667 7.91667 12.5C7.5 13.3333 7.91667 15.4167 8.33333 17.0833C8.75 18.75 9.16667 19.1667 10 19.1667C10.8333 19.1667 11.25 18.75 11.6667 17.0833C12.0833 15.4167 12.5 13.3333 12.0833 12.5C11.6667 11.6667 10.8333 11.25 10 11.25Z" fill="currentColor"/>
<path fill-rule="evenodd" clip-rule="evenodd" d="M10 0.625C5.16667 0.625 1.45833 4.58333 1.45833 9.16667C1.45833 12.0833 2.91667 14.5833 5 16.0417C4.91667 15.5 4.91667 14.9167 5 14.3333C3.33333 13.0833 2.29167 11.25 2.29167 9.16667C2.29167 5.08333 5.75 1.45833 10 1.45833C14.25 1.45833 17.7083 5.08333 17.7083 9.16667C17.7083 11.25 16.6667 13.0833 15 14.3333C15.0833 14.9167 15.0833 15.5 15 16.0417C17.0833 14.5833 18.5417 12.0833 18.5417 9.16667C18.5417 4.58333 14.8333 0.625 10 0.625Z" fill="currentColor"/>
<path fill-rule="evenodd" clip-rule="evenodd" d="M10 3.54167C6.58333 3.54167 4.375 6.25 4.375 9.16667C4.375 10.8333 5.08333 12.25 6.16667 13.25C6.25 12.5833 6.41667 11.9167 6.75 11.3333C6.08333 10.6667 5.625 9.91667 5.625 9.16667C5.625 6.91667 7.41667 4.79167 10 4.79167C12.5833 4.79167 14.375 6.91667 14.375 9.16667C14.375 9.91667 13.9167 10.6667 13.25 11.3333C13.5833 11.9167 13.75 12.5833 13.8333 13.25C14.9167 12.25 15.625 10.8333 15.625 9.16667C15.625 6.25 13.4167 3.54167 10 3.54167Z" fill="currentColor"/>
</svg>

