<svg xmlns="http://www.w3.org/2000/svg" width="20" height="20" fill="none" viewBox="0 0 20 20">
  <g clip-path="url(#a)">
    <path fill="url(#b)" fill-opacity=".2" d="M20 0H0v20h20V0Z"/>
    <path fill="#C8C9CE" d="M20 0H0v20h20V0Z" style="mix-blend-mode:color"/>
    <path fill="#fff" fill-rule="evenodd" d="M5.516 12.5c.578.9 1.587 1.5 2.734 1.5a3.254 3.254 0 0 0 3.25-3.25A3.254 3.254 0 0 0 8.25 7.5c-1.35 0-2.508.827-3 2h.554A2.751 2.751 0 0 1 8.25 8 2.753 2.753 0 0 1 11 10.75a2.753 2.753 0 0 1-2.75 2.75c-.852 0-1.615-.39-2.12-1h-.614Zm3.734-1.25v-.5h1.25c0-1.24-1.01-2.25-2.25-2.25S6 9.51 6 10.75h1.25v.5H6.058C6.286 12.25 7.18 13 8.25 13c.534 0 1.025-.188 1.411-.5h-1.16V12h1.619c.15-.225.26-.478.322-.75H9.25Zm-4 .75h.554a2.73 2.73 0 0 1-.197-2H5.09a3.233 3.233 0 0 0 .16 2Zm-.314.5H4.25V12h.469a3.741 3.741 0 0 1-.182-.75h-.683l.323.323-.354.354-.75-.75a.25.25 0 0 1 0-.354l.75-.75.354.354-.323.323H4.5c0-.257.026-.508.076-.75H4.25v-.5h.469A3.753 3.753 0 0 1 8.25 7c1.107 0 2.1.485 2.787 1.25h3.713v.5h-3.334c.368.58.584 1.264.584 2h2.75v.5h-2.787A3.752 3.752 0 0 1 8.25 14.5a3.752 3.752 0 0 1-3.314-2ZM9.25 9.75A.25.25 0 0 0 9 9.5H7.5a.25.25 0 0 0-.25.25v.5h.5V10H8v.75h-.25v.5h1v-.5H8.5V10h.25v.25h.5v-.5Zm3 .25h2.5v-.5h-2.5v.5Zm0 2.5h2.5V12h-2.5v.5Zm2-5.75h.896l-.896-.896v.896Zm1.677.073A.25.25 0 0 1 16 7v8.75a.25.25 0 0 1-.25.25H8a.25.25 0 0 1-.25-.25v-1h.5v.75h7.25V7.25H14a.25.25 0 0 1-.25-.25V5.5h-5.5v1.25h-.5v-1.5A.25.25 0 0 1 8 5h6a.25.25 0 0 1 .177.073l1.75 1.75ZM17 6.041v9.209a.25.25 0 0 1-.25.25h-.5V15h.25V6.153L14.654 4.5H9v.25h-.5v-.5A.25.25 0 0 1 8.75 4h6a.25.25 0 0 1 .166.064l2 1.791a.25.25 0 0 1 .084.186Z" clip-rule="evenodd"/>
  </g>
  <defs>
    <linearGradient id="b" x1="0" x2="2000" y1="2000" y2="0" gradientUnits="userSpaceOnUse">
      <stop stop-color="#055F4E"/>
      <stop offset="1" stop-color="#56C0A7"/>
    </linearGradient>
    <clipPath id="a">
      <path fill="#fff" d="M0 0h20v20H0z"/>
    </clipPath>
  </defs>
</svg>
