<svg width="20" height="20" viewBox="0 0 20 20" fill="none" xmlns="http://www.w3.org/2000/svg">
<mask id="mask0_4217_6626" style="mask-type:alpha" maskUnits="userSpaceOnUse" x="0" y="0" width="20" height="21">
<rect y="0.0297852" width="20" height="20" fill="#D9D9D9"/>
</mask>
<g mask="url(#mask0_4217_6626)">
<path d="M8.98919 10.9539L8.04482 9.62102C7.96871 9.53768 7.88919 9.47254 7.80628 9.4256C7.72322 9.37865 7.62447 9.35518 7.51003 9.35518H2.55128C2.42016 9.35518 2.29593 9.32157 2.17857 9.25435C2.06107 9.18713 1.98315 9.0897 1.94482 8.96206C1.80204 8.60692 1.69836 8.2649 1.63378 7.93602C1.56933 7.60699 1.53711 7.27025 1.53711 6.92581C1.53711 5.63928 1.96892 4.56345 2.83253 3.69831C3.696 2.83303 4.76405 2.40039 6.03669 2.40039C6.82503 2.40039 7.55517 2.58296 8.22711 2.9481C8.89905 3.3131 9.48836 3.8431 9.99503 4.5381C10.585 3.80143 11.2047 3.26102 11.8542 2.91685C12.5036 2.57254 13.2034 2.40039 13.9534 2.40039C15.2293 2.40039 16.2999 2.83303 17.165 3.69831C18.0303 4.56345 18.4629 5.63928 18.4629 6.92581C18.4629 7.27025 18.4307 7.60699 18.3663 7.93602C18.3017 8.2649 18.198 8.60692 18.0552 8.96206C18.0169 9.0897 17.939 9.18713 17.8215 9.25435C17.7041 9.32157 17.5816 9.35518 17.4538 9.35518H12.8592L11.3742 7.30622C11.2947 7.209 11.2031 7.13706 11.0992 7.09039C10.9953 7.04372 10.8829 7.02039 10.7619 7.02039C10.6269 7.02039 10.5015 7.06109 10.3857 7.14247C10.2698 7.22386 10.1894 7.33206 10.1444 7.46706L8.98919 10.9539ZM9.99503 17.4729C9.82239 17.4729 9.65315 17.4453 9.48732 17.39C9.32162 17.3347 9.17489 17.2432 9.04711 17.1156C7.62322 15.8134 6.44058 14.6846 5.49919 13.7293C4.55766 12.7739 3.79523 11.9143 3.2119 11.1504C3.13593 11.0572 3.12732 10.9596 3.18607 10.8577C3.24496 10.7557 3.32968 10.7048 3.44023 10.7048H7.13503L8.60503 12.7646C8.68114 12.8651 8.77628 12.9387 8.89044 12.9854C9.00461 13.0321 9.12385 13.0554 9.24815 13.0554C9.38315 13.0554 9.5051 13.0139 9.61398 12.9308C9.72273 12.8478 9.80128 12.7387 9.84961 12.6037L11.0259 9.11685L11.9592 10.4389C12.0386 10.5223 12.1234 10.5874 12.2134 10.6343C12.3034 10.6813 12.4056 10.7048 12.52 10.7048H16.5807C16.6912 10.7048 16.7725 10.7557 16.8244 10.8577C16.8762 10.9596 16.8658 11.0572 16.7932 11.1504C16.2065 11.9143 15.4416 12.7739 14.4984 13.7293C13.5553 14.6846 12.3718 15.8134 10.9479 17.1156C10.817 17.2432 10.6686 17.3347 10.5027 17.39C10.337 17.4453 10.1678 17.4729 9.99503 17.4729Z" fill="#C8C9CE"/>
</g>
</svg>
