<svg width="22" height="12" viewBox="0 0 22 12" fill="none" xmlns="http://www.w3.org/2000/svg">
  <path fill-rule="evenodd" clip-rule="evenodd" d="M9.67954 0.381068C9.93724 0.137371 10.2869 0.000303391 10.6515 1.27018e-07L11.3485 1.35329e-07C11.7123 0.00399031 12.0606 0.140503 12.3205 0.381068L21.7288 9.2842C21.9024 9.44682 22 9.66818 22 9.89911C22 10.13 21.9024 10.3514 21.7288 10.514L20.4266 11.7438C20.2576 11.9068 20.0263 11.9986 19.7847 11.9986C19.5432 11.9986 19.3119 11.9068 19.1429 11.7438L11 4.03586L2.85715 11.7438C2.68497 11.9078 2.45059 12 2.20609 12C1.96158 12 1.72721 11.9078 1.55503 11.7438L0.271243 10.514C0.0976461 10.3514 2.22992e-08 10.13 2.50529e-08 9.8991C2.78067e-08 9.66818 0.0976461 9.44682 0.271243 9.2842L9.67954 0.381068Z" fill="currentColor"/>
</svg>
