<svg width="20" height="20" viewBox="0 0 20 20" fill="none" xmlns="http://www.w3.org/2000/svg">
<mask id="mask0_2112_357" style="mask-type:alpha" maskUnits="userSpaceOnUse" x="0" y="0" width="20" height="20">
<rect width="20" height="20" fill="#D9D9D9"/>
</mask>
<g mask="url(#mask0_2112_357)">
<path id='demoprint' fill-rule="evenodd" clip-rule="evenodd" d="M18.0263 4.61215C18.4109 4.61215 18.7717 4.76485 19.0416 5.04182C19.3064 5.31354 19.4518 5.67342 19.4518 6.05496L19.4514 7.98979H0.548309V4.38419C0.548309 3.58895 1.18778 2.94182 1.97405 2.9416H7.34668L17.8165 0.0288529C18.2335 -0.0870969 18.6656 0.156835 18.7815 0.573817C18.8975 0.990799 18.6535 1.42288 18.2366 1.53883L9.32614 4.01774L10.2336 4.61215H18.0263ZM6.61401 6.43891C6.63808 6.43891 6.65777 6.41922 6.65777 6.39515V4.85827C6.65777 4.83421 6.63808 4.81452 6.61401 4.81452H3.19525C3.17118 4.81452 3.15149 4.83421 3.15149 4.85827V6.39515C3.15149 6.41922 3.17118 6.43891 3.19525 6.43891H6.61401Z" fill="#7E5FDD"/>
<path fill-rule="evenodd" clip-rule="evenodd" d="M1.97405 20C1.18778 20 0.548309 19.3531 0.548309 18.5576V8.71305H19.4512L19.4486 18.5581C19.4483 19.3531 18.8086 20 18.0228 20H1.97405ZM3.42671 14.4289C3.27466 14.4289 3.15149 14.5521 3.15149 14.7042L3.15171 16.9765C3.15171 17.1286 3.27488 17.2518 3.42693 17.2518H16.5732C16.7253 17.2518 16.8484 17.1286 16.8484 16.9765V14.7042C16.8484 14.5521 16.7253 14.4289 16.5732 14.4289H3.42671Z" fill="#7E5FDD"/>
</g>
</svg>
