<svg width="20" height="20" viewBox="0 0 20 20" fill="none" xmlns="http://www.w3.org/2000/svg">
<mask id="mask0_4217_492" style="mask-type:alpha" maskUnits="userSpaceOnUse" x="0" y="0" width="20" height="20">
<rect width="20" height="20" fill="#D9D9D9"/>
</mask>
<g mask="url(#mask0_4217_492)">
<path d="M10.3672 18.4181L11.8916 17.0335C13.5224 15.5423 14.6036 14.4058 15.1353 13.6241C15.667 12.8423 15.9328 12.0146 15.9328 11.1408C15.9328 10.7594 15.8704 10.405 15.7457 10.0775C15.6211 9.74983 15.4533 9.41795 15.2422 9.08184H16.9984C17.3922 9.08184 17.7272 9.22004 18.0034 9.49643C18.2798 9.77268 18.418 10.1077 18.418 10.5014V17.7083C18.418 17.9121 18.3506 18.0813 18.2159 18.216C18.0812 18.3507 17.912 18.4181 17.7082 18.4181H10.3672ZM1.58176 17.7083V10.5014C1.58176 10.1077 1.71655 9.77268 1.98613 9.49643C2.25558 9.22004 2.59398 9.08184 3.00134 9.08184H4.76259C4.53426 9.39351 4.36127 9.72212 4.24363 10.0677C4.12586 10.4132 4.06697 10.7709 4.06697 11.1408C4.06697 12.0237 4.32502 12.8443 4.84113 13.6025C5.35724 14.3608 6.44954 15.5045 8.11801 17.0335L9.63759 18.4181H2.29155C2.0878 18.4181 1.91856 18.3507 1.78384 18.216C1.64912 18.0813 1.58176 17.9121 1.58176 17.7083ZM15.9822 8.27851C15.2576 8.27851 14.6474 8.03143 14.1516 7.53726C13.6559 7.04323 13.408 6.43205 13.408 5.70372C13.408 4.98969 13.656 4.38205 14.152 3.8808C14.6481 3.37969 15.2584 3.12913 15.983 3.12913C16.6972 3.12913 17.3047 3.37969 17.8057 3.8808C18.3068 4.38205 18.5574 4.98969 18.5574 5.70372C18.5574 6.43205 18.3068 7.04323 17.8055 7.53726C17.3043 8.03143 16.6965 8.27851 15.9822 8.27851ZM9.99988 7.35059C9.16058 7.35059 8.45218 7.06184 7.87468 6.48434C7.29718 5.90684 7.00843 5.19844 7.00843 4.35913C7.00843 3.53386 7.29718 2.82899 7.87468 2.24455C8.45218 1.65997 9.16058 1.36768 9.99988 1.36768C10.8252 1.36768 11.53 1.65997 12.1145 2.24455C12.6991 2.82899 12.9913 3.53386 12.9913 4.35913C12.9913 5.19844 12.6991 5.90684 12.1145 6.48434C11.53 7.06184 10.8252 7.35059 9.99988 7.35059ZM5.45134 11.1431C5.45134 11.7735 5.75954 12.4795 6.37593 13.261C6.99231 14.0425 8.20197 15.2531 10.0049 16.8927C11.7766 15.2809 12.9768 14.0834 13.6055 13.3004C14.2341 12.5173 14.5484 11.7976 14.5484 11.1412C14.5484 10.4883 14.3266 9.93233 13.8828 9.4733C13.4389 9.01427 12.8939 8.78476 12.2478 8.78476C11.8809 8.78476 11.5445 8.86219 11.2386 9.01705C10.9327 9.17177 10.658 9.36219 10.4147 9.5883L10.0049 9.99309L9.56926 9.5883C9.32259 9.37274 9.04377 9.18497 8.7328 9.02497C8.42197 8.86483 8.09502 8.78476 7.75197 8.78476C7.09724 8.78476 6.55016 9.01497 6.11072 9.47538C5.67113 9.93566 5.45134 10.4916 5.45134 11.1431ZM4.01655 8.27851C3.29197 8.27851 2.68176 8.03143 2.18592 7.53726C1.69023 7.04323 1.44238 6.43205 1.44238 5.70372C1.44238 4.98969 1.69037 4.38205 2.18634 3.8808C2.68245 3.37969 3.2928 3.12913 4.01738 3.12913C4.73155 3.12913 5.33919 3.37969 5.8403 3.8808C6.34127 4.38205 6.59176 4.98969 6.59176 5.70372C6.59176 6.43205 6.34113 7.04323 5.83988 7.53726C5.33863 8.03143 4.73086 8.27851 4.01655 8.27851Z" fill="#C8C9CE"/>
</g>
</svg>
