<svg width="20" height="20" viewBox="0 0 20 20" fill="none" xmlns="http://www.w3.org/2000/svg">
<mask id="mask0_4217_85" style="mask-type:alpha" maskUnits="userSpaceOnUse" x="0" y="0" width="20" height="20">
<rect width="20" height="20" fill="white"/>
</mask>
<g mask="url(#mask0_4217_85)">
<path d="M7.30086 14.8017H12.7044C12.8887 14.8017 13.0431 14.7383 13.1675 14.6115C13.2921 14.4847 13.3544 14.3287 13.3544 14.1436C13.3544 13.9586 13.2921 13.8045 13.1675 13.6815C13.0431 13.5584 12.8887 13.4969 12.7044 13.4969H7.29607C7.11176 13.4969 6.95739 13.5595 6.83294 13.6846C6.70836 13.8097 6.64607 13.9648 6.64607 14.1498C6.64607 14.335 6.70919 14.4899 6.83544 14.6146C6.96155 14.7393 7.11669 14.8017 7.30086 14.8017ZM7.30086 11.26H12.7044C12.8887 11.26 13.0431 11.1966 13.1675 11.0698C13.2921 10.943 13.3544 10.787 13.3544 10.6019C13.3544 10.4169 13.2921 10.2629 13.1675 10.1398C13.0431 10.0168 12.8887 9.95523 12.7044 9.95523H7.29607C7.11176 9.95523 6.95739 10.0178 6.83294 10.1429C6.70836 10.2681 6.64607 10.4232 6.64607 10.6082C6.64607 10.7933 6.70919 10.9482 6.83544 11.0729C6.96155 11.1977 7.11669 11.26 7.30086 11.26ZM4.62836 18.4579C4.24503 18.4579 3.91266 18.3172 3.63128 18.0357C3.34975 17.7543 3.20898 17.4219 3.20898 17.0386V2.96148C3.20898 2.57676 3.34975 2.24322 3.63128 1.96086C3.91266 1.67836 4.24503 1.53711 4.62836 1.53711H11.5636C11.7593 1.53711 11.9463 1.57683 12.1248 1.65628C12.3033 1.73572 12.4563 1.83926 12.584 1.9669L16.3667 5.74961C16.4943 5.87725 16.5979 6.0303 16.6773 6.20878C16.7568 6.38725 16.7965 6.57433 16.7965 6.77003V17.0386C16.7965 17.4219 16.6552 17.7543 16.3727 18.0357C16.0904 18.3172 15.7568 18.4579 15.3721 18.4579H4.62836ZM11.4346 6.1269C11.4346 6.32718 11.5028 6.49551 11.6392 6.6319C11.7756 6.76829 11.9439 6.83648 12.1442 6.83648H15.3721L11.4346 2.96148V6.1269Z" fill="#C8C9CE"/>
</g>
</svg>
