<svg width="20" height="20" viewBox="0 0 20 20" fill="none" xmlns="http://www.w3.org/2000/svg">
<mask id="mask0_4217_6858" style="mask-type:alpha" maskUnits="userSpaceOnUse" x="0" y="0" width="20" height="20">
<rect width="20" height="20" fill="white"/>
</mask>
<g mask="url(#mask0_4217_6858)">
<path d="M2.97138 18.4481C2.57763 18.4481 2.24263 18.3099 1.96638 18.0337C1.69013 17.7574 1.552 17.4224 1.552 17.0287V9.18078C1.552 8.89759 1.63138 8.63425 1.79013 8.39078C1.94902 8.14731 2.16145 7.9703 2.42742 7.85974L6.66971 6.06411C6.89804 5.97078 7.11256 5.98974 7.31325 6.12099C7.51409 6.25238 7.6145 6.43752 7.6145 6.67641V7.33078L10.8074 6.04224C11.0456 5.94891 11.2675 5.97307 11.473 6.11474C11.6785 6.25641 11.7812 6.45328 11.7812 6.70536V8.21891H18.4478V17.0287C18.4478 17.4224 18.3097 17.7574 18.0335 18.0337C17.7572 18.3099 17.4222 18.4481 17.0285 18.4481H2.97138ZM9.32013 15.0002H10.6797V11.6668H9.32013V15.0002ZM5.927 15.0002H7.29159V11.6668H5.927V15.0002ZM12.7083 15.0002H14.0728V11.6668H12.7083V15.0002ZM18.3437 7.38557H14.6724L15.3291 2.19849C15.3569 2.02252 15.4338 1.87578 15.5599 1.75828C15.686 1.64078 15.8371 1.58203 16.013 1.58203H16.9833C17.1592 1.58203 17.3119 1.63995 17.4412 1.75578C17.5706 1.87162 17.6492 2.01752 17.677 2.19349L18.3437 7.38557Z" fill="#C8C9CE"/>
</g>
</svg>
