<svg width="20" height="20" viewBox="0 0 20 20" fill="none" xmlns="http://www.w3.org/2000/svg">
<mask id="mask0_4217_6163" style="mask-type:alpha" maskUnits="userSpaceOnUse" x="0" y="0" width="20" height="20">
<rect width="20" height="20" fill="white"/>
</mask>
<g mask="url(#mask0_4217_6163)">
<path d="M3.74994 17.6692C3.36675 17.6692 3.03439 17.5284 2.75286 17.2469C2.47133 16.9654 2.33057 16.633 2.33057 16.2498V3.09505C2.33057 2.89463 2.39911 2.72623 2.53619 2.58984C2.67327 2.45345 2.84251 2.38525 3.0439 2.38525C3.24529 2.38525 3.41327 2.45345 3.54786 2.58984C3.68258 2.72623 3.74994 2.89463 3.74994 3.09505V16.2498H16.9597C17.16 16.2498 17.3292 16.3184 17.4672 16.4555C17.6053 16.5925 17.6743 16.7618 17.6743 16.9632C17.6743 17.1646 17.6053 17.3325 17.4672 17.4671C17.3292 17.6019 17.16 17.6692 16.9597 17.6692H3.74994ZM6.01494 14.6873C5.81591 14.6873 5.64911 14.6191 5.51453 14.4828C5.3798 14.3464 5.31244 14.178 5.31244 13.9775V8.32421C5.31244 8.1238 5.38022 7.95539 5.51578 7.819C5.65133 7.68262 5.81862 7.61442 6.01765 7.61442H7.1439C7.34293 7.61442 7.50973 7.68262 7.64432 7.819C7.77904 7.95539 7.8464 8.1238 7.8464 8.32421V13.9775C7.8464 14.178 7.77862 14.3464 7.64307 14.4828C7.50765 14.6191 7.34036 14.6873 7.14119 14.6873H6.01494ZM10.1997 14.6873C9.99737 14.6873 9.8289 14.6191 9.69432 14.4828C9.55959 14.3464 9.49223 14.178 9.49223 13.9775V4.03255C9.49223 3.83213 9.56001 3.66373 9.69557 3.52734C9.83112 3.39095 10.0001 3.32275 10.2024 3.32275H11.3287C11.5277 3.32275 11.6945 3.39095 11.8291 3.52734C11.9638 3.66373 12.0312 3.83213 12.0312 4.03255V13.9775C12.0312 14.178 11.9634 14.3464 11.8279 14.4828C11.6923 14.6191 11.525 14.6873 11.326 14.6873H10.1997ZM14.3012 14.6873C14.0988 14.6873 13.9304 14.6191 13.7958 14.4828C13.6611 14.3464 13.5937 14.178 13.5937 13.9775V11.7409C13.5937 11.5405 13.6615 11.3721 13.797 11.2357C13.9326 11.0993 14.1015 11.0311 14.3039 11.0311H15.4252C15.6242 11.0311 15.7918 11.0993 15.9281 11.2357C16.0645 11.3721 16.1327 11.5405 16.1327 11.7409V13.9775C16.1327 14.178 16.064 14.3464 15.9268 14.4828C15.7897 14.6191 15.6216 14.6873 15.4224 14.6873H14.3012Z" fill="#C8C9CE"/>
</g>
</svg>
