<svg xmlns="http://www.w3.org/2000/svg" width="20" height="20" fill="none" viewBox="0 0 20 20">
  <mask id="a" width="20" height="20" x="0" y="0" maskUnits="userSpaceOnUse" style="mask-type:alpha">
    <path fill="#fff" d="M0 0h20v20H0z"/>
  </mask>
  <g mask="url(#a)">
    <path fill="#C8C9CE" d="M10.045 3.611a9.35 9.35 0 0 1 4.16.954 8.538 8.538 0 0 1 3.242 2.757c.129.173.17.329.123.47a.742.742 0 0 1-.242.35.567.567 0 0 1-.392.11c-.146-.01-.269-.09-.368-.241a7.167 7.167 0 0 0-2.836-2.425 8.523 8.523 0 0 0-3.687-.847 8.069 8.069 0 0 0-3.668.835 7.15 7.15 0 0 0-2.802 2.449c-.115.172-.25.265-.404.279a.603.603 0 0 1-.651-.432.47.47 0 0 1 .093-.412A8.727 8.727 0 0 1 5.847 4.62a9.066 9.066 0 0 1 4.198-1.009Zm0 1.982c1.883 0 3.49.639 4.821 1.917 1.332 1.277 1.997 2.843 1.997 4.698 0 .734-.254 1.355-.763 1.864a2.533 2.533 0 0 1-1.86.762c-.732 0-1.36-.244-1.882-.733a2.393 2.393 0 0 1-.784-1.822c0-.427-.147-.789-.44-1.086a1.456 1.456 0 0 0-1.078-.445c-.425 0-.784.149-1.077.445-.293.297-.44.659-.44 1.086 0 1.324.376 2.437 1.128 3.34.751.902 1.818 1.515 3.2 1.837.163.033.274.115.332.243a.609.609 0 0 1 .032.407.69.69 0 0 1-.22.338c-.11.097-.263.128-.46.092-1.6-.337-2.858-1.07-3.77-2.197-.913-1.128-1.37-2.48-1.37-4.06 0-.742.258-1.37.774-1.886a2.55 2.55 0 0 1 1.871-.773c.732 0 1.356.25 1.872.75.515.5.773 1.112.773 1.838 0 .42.15.777.45 1.074.3.297.663.445 1.088.445.426 0 .783-.148 1.073-.445a1.48 1.48 0 0 0 .436-1.074c0-1.548-.557-2.853-1.671-3.915C12.963 7.231 11.622 6.7 10.054 6.7c-1.569 0-2.904.54-4.006 1.622-1.102 1.082-1.653 2.398-1.653 3.948 0 .475.033.946.1 1.415a7.8 7.8 0 0 0 .371 1.479.609.609 0 0 1-.004.457.543.543 0 0 1-.305.285.552.552 0 0 1-.44-.01.65.65 0 0 1-.313-.358 7.55 7.55 0 0 1-.401-1.497c-.09-.543-.135-1.13-.135-1.762 0-1.879.66-3.463 1.98-4.752 1.321-1.29 2.92-1.934 4.797-1.934Zm.011-4c.905 0 1.785.108 2.64.323.855.215 1.682.528 2.482.939.172.093.274.21.307.35.033.14.02.275-.037.404a.652.652 0 0 1-.303.294c-.136.067-.29.054-.46-.039a9.81 9.81 0 0 0-4.629-1.155c-.805 0-1.599.094-2.38.281a8.768 8.768 0 0 0-2.236.874.609.609 0 0 1-.468.082.534.534 0 0 1-.35-.272.537.537 0 0 1-.03-.408.594.594 0 0 1 .279-.346 9.564 9.564 0 0 1 2.508-1.005 11.26 11.26 0 0 1 2.678-.322Zm0 6.01c1.3 0 2.415.445 3.346 1.337.93.891 1.395 1.98 1.395 3.268a.67.67 0 0 1-.144.444c-.096.115-.234.173-.414.173a.529.529 0 0 1-.415-.173.642.642 0 0 1-.154-.444 3.29 3.29 0 0 0-1.062-2.479c-.709-.674-1.559-1.01-2.552-1.01-1 0-1.85.344-2.548 1.034-.698.69-1.047 1.531-1.047 2.526 0 1.062.171 1.984.513 2.764.342.781.884 1.564 1.626 2.347a.563.563 0 0 1 .047.772.503.503 0 0 1-.433.178.653.653 0 0 1-.433-.19c-.82-.845-1.43-1.735-1.832-2.67-.402-.936-.604-2.002-.604-3.201 0-1.303.459-2.408 1.375-3.316.917-.907 2.03-1.36 3.337-1.36Zm-.009 4.047a.52.52 0 0 1 .409.172c.1.115.15.252.15.41 0 1.104.363 1.957 1.09 2.557.726.6 1.6.9 2.624.9.115 0 .254-.012.419-.033.164-.022.326-.039.485-.051a.575.575 0 0 1 .405.111.479.479 0 0 1 .19.364.49.49 0 0 1-.11.38.74.74 0 0 1-.318.207c-.219.07-.426.112-.621.127a6.468 6.468 0 0 1-.45.022c-1.322 0-2.458-.407-3.407-1.22-.95-.814-1.424-1.935-1.424-3.364 0-.158.05-.295.15-.41a.514.514 0 0 1 .408-.172Z"/>
  </g>
</svg>
