<svg width="20" height="20" viewBox="0 0 20 20" fill="none" xmlns="http://www.w3.org/2000/svg">
<mask id="mask0_4217_6171" style="mask-type:alpha" maskUnits="userSpaceOnUse" x="0" y="0" width="20" height="20">
<rect width="20" height="20" fill="white"/>
</mask>
<g mask="url(#mask0_4217_6171)">
<path d="M0.650221 15.0599C0.449805 15.0599 0.281402 14.9917 0.145013 14.8553C0.00862413 14.7189 -0.0595703 14.5505 -0.0595703 14.3501V13.8959C-0.0595703 13.3395 0.234457 12.8884 0.822513 12.5426C1.41043 12.1966 2.18064 12.0236 3.13314 12.0236C3.28369 12.0236 3.42661 12.0262 3.56189 12.0315C3.69717 12.0368 3.83286 12.0492 3.96897 12.0688C3.85119 12.3198 3.76286 12.5748 3.70397 12.8338C3.64508 13.093 3.61564 13.3634 3.61564 13.6451V15.0599H0.650221ZM5.65022 15.0599C5.44981 15.0599 5.2814 14.9917 5.14501 14.8553C5.00862 14.7189 4.94043 14.5505 4.94043 14.3501V13.6459C4.94043 13.1914 5.06279 12.776 5.30751 12.3996C5.55224 12.0234 5.90015 11.6947 6.35126 11.4136C6.80237 11.1325 7.33987 10.9208 7.96376 10.7786C8.58779 10.6364 9.26612 10.5653 9.99876 10.5653C10.7456 10.5653 11.4302 10.6364 12.0525 10.7786C12.6749 10.9208 13.2124 11.1325 13.665 11.4136C14.1161 11.6947 14.4614 12.0234 14.7008 12.3996C14.9403 12.776 15.06 13.1914 15.06 13.6459V14.3501C15.06 14.5505 14.9918 14.7189 14.8554 14.8553C14.719 14.9917 14.5506 15.0599 14.3502 15.0599H5.65022ZM16.3848 15.0599V13.6438C16.3848 13.3548 16.358 13.0821 16.3044 12.8257C16.2508 12.5692 16.1667 12.3174 16.0523 12.0705C16.1884 12.0498 16.3242 12.0368 16.4598 12.0315C16.5954 12.0262 16.7338 12.0236 16.8752 12.0236C17.8333 12.0236 18.6036 12.1941 19.1863 12.5351C19.7688 12.876 20.06 13.3296 20.06 13.8959V14.3501C20.06 14.5505 19.9918 14.7189 19.8554 14.8553C19.719 14.9917 19.5506 15.0599 19.3502 15.0599H16.3848ZM3.1173 11.4136C2.7098 11.4136 2.36036 11.267 2.06897 10.9738C1.77772 10.6808 1.6321 10.3284 1.6321 9.91673C1.6321 9.50311 1.77828 9.15061 2.07064 8.85923C2.36314 8.56784 2.71467 8.42214 3.12522 8.42214C3.538 8.42214 3.89092 8.56791 4.18397 8.85943C4.47689 9.15082 4.62335 9.50596 4.62335 9.92485C4.62335 10.3312 4.4773 10.681 4.18522 10.974C3.893 11.2671 3.53703 11.4136 3.1173 11.4136ZM16.8673 11.4136C16.4598 11.4136 16.1104 11.267 15.819 10.9738C15.5277 10.6808 15.3821 10.3284 15.3821 9.91673C15.3821 9.50311 15.5283 9.15061 15.8206 8.85923C16.1131 8.56784 16.4647 8.42214 16.8752 8.42214C17.288 8.42214 17.6409 8.56791 17.934 8.85943C18.2269 9.15082 18.3733 9.50596 18.3733 9.92485C18.3733 10.3312 18.2273 10.681 17.9352 10.974C17.643 11.2671 17.287 11.4136 16.8673 11.4136ZM10.0027 9.94527C9.29092 9.94527 8.68592 9.69617 8.18772 9.19798C7.68953 8.69978 7.44043 8.09478 7.44043 7.38298C7.44043 6.65964 7.68953 6.05263 8.18772 5.56193C8.68592 5.0711 9.29092 4.82568 10.0027 4.82568C10.7261 4.82568 11.3331 5.0711 11.8238 5.56193C12.3146 6.05263 12.56 6.65964 12.56 7.38298C12.56 8.09478 12.3146 8.69978 11.8238 9.19798C11.3331 9.69617 10.7261 9.94527 10.0027 9.94527Z" fill="#C8C9CE"/>
</g>
</svg>
