<svg width="20" height="20" viewBox="0 0 20 20" fill="none" xmlns="http://www.w3.org/2000/svg">
<mask id="mask0_4217_7624" style="mask-type:alpha" maskUnits="userSpaceOnUse" x="0" y="0" width="20" height="20">
<rect width="20" height="20" fill="white"/>
</mask>
<g mask="url(#mask0_4217_7624)">
<path d="M10.0435 17.7042C9.80741 17.7042 9.60436 17.6201 9.43436 17.4517C9.26436 17.2835 9.17936 17.0814 9.17936 16.8453C9.17936 16.7347 9.20186 16.624 9.24686 16.5132C9.29186 16.4024 9.35936 16.3003 9.44936 16.2069L13.0452 12.6161C13.1113 12.5499 13.1444 12.4785 13.1444 12.4022C13.1444 12.3258 13.1113 12.2528 13.0452 12.1834C12.9757 12.1173 12.9028 12.0826 12.8264 12.0792C12.7501 12.076 12.6771 12.1092 12.6077 12.1786L9.01186 15.7744C8.92186 15.8644 8.82408 15.9303 8.71852 15.9719C8.61297 16.0136 8.49963 16.0344 8.37852 16.0344C8.14574 16.0344 7.94783 15.9538 7.78477 15.7924C7.62172 15.631 7.54019 15.4322 7.54019 15.1961C7.54019 15.0506 7.56102 14.9285 7.60269 14.8301C7.64436 14.7315 7.70658 14.6424 7.78936 14.563L11.3754 10.9719C11.4448 10.9058 11.4796 10.8338 11.4796 10.7557C11.4796 10.6776 11.4448 10.6039 11.3754 10.5344C11.3093 10.4683 11.2372 10.4353 11.1591 10.4353C11.0811 10.4353 11.0073 10.4683 10.9379 10.5344L7.37686 14.0799C7.29019 14.1665 7.19324 14.2323 7.08602 14.2772C6.9788 14.3222 6.85776 14.3447 6.7229 14.3447C6.50068 14.3447 6.3054 14.2605 6.13706 14.0922C5.96873 13.9238 5.88456 13.7269 5.88456 13.5015C5.88456 13.3804 5.90706 13.2679 5.95206 13.164C5.99693 13.0601 6.06269 12.9632 6.14936 12.8732L9.72061 9.29716C9.79005 9.23104 9.82477 9.15979 9.82477 9.0834C9.82477 9.00702 9.79005 8.9341 9.72061 8.86466C9.65449 8.79854 9.58241 8.76549 9.50436 8.76549C9.4263 8.76549 9.35255 8.79854 9.28311 8.86466L5.73269 12.4357C5.65672 12.5151 5.56595 12.5757 5.4604 12.6174C5.35484 12.659 5.22929 12.6799 5.08373 12.6799C4.84762 12.6799 4.64804 12.6018 4.48498 12.4457C4.32192 12.2896 4.2404 12.0951 4.2404 11.8624C4.2404 11.7413 4.26456 11.6255 4.3129 11.5151C4.36123 11.4045 4.4304 11.3042 4.5204 11.2142L8.62581 7.10382C8.77012 6.95952 8.94456 6.89417 9.14915 6.90778C9.35373 6.92125 9.53151 7.00181 9.68248 7.14945L11.6277 9.09966C11.8003 9.27243 11.9846 9.41424 12.1804 9.52507C12.3762 9.63577 12.6194 9.69111 12.9098 9.69111C13.3776 9.69111 13.7676 9.54382 14.0798 9.24924C14.3919 8.95452 14.5479 8.55743 14.5479 8.05799C14.5479 7.83368 14.5039 7.62528 14.416 7.43278C14.328 7.24028 14.187 7.04716 13.9931 6.85341L11.2998 4.15986C11.0821 3.94222 10.9603 3.68403 10.9341 3.38528C10.908 3.08653 11.0055 2.83854 11.2264 2.64132C11.3892 2.50577 11.5626 2.40674 11.7464 2.34424C11.9303 2.28174 12.1228 2.25049 12.3237 2.25049C12.6565 2.25049 12.9911 2.32938 13.3275 2.48715C13.6637 2.64493 13.9671 2.8591 14.2377 3.12965L17.6589 6.56674C17.9289 6.83993 18.1304 7.14257 18.2633 7.47466C18.3964 7.80688 18.4629 8.18931 18.4629 8.62195C18.4629 8.94945 18.3921 9.27139 18.2504 9.58778C18.1089 9.90403 17.9117 10.1901 17.6589 10.4461L10.6816 17.4394C10.5672 17.5539 10.4625 17.6267 10.3675 17.6578C10.2725 17.6888 10.1645 17.7042 10.0435 17.7042ZM2.46686 10.6922C2.13088 10.4144 1.8772 10.0891 1.70581 9.71632C1.53442 9.34354 1.44873 8.95445 1.44873 8.54903C1.44873 8.17792 1.51804 7.8225 1.65665 7.48278C1.79526 7.1432 2.00845 6.82952 2.29623 6.54174L5.68748 3.12965C5.93026 2.89021 6.19984 2.70382 6.49623 2.57049C6.79248 2.43715 7.10699 2.37049 7.43977 2.37049C7.80033 2.37049 8.14956 2.43549 8.48748 2.56549C8.82554 2.69549 9.11929 2.88354 9.36873 3.12965L13.5348 7.29091C13.6453 7.40132 13.7369 7.51875 13.8094 7.6432C13.8819 7.76764 13.9181 7.90591 13.9181 8.05799C13.9181 8.33854 13.8194 8.57757 13.6219 8.77507C13.4244 8.97243 13.1853 9.07111 12.9048 9.07111C12.7388 9.07111 12.5858 9.03146 12.4458 8.95216C12.306 8.87271 12.1755 8.77077 12.0544 8.64632L10.11 6.70216C9.83734 6.42952 9.50498 6.2932 9.1129 6.2932C8.72095 6.2932 8.38859 6.42952 8.11581 6.70216L4.07248 10.7455C3.8647 10.9533 3.60755 11.0458 3.30102 11.023C2.99436 11.0002 2.7163 10.8899 2.46686 10.6922Z" fill="#C8C9CE"/>
</g>
</svg>
