<svg width="20" height="20" viewBox="0 0 20 20" fill="none" xmlns="http://www.w3.org/2000/svg">
<mask id="mask0_4217_1009" style="mask-type:alpha" maskUnits="userSpaceOnUse" x="-1" y="0" width="21" height="20">
<rect x="-0.416504" width="20" height="20" fill="white"/>
</mask>
<g mask="url(#mask0_4217_1009)">
<path d="M8.31269 12.2708V12.9999C8.31269 13.353 8.43623 13.653 8.68331 13.9001C8.9304 14.1472 9.23047 14.2708 9.58352 14.2708C9.93658 14.2708 10.2366 14.1472 10.4837 13.9001C10.7308 13.653 10.8544 13.353 10.8544 12.9999V12.2708H11.5835C11.9366 12.2708 12.2366 12.1472 12.4837 11.9001C12.7308 11.653 12.8544 11.353 12.8544 10.9999C12.8544 10.6469 12.7308 10.3468 12.4837 10.0997C12.2366 9.85263 11.9366 9.72909 11.5835 9.72909H10.8544V8.99992C10.8544 8.64687 10.7308 8.3468 10.4837 8.09971C10.2366 7.85263 9.93658 7.72909 9.58352 7.72909C9.23047 7.72909 8.9304 7.85263 8.68331 8.09971C8.43623 8.3468 8.31269 8.64687 8.31269 8.99992V9.72909H7.58352C7.23047 9.72909 6.9304 9.85263 6.68331 10.0997C6.43623 10.3468 6.31269 10.6469 6.31269 10.9999C6.31269 11.353 6.43623 11.653 6.68331 11.9001C6.9304 12.1472 7.23047 12.2708 7.58352 12.2708H8.31269ZM5.21894 17.4003C4.64922 17.4003 4.16748 17.2024 3.77373 16.8066C3.37998 16.4108 3.18311 15.9281 3.18311 15.3587V8.32055C3.18311 8.00208 3.2529 7.70041 3.39248 7.41555C3.53192 7.13055 3.73422 6.88423 3.99936 6.67659L8.3579 3.40742C8.73776 3.13451 9.1463 2.99805 9.58352 2.99805C10.0207 2.99805 10.4293 3.13451 10.8091 3.40742L15.1677 6.67659C15.4328 6.88423 15.6351 7.13055 15.7746 7.41555C15.9141 7.70041 15.9839 8.00208 15.9839 8.32055V15.3587C15.9839 15.9281 15.786 16.4108 15.39 16.8066C14.994 17.2024 14.5112 17.4003 13.9414 17.4003H5.21894Z" fill="#C8C9CE"/>
</g>

</svg>
