<svg viewBox="0 0 12 10" fill="none" xmlns="http://www.w3.org/2000/svg">
<path fill-rule="evenodd" clip-rule="evenodd" d="M4.79962 9.75608C4.92983 9.91869 5.11013 10 5.30044 10H5.31046C5.45069 10 5.60093 9.94918 5.72113 9.84755L10.9096 5.50783C11.0599 5.38587 11.15 5.19277 11.15 4.99967C11.15 4.80657 11.0599 4.61346 10.9096 4.49151L5.72113 0.151787C5.44067 -0.0819679 5.03 -0.0413148 4.79962 0.243257C4.56924 0.527829 4.60931 0.944523 4.88977 1.17828L8.68906 4.35001H0.65C0.291015 4.35001 0 4.64102 0 5.00001C0 5.35899 0.291015 5.65001 0.65 5.65001H8.68825L4.88977 8.82106C4.60931 9.05482 4.56924 9.47151 4.79962 9.75608Z" fill="#FF5100"/>
</svg>
