<svg  viewBox="0 0 8 8" fill="none" xmlns="http://www.w3.org/2000/svg">
<path fill-rule="evenodd" clip-rule="evenodd" d="M3.44327 7.41256C3.53671 7.52924 3.66607 7.58758 3.80262 7.58758H3.80981C3.91043 7.58758 4.01823 7.55112 4.10448 7.47819L7.82735 4.36435C7.93515 4.27684 7.99984 4.13828 7.99984 3.99973C7.99984 3.86117 7.93515 3.72262 7.82735 3.63511L4.10448 0.521264C3.90324 0.35354 3.60858 0.382709 3.44327 0.586896C3.27797 0.791082 3.30672 1.09007 3.50796 1.25779L6.23388 3.53345H0.46639C0.20881 3.53345 0 3.74226 0 3.99984C0 4.25742 0.20881 4.46623 0.46639 4.46623H6.23362L3.50796 6.74166C3.30672 6.90939 3.27797 7.20838 3.44327 7.41256Z" fill="#FF5100"/>
</svg>
