<svg width="20" height="20" viewBox="0 0 20 20" fill="none" xmlns="http://www.w3.org/2000/svg">
<mask id="mask0_4124_42259" style="mask-type:alpha" maskUnits="userSpaceOnUse" x="0" y="0" width="20" height="20">
<rect width="20" height="20" fill="white"/>
</mask>
<g mask="url(#mask0_4124_42259)">
<path d="M1.54199 15.3535V14.6799C1.54199 14.174 1.67366 13.7131 1.93699 13.2972C2.20019 12.8815 2.56401 12.5698 3.02845 12.362C3.85123 11.9837 4.69303 11.6791 5.55387 11.4483C6.4147 11.2174 7.29977 11.102 8.20908 11.102C8.36796 11.102 8.49491 11.1668 8.58991 11.2962C8.68477 11.4255 8.70637 11.5696 8.6547 11.7285C8.56484 12.0545 8.50435 12.3822 8.47324 12.7116C8.44213 13.0411 8.42658 13.3705 8.42658 13.6999C8.42658 14.0888 8.45088 14.4708 8.49949 14.8458C8.5481 15.2208 8.63491 15.5905 8.75991 15.955C8.83935 16.1481 8.82894 16.3327 8.72866 16.5087C8.62838 16.6848 8.48165 16.7729 8.28845 16.7729H2.96137C2.56442 16.7729 2.22859 16.6347 1.95387 16.3585C1.67928 16.0821 1.54199 15.7471 1.54199 15.3535ZM14.5628 15.0191C15.0528 15.0191 15.4482 14.8688 15.7489 14.5683C16.0494 14.2677 16.1997 13.8708 16.1997 13.3774C16.1997 12.8874 16.0494 12.4921 15.7489 12.1914C15.4482 11.8909 15.0528 11.7406 14.5628 11.7406C14.0728 11.7406 13.6767 11.8909 13.3745 12.1914C13.0723 12.4921 12.9212 12.8874 12.9212 13.3774C12.9212 13.8708 13.0723 14.2677 13.3745 14.5683C13.6767 14.8688 14.0728 15.0191 14.5628 15.0191ZM8.33324 9.8312C7.38005 9.8312 6.60019 9.52793 5.99366 8.92141C5.38699 8.31474 5.08366 7.53481 5.08366 6.58161C5.08366 5.62842 5.38699 4.84856 5.99366 4.24203C6.60019 3.63536 7.38005 3.33203 8.33324 3.33203C9.28644 3.33203 10.0671 3.63536 10.6753 4.24203C11.2837 4.84856 11.5878 5.62842 11.5878 6.58161C11.5878 7.53481 11.2837 8.31474 10.6753 8.92141C10.0671 9.52793 9.28644 9.8312 8.33324 9.8312ZM13.883 17.1156L13.7422 16.2347C13.5128 16.1686 13.2798 16.0713 13.0435 15.9427C12.8071 15.814 12.6088 15.6681 12.4487 15.5047L11.677 15.6664C11.5559 15.6975 11.441 15.6906 11.3322 15.6456C11.2233 15.6006 11.1378 15.5245 11.0755 15.4172L10.9455 15.1939C10.8728 15.0763 10.8468 14.9552 10.8676 14.8308C10.8885 14.7063 10.9455 14.5991 11.0389 14.5091L11.7114 13.8783C11.6803 13.7633 11.6655 13.5972 11.6672 13.3799C11.6689 13.1627 11.6836 12.9982 11.7114 12.8864L11.0339 12.2456C10.9439 12.1695 10.8885 12.0674 10.8676 11.9395C10.8468 11.8115 10.8728 11.6938 10.9455 11.5866L11.0755 11.3266C11.1378 11.2195 11.219 11.147 11.3193 11.1089C11.4194 11.0709 11.53 11.0657 11.6512 11.0935L12.4487 11.2552C12.6088 11.0952 12.8071 10.95 13.0435 10.8197C13.2798 10.6895 13.5128 10.5929 13.7422 10.5299L13.883 9.65412C13.9108 9.50523 13.9783 9.38155 14.0855 9.28307C14.1928 9.18446 14.3207 9.13516 14.4695 9.13516H14.6562C14.805 9.13516 14.9323 9.18363 15.0378 9.28057C15.1432 9.37738 15.2115 9.50023 15.2426 9.64912L15.3834 10.5299C15.6097 10.5929 15.8419 10.6895 16.0799 10.8197C16.318 10.95 16.517 11.0952 16.677 11.2552L17.4537 11.0935C17.5714 11.0657 17.6848 11.0743 17.7937 11.1193C17.9024 11.1643 17.9879 11.2404 18.0501 11.3474L18.1801 11.5658C18.2529 11.6869 18.278 11.8088 18.2555 11.9316C18.233 12.0543 18.1751 12.1606 18.0818 12.2506L17.4093 12.8864C17.4437 13.0015 17.4601 13.1669 17.4585 13.3824C17.4568 13.598 17.4404 13.7633 17.4093 13.8783L18.0818 14.5091C18.1751 14.5886 18.233 14.6931 18.2555 14.8229C18.278 14.9526 18.2529 15.071 18.1801 15.1781L18.0501 15.4381C17.9879 15.5453 17.9059 15.6171 17.8041 15.6535C17.7021 15.6899 17.5906 15.6942 17.4695 15.6664L16.677 15.5047C16.517 15.6681 16.318 15.814 16.0799 15.9427C15.8419 16.0713 15.6097 16.1686 15.3834 16.2347L15.2426 17.1106C15.2115 17.2595 15.1424 17.3824 15.0353 17.4793C14.9281 17.5763 14.8017 17.6247 14.6562 17.6247H14.4695C14.3207 17.6247 14.1928 17.5771 14.0855 17.4818C13.9783 17.3865 13.9108 17.2645 13.883 17.1156Z" fill="#C8C9CE"/>
</g>
</svg>
