<svg width="20" height="20" viewBox="0 0 20 20" fill="none" xmlns="http://www.w3.org/2000/svg">
<mask id="mask0_4217_5986" style="mask-type:alpha" maskUnits="userSpaceOnUse" x="0" y="0" width="20" height="20">
<rect width="20" height="20" fill="#D9D9D9"/>
</mask>
<g mask="url(#mask0_4217_5986)">
<path d="M3.54438 16.3575C3.40271 16.216 3.33188 16.0537 3.33188 15.8706C3.33188 15.6877 3.40271 15.5254 3.54438 15.3838L4.77042 14.1321C4.29431 13.5488 3.92327 12.9011 3.65729 12.1892C3.39146 11.4771 3.25854 10.7147 3.25854 9.90189C3.25854 8.02092 3.91188 6.4271 5.21855 5.12044C6.52521 3.81391 8.11903 3.16064 10 3.16064H15.3221C15.7157 3.16064 16.0507 3.29877 16.3271 3.57502C16.6033 3.85127 16.7415 4.18627 16.7415 4.58002V9.90189C16.7415 11.783 16.0881 13.3768 14.7815 14.6834C13.4748 15.99 11.881 16.6434 10 16.6434C9.18723 16.6434 8.42403 16.5104 7.71042 16.2446C6.99681 15.9788 6.34834 15.6077 5.765 15.1315L4.51813 16.3575C4.37646 16.4992 4.21417 16.57 4.03125 16.57C3.84834 16.57 3.68605 16.4992 3.54438 16.3575ZM6.91084 12.9913C7.0557 13.1328 7.2223 13.2036 7.41063 13.2036C7.59882 13.2036 7.76375 13.1328 7.90542 12.9913L11.1848 9.71169C11.3265 9.57016 11.3973 9.4044 11.3973 9.2144C11.3973 9.02453 11.3265 8.85877 11.1848 8.7171C11.057 8.58946 10.8947 8.52564 10.6979 8.52564C10.5011 8.52564 10.3388 8.58946 10.211 8.7171L6.89584 12.0273C6.76806 12.1551 6.70584 12.3157 6.70917 12.5092C6.7125 12.7028 6.77973 12.8635 6.91084 12.9913Z" fill="#C8C9CE"/>
</g>
</svg>
