<svg width="20" height="20" viewBox="0 0 20 20" fill="none" xmlns="http://www.w3.org/2000/svg">
<g clip-path="url(#clip0_4217_6667)">
<mask id="mask0_4217_6667" style="mask-type:alpha" maskUnits="userSpaceOnUse" x="0" y="0" width="20" height="20">
<rect width="20" height="20" fill="white"/>
</mask>
<g mask="url(#mask0_4217_6667)">
<path d="M3.00161 17.6398C2.6112 17.6398 2.27703 17.5008 1.99911 17.2229C1.72106 16.945 1.58203 16.6108 1.58203 16.2204V2.74561C1.58203 2.66325 1.61745 2.60728 1.68828 2.5777C1.75911 2.54811 1.82564 2.56277 1.88786 2.62165L3.00286 3.72665L4.1337 2.57999C4.20536 2.50388 4.29064 2.46582 4.38953 2.46582C4.48828 2.46582 4.57571 2.50388 4.65182 2.57999L5.7987 3.72665L6.95036 2.57999C7.018 2.50388 7.10189 2.46582 7.20203 2.46582C7.30203 2.46582 7.39085 2.50388 7.46849 2.57999L8.59432 3.72165L9.7412 2.58499C9.81273 2.50554 9.89793 2.46582 9.99682 2.46582C10.0957 2.46582 10.1831 2.50554 10.2591 2.58499L11.406 3.72165L12.5368 2.57999C12.6046 2.50388 12.6885 2.46582 12.7885 2.46582C12.8885 2.46582 12.9773 2.50388 13.0549 2.57999L14.2016 3.72665L15.3485 2.57999C15.4202 2.50388 15.5054 2.46582 15.6041 2.46582C15.703 2.46582 15.7905 2.50388 15.8666 2.57999L16.9974 3.72665L18.1124 2.62165C18.1747 2.56277 18.2412 2.54811 18.312 2.5777C18.3829 2.60728 18.4183 2.66325 18.4183 2.74561V16.2204C18.4183 16.6108 18.2793 16.945 18.0012 17.2229C17.7233 17.5008 17.3891 17.6398 16.9987 17.6398H3.00161ZM3.00161 16.2204H9.32036V10.3871H3.00161V16.2204ZM10.6799 16.2204H16.9987V13.9883H10.6799V16.2204ZM10.6799 12.6237H16.9987V10.3871H10.6799V12.6237ZM3.00161 9.02249H16.9987V6.63707H3.00161V9.02249Z" fill="#C8C9CE"/>
</g>
</g>
<defs>
<clipPath id="clip0_4217_6667">
<rect width="20" height="20" fill="white"/>
</clipPath>
</defs>
</svg>
