<svg xmlns="http://www.w3.org/2000/svg" width="40" height="40" fill="none" viewBox="0 0 40 40">
  <rect width="40" height="40" fill="#FF5100" rx="4"/>
  <path fill="#fff" d="M30.574 10.973v3.36c-.96.12-1.78.5-2.46 1.14-.64.64-1.14 1.46-1.5 2.46-.32.96-.48 2-.48 3.12h4.08v8.28h-8.4v-7.5c0-2.4.4-4.36 1.2-5.88.84-1.52 1.92-2.68 3.24-3.48 1.32-.8 2.76-1.3 4.32-1.5Zm-12.54 0v3.36c-.92.12-1.72.5-2.4 1.14-.64.64-1.14 1.46-1.5 2.46-.32.96-.48 2-.48 3.12h4.08v8.28h-8.4v-7.5c0-2.4.4-4.36 1.2-5.88.84-1.52 1.92-2.68 3.24-3.48 1.32-.8 2.74-1.3 4.26-1.5Z"/>
</svg>
