<svg width="20" height="20" viewBox="0 0 20 20" fill="none" xmlns="http://www.w3.org/2000/svg">
<mask id="mask0_4217_6219" style="mask-type:alpha" maskUnits="userSpaceOnUse" x="0" y="0" width="20" height="20">
<rect width="20" height="20" fill="white"/>
</mask>
<g mask="url(#mask0_4217_6219)">
<path d="M1.05272 11.5633C0.693416 10.9661 0.428138 10.3671 0.256888 9.76625C0.0857769 9.16542 0.000221357 8.5775 0.000221357 8.0025C0.000221357 6.47639 0.535777 5.17778 1.60689 4.10667C2.678 3.03556 3.97515 2.5 5.49835 2.5C6.37335 2.5 7.20272 2.67972 7.98647 3.03917C8.77008 3.39861 9.44133 3.8925 10.0002 4.52083C10.5591 3.8925 11.2304 3.39861 12.014 3.03917C12.7977 2.67972 13.6265 2.5 14.5002 2.5C16.0247 2.5 17.3224 3.03556 18.3936 4.10667C19.4647 5.17778 20.0002 6.47639 20.0002 8.0025C20.0002 8.5775 19.9143 9.16194 19.7425 9.75583C19.5706 10.3497 19.3056 10.9436 18.9477 11.5375C18.7823 11.3576 18.5953 11.2103 18.3867 11.0956C18.1782 10.9809 17.9602 10.8901 17.7325 10.8233C18.0133 10.3372 18.2249 9.85889 18.3673 9.38833C18.5097 8.91778 18.5808 8.455 18.5808 8C18.5808 6.86931 18.1834 5.90653 17.3886 5.11167C16.5937 4.31681 15.6309 3.91938 14.5002 3.91938C13.7695 3.91938 13.0343 4.13014 12.2946 4.55167C11.5549 4.97319 10.7901 5.66715 10.0002 6.63354C9.21036 5.67049 8.44557 4.97736 7.70585 4.55417C6.96612 4.13097 6.23092 3.91938 5.50022 3.91938C4.36953 3.91938 3.40758 4.31681 2.61439 5.11167C1.82119 5.90653 1.4246 6.86931 1.4246 8C1.4246 8.455 1.49494 8.91778 1.63564 9.38833C1.77633 9.85889 1.98876 10.3372 2.27293 10.8233C2.04529 10.8901 1.82717 10.9852 1.61855 11.1085C1.41008 11.2319 1.22147 11.3835 1.05272 11.5633ZM-0.0595703 18.6323V17.466C-0.0595703 16.9084 0.237027 16.4574 0.830221 16.1129C1.42328 15.7683 2.18828 15.596 3.12522 15.596C3.28744 15.596 3.4346 15.5987 3.56668 15.604C3.69876 15.6092 3.83286 15.6241 3.96897 15.6485C3.85453 15.8913 3.76703 16.1406 3.70647 16.3965C3.64592 16.6522 3.61564 16.9261 3.61564 17.2183V18.6323H-0.0595703ZM4.94043 18.6323V17.2183C4.94043 16.295 5.40772 15.5508 6.34231 14.9856C7.27675 14.4203 8.49585 14.1377 9.9996 14.1377C11.5199 14.1377 12.7433 14.4203 13.67 14.9856C14.5967 15.5508 15.06 16.295 15.06 17.2183V18.6323H4.94043ZM16.3848 18.6323V17.2163C16.3848 16.9253 16.358 16.6521 16.3044 16.3967C16.2508 16.1411 16.1667 15.8917 16.0523 15.6485C16.1884 15.6241 16.3231 15.6092 16.4563 15.604C16.5895 15.5987 16.7291 15.596 16.8752 15.596C17.8263 15.596 18.5949 15.7681 19.1811 16.1123C19.767 16.4566 20.06 16.9086 20.06 17.4683V18.6323H16.3848ZM3.12626 14.986C2.71279 14.986 2.36036 14.8399 2.06897 14.5475C1.77772 14.2553 1.6321 13.9025 1.6321 13.4892C1.6321 13.0756 1.77786 12.7231 2.06939 12.4317C2.36092 12.1403 2.71286 11.9946 3.12522 11.9946C3.538 11.9946 3.89092 12.1403 4.18397 12.4319C4.47689 12.7233 4.62335 13.0753 4.62335 13.4881C4.62335 13.9006 4.4773 14.2534 4.18522 14.5465C3.893 14.8395 3.54001 14.986 3.12626 14.986ZM16.8763 14.986C16.4628 14.986 16.1104 14.8399 15.819 14.5475C15.5277 14.2553 15.3821 13.9025 15.3821 13.4892C15.3821 13.0756 15.5279 12.7231 15.8194 12.4317C16.1109 12.1403 16.4629 11.9946 16.8752 11.9946C17.288 11.9946 17.6409 12.1403 17.934 12.4319C18.2269 12.7233 18.3733 13.0753 18.3733 13.4881C18.3733 13.9006 18.2273 14.2534 17.9352 14.5465C17.643 14.8395 17.29 14.986 16.8763 14.986ZM10.0027 13.5177C9.29092 13.5177 8.68592 13.2686 8.18772 12.7704C7.68953 12.2722 7.44043 11.6672 7.44043 10.9554C7.44043 10.2321 7.68953 9.62507 8.18772 9.13438C8.68592 8.64354 9.29092 8.39813 10.0027 8.39813C10.7261 8.39813 11.3331 8.64354 11.8238 9.13438C12.3146 9.62507 12.56 10.2321 12.56 10.9554C12.56 11.6672 12.3146 12.2722 11.8238 12.7704C11.3331 13.2686 10.7261 13.5177 10.0027 13.5177Z" fill="#C8C9CE"/>
</g>
</svg>
