<svg width="36" height="36" viewBox="0 0 36 36" fill="none" xmlns="http://www.w3.org/2000/svg">
<rect x="0.25" y="0.25" width="35.5" height="35.5" rx="17.75" stroke="#FF5100" stroke-width="0.5"/>
<path fill-rule="evenodd" clip-rule="evenodd" d="M8.97671 14.4108C8.88288 15.6049 8.83507 16.8021 8.83337 17.9999C8.83337 19.3599 8.90004 20.6391 8.98504 21.6999C9.10671 23.2141 10.2609 24.3716 11.75 24.4749C13.245 24.5791 15.3375 24.6666 18 24.6666C20.6625 24.6666 22.755 24.5791 24.25 24.4749C25.7392 24.3716 26.8934 23.2141 27.015 21.6999C27.1 20.6391 27.1667 19.3599 27.1667 17.9999C27.1667 16.6866 27.105 15.4499 27.0234 14.4108C26.9715 13.6632 26.651 12.9595 26.1212 12.4296C25.5913 11.8997 24.8876 11.5793 24.14 11.5274C22.6584 11.4224 20.6367 11.3333 18 11.3333C15.3634 11.3333 13.3409 11.4224 11.86 11.5274C11.1125 11.5793 10.4088 11.8997 9.87893 12.4296C9.34903 12.9595 9.02859 13.6632 8.97671 14.4108ZM20.9167 17.9999L16.3334 15.4999V20.4999L20.9167 17.9999Z" fill="#FF5100"/>
<path fill-rule="evenodd" clip-rule="evenodd" d="M8.97671 14.4108C8.88288 15.6049 8.83507 16.8021 8.83337 17.9999C8.83337 19.3599 8.90004 20.6391 8.98504 21.6999C9.10671 23.2141 10.2609 24.3716 11.75 24.4749C13.245 24.5791 15.3375 24.6666 18 24.6666C20.6625 24.6666 22.755 24.5791 24.25 24.4749C25.7392 24.3716 26.8934 23.2141 27.015 21.6999C27.1 20.6391 27.1667 19.3599 27.1667 17.9999C27.1667 16.6866 27.105 15.4499 27.0234 14.4108C26.9715 13.6632 26.651 12.9595 26.1212 12.4296C25.5913 11.8997 24.8876 11.5793 24.14 11.5274C22.6584 11.4224 20.6367 11.3333 18 11.3333C15.3634 11.3333 13.3409 11.4224 11.86 11.5274C11.1125 11.5793 10.4088 11.8997 9.87893 12.4296C9.34903 12.9595 9.02859 13.6632 8.97671 14.4108ZM20.9167 17.9999L16.3334 15.4999V20.4999L20.9167 17.9999Z" fill="#FF5100"/>
</svg>
