<svg width="36" height="36" viewBox="0 0 36 36" fill="none" xmlns="http://www.w3.org/2000/svg">
<rect x="0.25" y="0.25" width="35.5" height="35.5" rx="17.75" stroke="#FF5100" stroke-width="0.5"/>
<path d="M15.9166 20.9167C15.9166 19.9167 16.75 19.25 18 19.25C19.25 19.25 20.0833 19.9167 20.0833 20.9167C20.0833 23 19.6666 27.1667 18 27.1667C16.3333 27.1667 15.9166 23 15.9166 20.9167Z" fill="#FF5100"/>
<path fill-rule="evenodd" clip-rule="evenodd" d="M10.7084 17.1667C10.7087 15.8624 11.059 14.582 11.7225 13.4591C12.3861 12.3362 13.3387 11.4119 14.4811 10.7824C15.6234 10.153 16.9137 9.84143 18.2174 9.88031C19.5212 9.9192 20.7906 10.3071 21.8934 11.0035C22.9962 11.6999 23.892 12.6794 24.4875 13.8399C25.083 15.0003 25.3562 16.2993 25.2789 17.6013C25.2015 18.9033 24.7763 20.1607 24.0476 21.2425C23.3189 22.3242 22.3134 23.1907 21.1359 23.7517C21.068 24.245 20.9748 24.7345 20.8567 25.2183C24.1692 24.0433 26.5417 20.8825 26.5417 17.1667C26.5417 12.45 22.7167 8.625 18 8.625C13.2834 8.625 9.45837 12.45 9.45837 17.1667C9.45837 20.8825 11.8309 24.0442 15.1434 25.2192L15.1184 25.115C15.0121 24.6648 14.9272 24.2099 14.8642 23.7517C13.62 23.159 12.5692 22.2258 11.8337 21.0604C11.0982 19.8949 10.708 18.5448 10.7084 17.1667Z" fill="#FF5100"/>
<path fill-rule="evenodd" clip-rule="evenodd" d="M13.625 17.1667C13.625 16.4552 13.7986 15.7545 14.1306 15.1253C14.4627 14.496 14.9431 13.9572 15.5304 13.5556C16.1177 13.154 16.7941 12.9017 17.5009 12.8205C18.2078 12.7394 18.9237 12.8318 19.5868 13.0899C20.2498 13.3479 20.8399 13.7638 21.3059 14.3014C21.7719 14.839 22.0998 15.4821 22.2611 16.1751C22.4224 16.8681 22.4123 17.5899 22.2316 18.278C22.0509 18.9662 21.7051 19.5999 21.2242 20.1242C21.2958 20.3751 21.3333 20.6409 21.3333 20.9167C21.3333 21.1567 21.3283 21.4242 21.3167 21.7109C22.2752 21.0111 22.9879 20.0261 23.3527 18.8968C23.7175 17.7675 23.7157 16.5517 23.3477 15.4234C22.9797 14.2951 22.2642 13.3121 21.3037 12.6151C20.3432 11.9181 19.1868 11.5427 18 11.5427C16.8132 11.5427 15.6568 11.9181 14.6963 12.6151C13.7358 13.3121 13.0203 14.2951 12.6523 15.4234C12.2843 16.5517 12.2825 17.7675 12.6473 18.8968C13.0121 20.0261 13.7248 21.0111 14.6833 21.7109C14.6717 21.4242 14.6667 21.1567 14.6667 20.9167C14.6667 20.6409 14.7042 20.3751 14.7758 20.1242C14.0343 19.318 13.6234 18.2621 13.625 17.1667Z" fill="#FF5100"/>
<path d="M16.125 16.5417C16.125 17.039 16.3225 17.5159 16.6742 17.8676C17.0258 18.2192 17.5027 18.4167 18 18.4167C18.4973 18.4167 18.9742 18.2192 19.3258 17.8676C19.6775 17.5159 19.875 17.039 19.875 16.5417C19.875 16.0445 19.6775 15.5676 19.3258 15.2159C18.9742 14.8643 18.4973 14.6667 18 14.6667C17.5027 14.6667 17.0258 14.8643 16.6742 15.2159C16.3225 15.5676 16.125 16.0445 16.125 16.5417Z" fill="#FF5100"/>
</svg>
