<svg width="36" height="36" viewBox="0 0 36 36" fill="none" xmlns="http://www.w3.org/2000/svg">
<rect x="0.25" y="0.25" width="35.5" height="35.5" rx="17.75" stroke="#FF5100" stroke-width="0.5"/>
<g clip-path="url(#clip0_10227_7154)">
<mask id="mask0_10227_7154" style="mask-type:luminance" maskUnits="userSpaceOnUse" x="8" y="8" width="20" height="20">
<path d="M27.6654 8.43066H8.31055V27.7855H27.6654V8.43066Z" fill="white"/>
</mask>
<g mask="url(#mask0_10227_7154)">
<path d="M17.988 8.43066C12.6654 8.43066 8.31055 12.7855 8.31055 18.1081C8.31055 23.4307 12.6654 27.7855 17.988 27.7855C23.3106 27.7855 27.6654 23.4307 27.6654 18.1081C27.6654 12.7855 23.359 8.43066 17.988 8.43066ZM22.4404 22.4146C22.2468 22.704 21.9081 22.8017 21.617 22.6081C19.3428 21.2049 16.488 20.9137 13.1001 21.6879C12.763 21.7863 12.4718 21.5436 12.3751 21.2533C12.2783 20.9137 12.5202 20.6242 12.8105 20.5275C16.488 19.704 19.6815 20.0436 22.1977 21.592C22.5364 21.7371 22.5839 22.1234 22.4404 22.4146ZM23.6017 19.7533C23.359 20.092 22.9235 20.2371 22.5839 19.9952C19.9719 18.3984 16.0041 17.9146 12.9557 18.8823C12.5694 18.9791 12.1331 18.7855 12.0364 18.3984C11.9396 18.0113 12.1331 17.575 12.5202 17.4782C16.0525 16.4146 20.4073 16.9476 23.4073 18.7855C23.6984 18.9315 23.8428 19.4146 23.6017 19.7533ZM23.6984 17.0436C20.6009 15.2049 15.4235 15.0113 12.4718 15.9315C11.988 16.0758 11.5041 15.7855 11.3589 15.35C11.2138 14.8653 11.5041 14.3823 11.9396 14.2363C15.3751 13.2202 21.0364 13.4137 24.6178 15.5436C25.0525 15.7855 25.1977 16.3662 24.9557 16.8017C24.7146 17.1411 24.1332 17.2847 23.6984 17.0436Z" fill="#FF5100"/>
</g>
</g>
<defs>
<clipPath id="clip0_10227_7154">
<rect width="20" height="20" fill="white" transform="translate(8 8)"/>
</clipPath>
</defs>
</svg>
