<svg width="36" height="36" viewBox="0 0 36 36" fill="none" xmlns="http://www.w3.org/2000/svg">
<rect x="0.25" y="0.25" width="35.5" height="35.5" rx="17.75" stroke="#FF5100" stroke-width="0.5"/>
<path fill-rule="evenodd" clip-rule="evenodd" d="M10 10H10.3674C19.0931 10 26.1667 17.0737 26.1667 25.7993V26.1667H23.2273V25.7993C23.2273 18.697 17.4698 12.9394 10.3674 12.9394H10V10ZM10.3674 15.144H10V18.0834H10.3674C14.6288 18.0834 18.0834 21.5379 18.0834 25.7993V26.1667H21.0228V25.7993C21.0228 19.9146 16.2521 15.144 10.3674 15.144ZM12.572 21.0228C11.8899 21.0228 11.2357 21.2938 10.7533 21.7761C10.271 22.2584 10 22.9126 10 23.5948C10 24.2769 10.271 24.9311 10.7533 25.4134C11.2357 25.8958 11.8899 26.1667 12.572 26.1667C13.2541 26.1667 13.9083 25.8958 14.3906 25.4134C14.873 24.9311 15.144 24.2769 15.144 23.5948C15.144 22.9126 14.873 22.2584 14.3906 21.7761C13.9083 21.2938 13.2541 21.0228 12.572 21.0228Z" fill="#FF5100"/>
</svg>
