<svg width="20" height="20" viewBox="0 0 20 20" fill="none" xmlns="http://www.w3.org/2000/svg">
<mask id="mask0_4217_6244" style="mask-type:alpha" maskUnits="userSpaceOnUse" x="0" y="0" width="20" height="20">
<rect width="20" height="20" fill="white"/>
</mask>
<g mask="url(#mask0_4217_6244)">
<path d="M18.9098 5.07161C18.6399 4.79464 18.2791 4.64194 17.8945 4.64194H10.1018L9.19434 4.04753L18.1048 1.56861C18.5217 1.45266 18.7657 1.02058 18.6497 0.603602C18.5338 0.18662 18.1017 -0.0573118 17.6847 0.058638L7.21488 2.97138H1.84225C1.05598 2.9716 0.416504 3.61873 0.416504 4.41397V8.01958H19.3196L19.32 6.08475C19.32 5.7032 19.1743 5.34332 18.9096 5.07161H18.9098ZM6.52596 6.42494C6.52596 6.449 6.50627 6.46869 6.48221 6.46869H3.06344C3.03938 6.46869 3.01969 6.449 3.01969 6.42494V4.88806C3.01969 4.86399 3.03938 4.8443 3.06344 4.8443H6.48221C6.50627 4.8443 6.52596 4.86399 6.52596 4.88806V6.42494Z" fill="#C8C9CE"/>
<path fill-rule="evenodd" clip-rule="evenodd" d="M1.84225 20.0296C1.05598 20.0296 0.416504 19.3827 0.416504 18.5872V8.74268H19.3194L19.318 13.8987C18.5976 13.3037 17.6738 12.9463 16.6665 12.9463C15.374 12.9463 14.2189 13.5348 13.4546 14.4586H3.2949C3.14286 14.4586 3.01969 14.5817 3.01969 14.7338H3.0199V17.0062C3.0199 17.1582 3.14307 17.2814 3.29512 17.2814H12.5032C12.5457 18.3502 12.9907 19.3154 13.6909 20.0296H1.84225Z" fill="#C8C9CE"/>
<path d="M15.6473 17.6848L18.0875 15.2446C18.2308 15.1029 18.3981 15.0313 18.5894 15.0298C18.7806 15.0281 18.946 15.095 19.0854 15.2304C19.2249 15.3782 19.2953 15.5508 19.2969 15.7481C19.2985 15.9455 19.2286 16.1161 19.0871 16.26L16.1446 19.1975C16.0024 19.3392 15.8365 19.41 15.6469 19.41C15.4573 19.41 15.2917 19.3392 15.15 19.1975L13.9625 18.015C13.8208 17.871 13.75 17.7029 13.75 17.5109C13.75 17.3189 13.8208 17.153 13.9625 17.0131C14.1042 16.8837 14.2699 16.819 14.4598 16.819C14.6497 16.819 14.8154 16.8828 14.9571 17.0104L15.6473 17.6848Z" fill="#C8C9CE"/>
</g>
</svg>
