<svg width="20" height="20" viewBox="0 0 20 20" fill="none" xmlns="http://www.w3.org/2000/svg">
<mask id="mask0_4217_5935" style="mask-type:alpha" maskUnits="userSpaceOnUse" x="0" y="0" width="20" height="20">
<rect width="20" height="20" fill="#D9D9D9"/>
</mask>
<g mask="url(#mask0_4217_5935)">
<path fill-rule="evenodd" clip-rule="evenodd" d="M18.0263 4.61215C18.4109 4.61215 18.7717 4.76485 19.0417 5.04182C19.3064 5.31354 19.4519 5.67342 19.4519 6.05496L19.4514 7.98979H0.54834V4.38419C0.54834 3.58895 1.18781 2.94182 1.97408 2.9416H7.34672L17.8165 0.0288529C18.2335 -0.0870969 18.6656 0.156835 18.7815 0.573817C18.8975 0.990799 18.6536 1.42288 18.2366 1.53883L9.32618 4.01774L10.2336 4.61215H18.0263ZM6.61404 6.43891C6.63811 6.43891 6.6578 6.41922 6.6578 6.39515V4.85827C6.6578 4.83421 6.63811 4.81452 6.61404 4.81452H3.19528C3.17121 4.81452 3.15152 4.83421 3.15152 4.85827V6.39515C3.15152 6.41922 3.17121 6.43891 3.19528 6.43891H6.61404Z" fill="#C8C9CE"/>
<path fill-rule="evenodd" clip-rule="evenodd" d="M1.97408 20C1.18781 20 0.54834 19.3531 0.54834 18.5576V8.71305H19.4512L19.4486 18.5581C19.4484 19.3531 18.8087 20 18.0228 20H1.97408ZM3.42674 14.4289C3.27469 14.4289 3.15152 14.5521 3.15152 14.7042L3.15174 16.9765C3.15174 17.1286 3.27491 17.2518 3.42696 17.2518H16.5733C16.7253 17.2518 16.8485 17.1286 16.8485 16.9765V14.7042C16.8485 14.5521 16.7253 14.4289 16.5733 14.4289H3.42674Z" fill="#C8C9CE"/>
</g>
</svg>
