<svg width="20" height="20" viewBox="0 0 20 20" fill="none" xmlns="http://www.w3.org/2000/svg">
<mask id="mask0_2420_75" style="mask-type:alpha" maskUnits="userSpaceOnUse" x="0" y="0" width="20" height="20">
<rect width="20" height="20" fill="white"/>
</mask>
<g mask="url(#mask0_2420_75)">
<path d="M12.5031 8.13545V6.24599H10.6263V13.7726H12.5031V11.8645C12.5031 11.5277 12.7846 11.2471 13.1225 11.2471H18.1398C18.4777 11.2471 18.7592 11.5277 18.7592 11.8645V16.8656C18.7592 17.2023 18.4777 17.4829 18.1398 17.4829H13.1225C12.7846 17.4829 12.5031 17.2023 12.5031 16.8656V15.0198H10.0007C9.6566 15.0198 9.37508 14.7392 9.37508 14.3962V6.24599H7.49826V8.13545C7.49826 8.47218 7.21674 8.75279 6.87891 8.75279H1.86154C1.52371 8.75279 1.24219 8.47218 1.24219 8.13545V3.13431C1.24219 2.79758 1.52371 2.51697 1.86154 2.51697H6.87891C7.21674 2.51697 7.49826 2.79758 7.49826 3.13431V4.99883H12.5031V3.13431C12.5031 2.79758 12.7846 2.51697 13.1225 2.51697H18.1398C18.4777 2.51697 18.7592 2.79758 18.7592 3.13431V8.13545C18.7592 8.47218 18.4777 8.75279 18.1398 8.75279H13.1225C12.7846 8.75279 12.5031 8.47218 12.5031 8.13545Z" fill="#C8C9CE"/>
</g>
</svg>
