<svg width="20" height="20" viewBox="0 0 20 20" fill="none" xmlns="http://www.w3.org/2000/svg">
<mask id="mask0_4217_6788" style="mask-type:alpha" maskUnits="userSpaceOnUse" x="0" y="0" width="20" height="20">
<rect width="20" height="20" fill="white"/>
</mask>
<g mask="url(#mask0_4217_6788)">
<path d="M7.55001 17.5934H3.81355C3.44688 17.5934 3.12612 17.456 2.85126 17.1811C2.5764 16.9063 2.43896 16.5855 2.43896 16.2188V12.4824C3.02021 12.4163 3.51799 12.1833 3.9323 11.7836C4.34646 11.3839 4.55355 10.897 4.55355 10.323C4.55355 9.74897 4.34646 9.26209 3.9323 8.86237C3.51799 8.46265 3.02021 8.22806 2.43896 8.15862V4.42716C2.43896 4.06049 2.5764 3.7389 2.85126 3.46237C3.12612 3.18584 3.44688 3.04758 3.81355 3.04758H7.39146C7.57077 2.47883 7.86751 2.00612 8.28167 1.62945C8.6957 1.25279 9.18549 1.06445 9.75105 1.06445C10.3166 1.06445 10.8064 1.25279 11.2204 1.62945C11.6346 2.00612 11.9313 2.47883 12.1106 3.04758H15.6052C15.9719 3.04758 16.2935 3.18584 16.57 3.46237C16.8465 3.7389 16.9848 4.06049 16.9848 4.42716V7.92174C17.5535 8.10105 18.0158 8.41167 18.3717 8.85362C18.7275 9.29542 18.9054 9.79911 18.9054 10.3647C18.9054 10.9302 18.7275 11.4096 18.3717 11.8028C18.0158 12.1961 17.5535 12.4824 16.9848 12.6617V16.2188C16.9848 16.5855 16.8465 16.9063 16.57 17.1811C16.2935 17.456 15.9719 17.5934 15.6052 17.5934H11.8738C11.801 16.9433 11.5599 16.4192 11.1504 16.0211C10.7408 15.6231 10.2605 15.424 9.70938 15.424C9.15827 15.424 8.67792 15.6233 8.26834 16.0217C7.8589 16.4202 7.61945 16.9441 7.55001 17.5934Z" fill="#C8C9CE"/>
</g>
</svg>
