<svg viewBox="0 0 38 38" fill="none" xmlns="http://www.w3.org/2000/svg">
<path d="M0 4C0 1.79086 1.79086 0 4 0H34C36.2091 0 38 1.79086 38 4V34C38 36.2091 36.2091 38 34 38H4C1.79086 38 0 36.2091 0 34V4Z" fill="#201435"/>
<mask id="mask0_4124_42518" style="mask-type:alpha" maskUnits="userSpaceOnUse" x="9" y="9" width="20" height="20">
<rect x="9" y="9" width="20" height="20" fill="#D9D9D9"/>
</mask>
<g mask="url(#mask0_4124_42518)">
<path fill-rule="evenodd" clip-rule="evenodd" d="M27.0263 13.6122C27.4109 13.6122 27.7717 13.7649 28.0416 14.0418C28.3064 14.3135 28.4518 14.6734 28.4518 15.055L28.4514 16.9898H9.54831V13.3842C9.54831 12.5889 10.1878 11.9418 10.9741 11.9416H16.3467L26.8165 9.02885C27.2335 8.9129 27.6656 9.15684 27.7815 9.57382C27.8975 9.9908 27.6535 10.4229 27.2366 10.5388L18.3261 13.0177L19.2336 13.6122H27.0263ZM15.614 15.4389C15.6381 15.4389 15.6578 15.4192 15.6578 15.3952V13.8583C15.6578 13.8342 15.6381 13.8145 15.614 13.8145H12.1952C12.1712 13.8145 12.1515 13.8342 12.1515 13.8583V15.3952C12.1515 15.4192 12.1712 15.4389 12.1952 15.4389H15.614Z" fill="#B29FEB"/>
<path fill-rule="evenodd" clip-rule="evenodd" d="M10.9741 29C10.1878 29 9.54831 28.3531 9.54831 27.5576V17.713H28.4512L28.4486 27.5581C28.4483 28.3531 27.8086 29 27.0228 29H10.9741ZM12.4267 23.4289C12.2747 23.4289 12.1515 23.5521 12.1515 23.7042L12.1517 25.9765C12.1517 26.1286 12.2749 26.2518 12.4269 26.2518H25.5732C25.7253 26.2518 25.8484 26.1286 25.8484 25.9765V23.7042C25.8484 23.5521 25.7253 23.4289 25.5732 23.4289H12.4267Z" fill="#B29FEB"/>
</g>
</svg>
