<svg width="20" height="20" viewBox="0 0 20 20" fill="none" xmlns="http://www.w3.org/2000/svg">
<mask id="mask0_4217_6903" style="mask-type:alpha" maskUnits="userSpaceOnUse" x="0" y="0" width="20" height="20">
<rect width="20" height="20" fill="#D9D9D9"/>
</mask>
<g mask="url(#mask0_4217_6903)">
<path d="M4.25552 3.39062H16.1722C16.3725 3.39062 16.5408 3.46 16.6772 3.59875C16.8137 3.7375 16.882 3.90757 16.882 4.10896C16.882 4.31035 16.8137 4.47833 16.6772 4.61292C16.5408 4.74764 16.3725 4.815 16.1722 4.815H4.25552C4.05525 4.815 3.88691 4.74646 3.75052 4.60937C3.61399 4.47229 3.54573 4.30306 3.54573 4.10167C3.54573 3.90028 3.61399 3.73146 3.75052 3.59521C3.88691 3.45882 4.05525 3.39062 4.25552 3.39062ZM4.35969 16.7969C4.15941 16.7969 3.99108 16.7287 3.85469 16.5923C3.71816 16.4559 3.6499 16.2876 3.6499 16.0873V11.6927H3.15406C2.93115 11.6927 2.75184 11.608 2.61615 11.4385C2.48045 11.2692 2.43677 11.0758 2.48511 10.8581L3.42177 6.62979C3.45288 6.46035 3.534 6.32389 3.66511 6.22042C3.79636 6.11681 3.94483 6.065 4.11052 6.065H16.3014C16.4637 6.065 16.6105 6.11681 16.7418 6.22042C16.8729 6.32389 16.954 6.46035 16.9851 6.62979L17.9268 10.8581C17.9718 11.0758 17.9264 11.2692 17.7907 11.4385C17.655 11.608 17.4757 11.6927 17.2528 11.6927H16.757V16.0873C16.757 16.2876 16.6884 16.4559 16.5511 16.5923C16.4141 16.7287 16.2448 16.7969 16.0434 16.7969C15.8422 16.7969 15.6742 16.7287 15.5395 16.5923C15.4048 16.4559 15.3374 16.2876 15.3374 16.0873V11.6927H11.7778V16.0873C11.7778 16.2876 11.7095 16.4559 11.573 16.5923C11.4366 16.7287 11.2683 16.7969 11.068 16.7969H4.35969ZM5.06948 15.3775H10.3582V11.6927H5.06948V15.3775Z" fill="#C8C9CE"/>
</g>
</svg>
