<svg width="20" height="20" viewBox="0 0 20 20" fill="none" xmlns="http://www.w3.org/2000/svg">
<mask id="mask0_4287_36" style="mask-type:alpha" maskUnits="userSpaceOnUse" x="0" y="0" width="20" height="20">
<rect width="20" height="20" fill="white"/>
</mask>
<g mask="url(#mask0_4287_36)">
<path d="M4.99961 10.0401C5.38058 9.08373 5.8362 8.16525 6.36648 7.2847C6.89662 6.40428 7.4944 5.57081 8.15981 4.78428L7.05169 4.55511C6.73738 4.49289 6.43002 4.50845 6.12961 4.60178C5.82919 4.69511 5.56676 4.85393 5.34231 5.07824L2.76231 7.65845C2.52731 7.89331 2.43829 8.17567 2.49523 8.50553C2.55218 8.83539 2.73613 9.06588 3.04711 9.19699L4.99961 10.0401ZM17.5386 1.70595C16.0563 1.6597 14.6462 1.94942 13.3081 2.57511C11.9702 3.20067 10.7771 4.03761 9.72877 5.08595C9.04211 5.77247 8.43787 6.51379 7.91606 7.30991C7.39412 8.10602 6.93738 8.94456 6.54586 9.82553C6.46308 10.0293 6.42419 10.2382 6.42919 10.4524C6.43419 10.6664 6.5144 10.8512 6.66981 11.0068L9.26398 13.6009C9.41954 13.7564 9.60433 13.8366 9.81836 13.8416C10.0325 13.8466 10.2415 13.8061 10.4452 13.7201C11.323 13.3251 12.1607 12.8675 12.9584 12.3472C13.7561 11.8271 14.4983 11.2237 15.1848 10.537C16.2331 9.48866 17.0701 8.29636 17.6956 6.96011C18.3213 5.62373 18.6111 4.21442 18.5648 2.7322C18.5648 2.60456 18.5345 2.47852 18.474 2.35407C18.4134 2.22963 18.3365 2.12081 18.2431 2.02761C18.15 1.93428 18.0411 1.85734 17.9167 1.79678C17.7922 1.73622 17.6662 1.70595 17.5386 1.70595ZM12.2369 8.02886C11.9241 7.71609 11.7677 7.33289 11.7677 6.87928C11.7677 6.42553 11.9241 6.04227 12.2369 5.72949C12.5497 5.41671 12.9337 5.26032 13.389 5.26032C13.8444 5.26032 14.2285 5.41671 14.5413 5.72949C14.854 6.04227 15.0104 6.42553 15.0104 6.87928C15.0104 7.33289 14.854 7.71609 14.5413 8.02886C14.2285 8.34164 13.8444 8.49803 13.389 8.49803C12.9337 8.49803 12.5497 8.34164 12.2369 8.02886ZM10.2306 15.2662L11.0688 17.2237C11.1999 17.538 11.4304 17.7262 11.7602 17.7884C12.0901 17.8507 12.3741 17.7626 12.6123 17.5243L15.1925 14.9443C15.4168 14.7198 15.5756 14.4548 15.669 14.1491C15.7623 13.8434 15.7779 13.5334 15.7156 13.2191L15.5023 12.1109C14.7052 12.7764 13.8691 13.3733 12.994 13.9018C12.1188 14.4304 11.1977 14.8852 10.2306 15.2662ZM3.16086 13.3849C3.68016 12.8656 4.30697 12.6033 5.04127 12.598C5.77558 12.5928 6.40238 12.8498 6.92169 13.3691C7.44099 13.8884 7.70065 14.5152 7.70065 15.2495C7.70065 15.9838 7.44099 16.6106 6.92169 17.1299C6.22183 17.8298 5.39044 18.2472 4.42752 18.3822C3.46474 18.5172 2.49843 18.6439 1.52856 18.7622C1.6469 17.7923 1.7762 16.8259 1.91648 15.863C2.05676 14.9003 2.47155 14.0742 3.16086 13.3849Z" fill="#C8C9CE"/>
</g>
</svg>
