<svg width="20" height="20" viewBox="0 0 20 20" fill="none" xmlns="http://www.w3.org/2000/svg">
<path d="M4.16667 15.8333C5.08714 15.8333 5.83333 15.0871 5.83333 14.1667C5.83333 13.2462 5.08714 12.5 4.16667 12.5C3.24619 12.5 2.5 13.2462 2.5 14.1667C2.5 15.0871 3.24619 15.8333 4.16667 15.8333Z" fill="currentColor"/>
<path d="M2.5 2.5V5C9.40417 5 15 10.5958 15 17.5H17.5C17.5 9.21583 10.7842 2.5 2.5 2.5Z" fill="currentColor"/>
<path d="M2.5 7.5V10C6.64167 10 10 13.3583 10 17.5H12.5C12.5 11.9767 8.02333 7.5 2.5 7.5Z" fill="currentColor"/>
</svg>

