<svg width="20" height="20" viewBox="0 0 20 20" fill="none" xmlns="http://www.w3.org/2000/svg">
<mask id="mask0_8001_4608" style="mask-type:alpha" maskUnits="userSpaceOnUse" x="0" y="0" width="20" height="20">
<rect width="20" height="20" fill="#D9D9D9"/>
</mask>
<g mask="url(#mask0_8001_4608)">
<path d="M10.7423 9.71819V6.26256C10.7423 6.06645 10.6782 5.90409 10.5498 5.77548C10.4215 5.64701 10.2594 5.58277 10.0636 5.58277C9.86774 5.58277 9.70531 5.64701 9.57628 5.77548C9.44725 5.90409 9.38274 6.06645 9.38274 6.26256V9.99027C9.38274 10.0836 9.39829 10.1697 9.42941 10.2486C9.46052 10.3276 9.50718 10.4056 9.56941 10.4826L12.5096 13.5269C12.6488 13.6758 12.8185 13.7468 13.0188 13.7399C13.2192 13.7329 13.3885 13.6619 13.5267 13.5269C13.665 13.3921 13.7342 13.226 13.7342 13.0288C13.7342 12.8316 13.665 12.6639 13.5267 12.5257L10.7423 9.71819ZM10.0007 18.4582C8.84149 18.4582 7.74767 18.2363 6.7192 17.7926C5.69073 17.349 4.79267 16.7433 4.02503 15.9757C3.25725 15.2082 2.65149 14.3103 2.20774 13.2819C1.76399 12.2537 1.54211 11.1601 1.54211 10.0009C1.54211 8.84173 1.76434 7.7477 2.20878 6.71881C2.65323 5.69006 3.25878 4.79235 4.02545 4.02569C4.79211 3.25902 5.68968 2.65263 6.71816 2.20652C7.74663 1.76041 8.84059 1.53735 10 1.53735C11.1595 1.53735 12.2534 1.76041 13.2819 2.20652C14.3104 2.65263 15.2079 3.25902 15.9746 4.02569C16.7413 4.79235 17.3477 5.68992 17.7938 6.71839C18.2399 7.74687 18.4629 8.84083 18.4629 10.0003C18.4629 11.1597 18.2399 12.2537 17.7938 13.2821C17.3477 14.3106 16.7413 15.2082 15.9746 15.9749C15.2079 16.7415 14.3104 17.3471 13.2821 17.7915C12.2538 18.236 11.16 18.4582 10.0007 18.4582ZM9.99753 17.0388C11.9303 17.0388 13.587 16.3501 14.9677 14.9728C16.3483 13.5955 17.0386 11.9389 17.0386 10.0028C17.0386 8.06666 16.3485 6.40909 14.9684 5.03006C13.5882 3.65117 11.9321 2.96173 10 2.96173C8.06559 2.96173 6.40885 3.65103 5.02982 5.02964C3.65093 6.40812 2.96149 8.06499 2.96149 10.0003C2.96149 11.938 3.65093 13.5955 5.02982 14.9728C6.40871 16.3501 8.06461 17.0388 9.99753 17.0388Z" fill="#808085"/>
</g>
</svg>
