<svg width="20" height="20" viewBox="0 0 20 20" fill="none" xmlns="http://www.w3.org/2000/svg">
<mask id="mask0_4217_6650" style="mask-type:alpha" maskUnits="userSpaceOnUse" x="0" y="0" width="20" height="20">
<rect width="20" height="20" fill="white"/>
</mask>
<g mask="url(#mask0_4217_6650)">
<path d="M17.9117 13.4741V8.29392L10.6682 12.2025C10.447 12.3268 10.2174 12.3854 9.97919 12.3785C9.741 12.3716 9.51301 12.3059 9.29524 12.1816L1.86815 8.11642C1.74385 8.04031 1.65239 7.94947 1.59378 7.84392C1.53516 7.73836 1.50586 7.6235 1.50586 7.49934C1.50586 7.37531 1.53516 7.26072 1.59378 7.15558C1.65239 7.05031 1.74385 6.95961 1.86815 6.8835L9.29524 2.82329C9.40065 2.76107 9.51121 2.71357 9.6269 2.68079C9.74246 2.64815 9.85989 2.63184 9.97919 2.63184C10.0985 2.63184 10.2159 2.64815 10.3315 2.68079C10.4472 2.71357 10.5594 2.76107 10.6682 2.82329L18.8982 7.28746C19.014 7.34774 19.1059 7.43538 19.174 7.55038C19.2422 7.66552 19.2763 7.79031 19.2763 7.92475V13.4791C19.2763 13.6729 19.2102 13.8346 19.0782 13.9643C18.9461 14.0941 18.7843 14.1589 18.5929 14.1589C18.3981 14.1589 18.2359 14.0932 18.1063 13.9618C17.9766 13.8304 17.9117 13.6679 17.9117 13.4741ZM9.29524 17.1766L4.62315 14.6214C4.39885 14.4936 4.22016 14.3175 4.08711 14.0931C3.95419 13.8685 3.88773 13.6267 3.88773 13.3677V9.89725L9.29524 12.8614C9.50815 12.9857 9.73496 13.0479 9.97565 13.0479C10.2162 13.0479 10.447 12.9857 10.6682 12.8614L16.0757 9.89725V13.3677C16.0757 13.6267 16.0083 13.8685 15.8736 14.0931C15.739 14.3175 15.5612 14.4936 15.3402 14.6214L10.6682 17.1766C10.5594 17.2388 10.4472 17.2855 10.3315 17.3166C10.2159 17.3476 10.0985 17.3631 9.97919 17.3631C9.85989 17.3631 9.74246 17.3476 9.6269 17.3166C9.51121 17.2855 9.40065 17.2388 9.29524 17.1766Z" fill="#C8C9CE"/>
</g>
</svg>
