<svg width="20" height="20" viewBox="0 0 20 20" fill="none" xmlns="http://www.w3.org/2000/svg">
<mask id="mask0_4124_42252" style="mask-type:alpha" maskUnits="userSpaceOnUse" x="0" y="0" width="20" height="20">
<rect width="20" height="20" fill="white"/>
</mask>
<g mask="url(#mask0_4124_42252)">
<path d="M9.44875 12.2915H10.5512C10.6383 12.2915 10.7165 12.2534 10.7856 12.1773C10.8548 12.1012 10.8782 12.0196 10.8558 11.9325L10.4135 9.41482C10.6817 9.30912 10.8962 9.14579 11.0569 8.92482C11.2177 8.70385 11.2981 8.45586 11.2981 8.18086C11.2981 7.82336 11.1709 7.51767 10.9165 7.26378C10.662 7.00989 10.3556 6.88294 9.99729 6.88294C9.6391 6.88294 9.33368 7.00989 9.08104 7.26378C8.82826 7.51767 8.70188 7.82336 8.70188 8.18086C8.70188 8.45586 8.78229 8.70385 8.94312 8.92482C9.10382 9.14579 9.31826 9.30912 9.58646 9.41482L9.14417 11.9325C9.12181 12.0196 9.14521 12.1012 9.21438 12.1773C9.28354 12.2534 9.36167 12.2915 9.44875 12.2915ZM10 17.809C9.92611 17.809 9.85618 17.802 9.79021 17.7882C9.72424 17.7743 9.65951 17.7534 9.59604 17.7257C7.79382 17.0836 6.36889 15.9656 5.32125 14.3717C4.27375 12.7777 3.75 11.0344 3.75 9.1419V5.28503C3.75 5.02697 3.8225 4.79385 3.9675 4.58565C4.11264 4.3776 4.30028 4.22829 4.53042 4.13773L9.57854 2.26107C9.7259 2.20551 9.86639 2.17773 10 2.17773C10.1336 2.17773 10.2741 2.20551 10.4215 2.26107L15.4696 4.13773C15.6997 4.22829 15.8874 4.3776 16.0325 4.58565C16.1775 4.79385 16.25 5.02697 16.25 5.28503V9.1419C16.25 11.0344 15.7263 12.7777 14.6788 14.3717C13.6311 15.9656 12.2062 17.0836 10.404 17.7257C10.3405 17.7534 10.2758 17.7743 10.2098 17.7882C10.1438 17.802 10.0739 17.809 10 17.809Z" fill="#C8C9CE"/>
</g>
</svg>
