<svg width="20" height="20" viewBox="0 0 20 20" fill="none" xmlns="http://www.w3.org/2000/svg">
<mask id="mask0_5569_2713" style="mask-type:alpha" maskUnits="userSpaceOnUse" x="0" y="0" width="20" height="20">
<rect width="20" height="20" fill="white"/>
</mask>
<g mask="url(#mask0_5569_2713)">
<path d="M10.0006 12.668C9.90731 12.668 9.81932 12.6507 9.73668 12.6163C9.65391 12.5818 9.57446 12.5266 9.49835 12.4505L5.37835 8.33046C5.23668 8.18879 5.16932 8.01955 5.17627 7.82275C5.18321 7.62594 5.25752 7.45671 5.39918 7.31504C5.54085 7.17337 5.71009 7.10254 5.90689 7.10254C6.1037 7.10254 6.27293 7.17337 6.4146 7.31504L10.0006 10.9219L13.6075 7.31504C13.7492 7.17337 13.9149 7.10601 14.1048 7.11296C14.2947 7.1199 14.4604 7.19421 14.6021 7.33587C14.7438 7.47754 14.8146 7.64678 14.8146 7.84358C14.8146 8.04039 14.7438 8.20962 14.6021 8.35129L10.5029 12.4505C10.4268 12.5266 10.3474 12.5818 10.2646 12.6163C10.182 12.6507 10.094 12.668 10.0006 12.668Z" fill="#7E5FDD"/>
</g>
</svg>
