<svg width="20" height="20" viewBox="0 0 20 20" fill="none" xmlns="http://www.w3.org/2000/svg">
<mask id="mask0_4217_6913" style="mask-type:alpha" maskUnits="userSpaceOnUse" x="0" y="0" width="20" height="20">
<rect width="20" height="20" fill="white"/>
</mask>
<g mask="url(#mask0_4217_6913)">
<path d="M8.20978 13.3332H11.7902C11.9906 13.3332 12.159 13.265 12.2954 13.1287C12.4318 12.9923 12.5 12.8239 12.5 12.6235V9.79158C12.5 9.61449 12.4401 9.46602 12.3204 9.34616C12.2005 9.22644 12.0521 9.16658 11.875 9.16658H11.6667V8.33324C11.6667 7.87491 11.5035 7.48255 11.1771 7.15616C10.8507 6.82977 10.4583 6.66658 9.99999 6.66658C9.54166 6.66658 9.1493 6.82977 8.82291 7.15616C8.49652 7.48255 8.33332 7.87491 8.33332 8.33324V9.16658H8.12499C7.94791 9.16658 7.7995 9.22644 7.67978 9.34616C7.55992 9.46602 7.49999 9.61449 7.49999 9.79158V12.6235C7.49999 12.8239 7.56818 12.9923 7.70457 13.1287C7.84096 13.265 8.00937 13.3332 8.20978 13.3332ZM8.95832 9.16658V8.33324C8.95832 8.05546 9.06249 7.82282 9.27082 7.63532C9.47916 7.44782 9.72221 7.35407 9.99999 7.35407C10.2778 7.35407 10.5208 7.44789 10.7292 7.63553C10.9375 7.82331 11.0417 8.05588 11.0417 8.33324V9.16658H8.95832ZM9.99999 18.3695C9.9161 18.3695 9.83756 18.3617 9.76436 18.3462C9.69103 18.3306 9.61936 18.3073 9.54936 18.2762C7.60214 17.6234 6.0586 16.4383 4.91874 14.7209C3.77874 13.0036 3.20874 11.1305 3.20874 9.10178V5.05553C3.20874 4.75164 3.29339 4.47692 3.4627 4.23137C3.632 3.98581 3.85471 3.80991 4.13082 3.70366L9.5027 1.69783C9.67214 1.6356 9.83791 1.60449 9.99999 1.60449C10.1621 1.60449 10.3278 1.6356 10.4973 1.69783L15.8692 3.70366C16.1453 3.80991 16.3688 3.98581 16.5398 4.23137C16.7108 4.47692 16.7962 4.75164 16.7962 5.05553V9.10178C16.7962 11.1305 16.2254 13.0036 15.0837 14.7209C13.9422 16.4383 12.3978 17.6234 10.4506 18.2762C10.3806 18.3073 10.3089 18.3306 10.2356 18.3462C10.1624 18.3617 10.0839 18.3695 9.99999 18.3695Z" fill="#C8C9CE"/>
</g>
</svg>
