<svg width="17" height="16" viewBox="0 0 17 16" fill="none" xmlns="http://www.w3.org/2000/svg">
<path d="M3.09502 8.85177L8.59677 14.3533C8.76677 14.5236 8.85269 14.7236 8.85452 14.9533C8.85652 15.1829 8.77261 15.3836 8.60277 15.5553C8.43277 15.7274 8.23219 15.8125 8.00102 15.8105C7.76986 15.8085 7.56861 15.7226 7.39727 15.5528L0.447273 8.60277C0.356273 8.51077 0.290107 8.41511 0.248773 8.31577C0.207273 8.21627 0.186523 8.11077 0.186523 7.99927C0.186523 7.88777 0.207273 7.78252 0.248773 7.68352C0.290107 7.58436 0.356273 7.48894 0.447273 7.39727L7.40327 0.441274C7.57911 0.27144 7.78052 0.186523 8.00752 0.186523C8.23435 0.186523 8.43277 0.27144 8.60277 0.441274C8.77261 0.615274 8.85752 0.816023 8.85752 1.04352C8.85752 1.27119 8.77261 1.47027 8.60277 1.64077L3.09502 7.14827L15.2978 7.14827C15.5419 7.14827 15.7459 7.22911 15.9098 7.39077C16.0736 7.55244 16.1555 7.75552 16.1555 8.00002C16.1555 8.24452 16.0736 8.44761 15.9098 8.60927C15.7459 8.77094 15.5419 8.85177 15.2978 8.85177L3.09502 8.85177Z" fill="white"/>
</svg>
