<svg viewBox="0 0 240 33" fill="none" xmlns="http://www.w3.org/2000/svg">
<path d="M135.877 32.9412H129.885V0H135.877V32.9412ZM179.574 6.03502H149.611C147.408 6.03502 145.616 7.8405 145.616 10.0584V22.8828C145.616 25.1007 147.408 26.9062 149.611 26.9062H179.574C181.776 26.9062 183.569 25.1007 183.569 22.8828V10.0584C183.569 7.8405 181.776 6.03502 179.574 6.03502ZM179.574 0C185.09 0 189.562 4.50364 189.562 10.0584V22.8828C189.562 28.4375 185.09 32.9412 179.574 32.9412H149.611C144.095 32.9412 139.623 28.4375 139.623 22.8828V10.0584C139.623 4.50364 144.095 0 149.611 0H179.574ZM44.0324 0L28.7261 25.928C28.3665 26.5378 27.7136 26.9112 27.0094 26.9112H23.9881C23.284 26.9112 22.6311 26.5378 22.2715 25.928L6.96522 0H0L18.2864 30.9735C19.0067 32.1931 20.3114 32.9412 21.7209 32.9412H29.2779C30.6874 32.9412 31.9921 32.1931 32.7125 30.9735L50.9988 0H44.0336H44.0324ZM119.148 13.4531H88.5267C86.8724 13.4531 85.5303 12.1015 85.5303 10.4356V9.05254C85.5303 7.38662 86.8724 6.03502 88.5267 6.03502H124.935V0H86.5291C82.6676 0 79.5377 3.15204 79.5377 7.04086V12.4472C79.5377 16.3361 82.6676 19.4881 86.5291 19.4881H117.15C118.805 19.4881 120.147 20.8397 120.147 22.5056V23.8886C120.147 25.5546 118.805 26.9062 117.15 26.9062H83.3205L68.5973 1.96767C67.8769 0.748091 66.5723 0 65.1627 0H57.6057C56.1962 0 54.8916 0.748091 54.1712 1.96767L35.8861 32.9412H42.8513L58.1563 7.0132C58.5171 6.40341 59.1688 6.03 59.8742 6.03H62.8943C63.5997 6.03 64.2514 6.40341 64.6122 7.0132L79.3379 31.958C79.6975 32.5678 80.3504 32.9412 81.0545 32.9412H119.148C123.009 32.9412 126.139 29.7891 126.139 25.9003V20.4939C126.139 16.6051 123.009 13.4531 119.148 13.4531ZM234.007 0V26.9879H232.207C231.076 26.9879 230.053 26.5189 229.326 25.7645L208.519 3.25137C206.691 1.25352 204.055 0 201.125 0H193.335V32.9412H199.327V5.9533H201.128C202.259 5.9533 203.281 6.42227 204.009 7.17665L224.816 29.6898C226.644 31.6877 229.279 32.9412 232.21 32.9412H240V0H234.007Z" fill="white"/>
</svg>
