<svg width="20" height="20" viewBox="0 0 20 20" fill="none" xmlns="http://www.w3.org/2000/svg">
<path d="M10 0C4.47715 0 0 4.47715 0 10C0 15.5228 4.47715 20 10 20C15.5228 20 20 15.5228 20 10C20 4.47715 15.5228 0 10 0ZM14.5547 14.4375C14.3594 14.7578 13.9453 14.8594 13.625 14.6641C11.2891 13.2422 8.34375 12.8984 4.89062 13.6797C4.52344 13.7656 4.16406 13.5391 4.07812 13.1719C3.99219 12.8047 4.21094 12.4453 4.58594 12.3594C8.35156 11.5078 11.6094 11.9062 14.2266 13.5C14.5469 13.6953 14.6484 14.1172 14.5547 14.4375ZM15.7656 11.7109C15.5234 12.1094 15.0078 12.2344 14.6094 11.9922C11.9297 10.3672 7.82812 9.89844 4.69531 10.8516C4.25 10.9844 3.78125 10.7344 3.64844 10.2891C3.51562 9.84375 3.76562 9.375 4.21094 9.24219C7.78125 8.15625 12.2891 8.67969 15.3672 10.5391C15.7656 10.7812 15.8906 11.3125 15.7656 11.7109ZM15.8672 8.89062C12.6484 7.00781 7.34375 6.82812 4.28125 7.76562C3.75 7.92188 3.19531 7.625 3.03906 7.09375C2.88281 6.5625 3.17969 6.00781 3.71094 5.85156C7.21094 4.78125 13.0625 4.99219 16.7422 7.14844C17.2188 7.42969 17.375 8.03906 17.0938 8.51562C16.8125 8.99219 16.2031 9.14844 15.8672 8.89062Z" fill="currentColor"/>
</svg>

