<svg width="20" height="20" viewBox="0 0 20 20" fill="none" xmlns="http://www.w3.org/2000/svg">
<mask id="mask0_4217_6227" style="mask-type:alpha" maskUnits="userSpaceOnUse" x="0" y="0" width="20" height="20">
<rect width="20" height="20" fill="white"/>
</mask>
<g mask="url(#mask0_4217_6227)">
<path d="M10.01 16.6319C9.90611 16.6319 9.80833 16.6207 9.71667 16.5982C9.625 16.5757 9.54118 16.535 9.46521 16.4761C8.85743 16.0766 8.21306 15.7623 7.53208 15.5332C6.85125 15.304 6.14611 15.1894 5.41667 15.1894C4.84 15.1894 4.27458 15.2658 3.72042 15.4186C3.16611 15.5714 2.63535 15.785 2.12813 16.0594C1.79993 16.2287 1.48299 16.221 1.17729 16.0361C0.871597 15.8511 0.71875 15.5789 0.71875 15.2196V5.18797C0.71875 4.99866 0.763611 4.82047 0.853333 4.65339C0.942917 4.4863 1.07743 4.36137 1.25688 4.27859C1.8991 3.94859 2.56986 3.70193 3.26917 3.53859C3.96861 3.37526 4.68111 3.29359 5.40667 3.29359C6.21556 3.29359 7.00708 3.39776 7.78125 3.60609C8.55542 3.81443 9.295 4.13026 10 4.55359V15.2196C10.7083 14.7613 11.4514 14.4143 12.2292 14.1786C13.0069 13.9428 13.7917 13.8248 14.5833 13.8248C15.0833 13.8248 15.6285 13.8751 16.2188 13.9757C16.809 14.0762 17.375 14.2793 17.9167 14.5848V3.91443C18.0622 3.97332 18.2035 4.03137 18.3404 4.08859C18.4774 4.14582 18.6133 4.20915 18.7481 4.27859C18.917 4.37193 19.0481 4.4995 19.1413 4.6613C19.2346 4.82311 19.2813 4.99866 19.2813 5.18797V15.2794C19.2813 15.6255 19.1284 15.8852 18.8227 16.0584C18.517 16.2317 18.2001 16.2321 17.8719 16.0594C17.3647 15.785 16.8339 15.5714 16.2796 15.4186C15.7254 15.2658 15.16 15.1894 14.5833 15.1894C13.8572 15.1894 13.1562 15.304 12.4802 15.5332C11.8044 15.7623 11.1642 16.0766 10.5598 16.4761C10.4837 16.535 10.3998 16.5757 10.3081 16.5982C10.2166 16.6207 10.1172 16.6319 10.01 16.6319ZM11.8506 12.7492C11.7262 12.8457 11.5949 12.8656 11.4569 12.8088C11.319 12.7519 11.25 12.6439 11.25 12.4851V5.94839C11.25 5.90005 11.2578 5.85602 11.2733 5.8163C11.2889 5.77672 11.3122 5.74137 11.3433 5.71026L16.0452 0.988177C16.1558 0.87776 16.287 0.851025 16.439 0.907969C16.5908 0.964775 16.6667 1.07262 16.6667 1.23151V8.38318C16.6667 8.43151 16.6554 8.47901 16.6329 8.52568C16.6104 8.57234 16.5836 8.61123 16.5525 8.64234L11.8506 12.7492Z" fill="#C8C9CE"/>
</g>
</svg>
