<svg width="20" height="20" viewBox="0 0 20 20" fill="none" xmlns="http://www.w3.org/2000/svg">
<mask id="mask0_4217_1266" style="mask-type:alpha" maskUnits="userSpaceOnUse" x="0" y="0" width="20" height="20">
<rect width="20" height="20" fill="#D9D9D9"/>
</mask>
<g mask="url(#mask0_4217_1266)">
<path d="M4.22749 17.7291C3.70277 17.7291 3.25562 17.5443 2.88603 17.1747C2.51645 16.8052 2.33166 16.358 2.33166 15.8333V9.26307C2.00888 8.94487 1.76652 8.54828 1.60458 8.07328C1.44263 7.59841 1.44499 7.08682 1.61166 6.53848L2.48666 3.70515C2.60777 3.31084 2.82562 2.98314 3.1402 2.72202C3.45478 2.46105 3.81784 2.33057 4.22937 2.33057H15.8127C16.2242 2.33057 16.5846 2.45675 16.894 2.70911C17.2033 2.96161 17.4237 3.29362 17.5554 3.70515L18.4304 6.53848C18.5971 7.08015 18.5986 7.58064 18.435 8.03994C18.2714 8.49939 18.0299 8.89876 17.7104 9.23807V15.8333C17.7104 16.358 17.5256 16.8052 17.156 17.1747C16.7865 17.5443 16.3393 17.7291 15.8146 17.7291H4.22749ZM11.8544 8.27348C12.2095 8.27348 12.4793 8.15251 12.6637 7.91057C12.8482 7.66848 12.9196 7.39605 12.8779 7.09327L12.4246 4.2264H10.9142V7.24994C10.9142 7.52828 11.0055 7.76848 11.1883 7.97057C11.3712 8.17251 11.5933 8.27348 11.8544 8.27348ZM8.10437 8.27348C8.40395 8.27348 8.64944 8.17251 8.84083 7.97057C9.03222 7.76848 9.12791 7.52828 9.12791 7.24994V4.2264H7.61749L7.16416 7.09327C7.11527 7.40327 7.18319 7.67751 7.36791 7.91598C7.55277 8.15432 7.79826 8.27348 8.10437 8.27348ZM4.39603 8.27348C4.6327 8.27348 4.83902 8.18654 5.01499 8.01265C5.19083 7.83876 5.29791 7.62286 5.33624 7.36494L5.78458 4.2264H4.27416L3.45583 6.97327C3.37583 7.24105 3.41597 7.52473 3.57624 7.82432C3.73666 8.12376 4.00992 8.27348 4.39603 8.27348ZM15.646 8.27348C16.0321 8.27348 16.308 8.12376 16.4737 7.82432C16.6393 7.52473 16.6768 7.24105 16.5862 6.97327L15.7262 4.2264H14.2575L14.7058 7.36494C14.7442 7.62286 14.8512 7.83876 15.0271 8.01265C15.203 8.18654 15.4094 8.27348 15.646 8.27348Z" fill="#C8C9CE"/>
</g>
</svg>
