<svg width="20" height="20" viewBox="0 0 20 20" fill="none" xmlns="http://www.w3.org/2000/svg">
<path d="M6.66663 10.0001C6.66663 10.2211 6.75442 10.4331 6.9107 10.5893C7.06698 10.7456 7.27895 10.8334 7.49996 10.8334H12.5C12.721 10.8334 12.9329 10.7456 13.0892 10.5893C13.2455 10.4331 13.3333 10.2211 13.3333 10.0001C13.3333 9.77907 13.2455 9.56711 13.0892 9.41083C12.9329 9.25455 12.721 9.16675 12.5 9.16675H7.49996C7.27895 9.16675 7.06698 9.25455 6.9107 9.41083C6.75442 9.56711 6.66663 9.77907 6.66663 10.0001Z" fill="#C8C9CE"/>
<path d="M7.49995 13.3334H6.00828C5.15192 13.3562 4.31781 13.0589 3.66901 12.4995C3.02021 11.9401 2.60336 11.1588 2.49995 10.3084C2.45694 9.84542 2.51125 9.37859 2.6594 8.93788C2.80755 8.49718 3.04625 8.09233 3.36018 7.74937C3.6741 7.40641 4.0563 7.13291 4.48222 6.94646C4.90813 6.76 5.36835 6.66471 5.83328 6.6667H7.49995C7.72096 6.6667 7.93293 6.5789 8.08921 6.42262C8.24549 6.26634 8.33328 6.05438 8.33328 5.83337C8.33328 5.61235 8.24549 5.40039 8.08921 5.24411C7.93293 5.08783 7.72096 5.00003 7.49995 5.00003H6.00828C4.77305 4.98353 3.57342 5.41374 2.6302 6.2115C1.68699 7.00925 1.06366 8.12086 0.874951 9.3417C0.781156 10.0479 0.839339 10.7659 1.0456 11.4478C1.25187 12.1296 1.60145 12.7595 2.07094 13.2953C2.54043 13.8311 3.11898 14.2603 3.76785 14.5543C4.41672 14.8483 5.12092 15.0003 5.83328 15H7.49995C7.72096 15 7.93293 14.9122 8.08921 14.756C8.24549 14.5997 8.33328 14.3877 8.33328 14.1667C8.33328 13.9457 8.24549 13.7337 8.08921 13.5774C7.93293 13.4212 7.72096 13.3334 7.49995 13.3334ZM19.1666 9.3667C18.9803 8.13047 18.3492 7.00473 17.3918 6.20076C16.4344 5.39678 15.2165 4.96983 13.9666 5.00003H12.7083C12.0333 5.00003 11.6666 5.37503 11.6666 5.83337C11.6666 6.05438 11.7544 6.26634 11.9107 6.42262C12.067 6.5789 12.2789 6.6667 12.5 6.6667H13.9916C14.848 6.64384 15.6821 6.94118 16.3309 7.5006C16.9797 8.06002 17.3965 8.84129 17.5 9.6917C17.543 10.1546 17.4886 10.6215 17.3405 11.0622C17.1924 11.5029 16.9536 11.9077 16.6397 12.2507C16.3258 12.5937 15.9436 12.8672 15.5177 13.0536C15.0918 13.2401 14.6316 13.3354 14.1666 13.3334H12.5C12.2789 13.3334 12.067 13.4212 11.9107 13.5774C11.7544 13.7337 11.6666 13.9457 11.6666 14.1667C11.6666 14.3877 11.7544 14.5997 11.9107 14.756C12.067 14.9122 12.2789 15 12.5 15H14.1666C14.8801 15.0058 15.5865 14.8588 16.2385 14.5689C16.8904 14.279 17.4728 13.8529 17.9464 13.3193C18.42 12.7856 18.774 12.1568 18.9844 11.4751C19.1949 10.7933 19.257 10.0744 19.1666 9.3667V9.3667Z" fill="#C8C9CE"/>
</svg>
