<svg width="38" height="38" viewBox="0 0 38 38" fill="none" xmlns="http://www.w3.org/2000/svg">
<path d="M0 4C0 1.79086 1.79086 0 4 0H34C36.2091 0 38 1.79086 38 4V34C38 36.2091 36.2091 38 34 38H4C1.79086 38 0 36.2091 0 34V4Z" fill="#201435"/>

<g mask="url(#mask0_4124_42231)">
<path d="M18.547 26.6144C18.3523 26.6144 18.1901 26.5498 18.0604 26.4207C17.9308 26.2915 17.866 26.1295 17.866 25.9346V22.4921C17.866 22.2973 17.932 22.1353 18.0641 22.0061C18.1962 21.8769 18.3596 21.8123 18.5543 21.8123C18.7491 21.8123 18.9104 21.8769 19.0385 22.0061C19.1666 22.1353 19.2306 22.2973 19.2306 22.4921V23.5415H25.9047C26.0997 23.5415 26.2618 23.6064 26.391 23.7363C26.5202 23.8662 26.5847 24.0291 26.5847 24.225C26.5847 24.4198 26.5202 24.5819 26.391 24.7115C26.2618 24.8412 26.0997 24.9061 25.9047 24.9061H19.2306V25.9346C19.2306 26.1295 19.1656 26.2915 19.0358 26.4207C18.9059 26.5498 18.743 26.6144 18.547 26.6144ZM12.0952 24.9061C11.9002 24.9061 11.7381 24.84 11.6089 24.708C11.4797 24.5759 11.4152 24.4125 11.4152 24.2178C11.4152 24.0229 11.4797 23.8615 11.6089 23.7336C11.7381 23.6055 11.9002 23.5415 12.0952 23.5415H15.9958C16.1908 23.5415 16.3529 23.6064 16.482 23.7363C16.6111 23.8662 16.6756 24.0291 16.6756 24.225C16.6756 24.4198 16.6111 24.5819 16.482 24.7115C16.3529 24.8412 16.1908 24.9061 15.9958 24.9061H12.0952ZM15.9922 21.388C15.7975 21.388 15.6353 21.3223 15.5056 21.1909C15.3759 21.0595 15.311 20.8969 15.311 20.7032V19.6796H12.0952C11.9035 19.6796 11.7422 19.6139 11.6114 19.4823C11.4806 19.3509 11.4152 19.1889 11.4152 18.9961C11.4152 18.8034 11.4806 18.6426 11.6114 18.5136C11.7422 18.3846 11.9035 18.32 12.0952 18.32H15.311V17.2498C15.311 17.0548 15.3771 16.8928 15.5093 16.7638C15.6414 16.6346 15.8048 16.57 15.9995 16.57C16.1943 16.57 16.3556 16.6346 16.4837 16.7638C16.6116 16.8928 16.6756 17.0548 16.6756 17.2498V20.7082C16.6756 20.9032 16.6107 21.0652 16.481 21.1942C16.3511 21.3234 16.1882 21.388 15.9922 21.388ZM18.5458 19.6796C18.3541 19.6796 18.1929 19.6139 18.062 19.4823C17.9313 19.3509 17.866 19.1889 17.866 18.9961C17.866 18.8034 17.9313 18.6426 18.062 18.5136C18.1929 18.3846 18.3541 18.32 18.5458 18.32H25.9047C26.0964 18.32 26.2577 18.3858 26.3885 18.5173C26.5193 18.6487 26.5847 18.8108 26.5847 19.0036C26.5847 19.1962 26.5193 19.3571 26.3885 19.4861C26.2577 19.6151 26.0964 19.6796 25.9047 19.6796H18.5458ZM22.0054 16.1873C21.8106 16.1873 21.6484 16.1228 21.5187 15.9936C21.3891 15.8644 21.3243 15.7024 21.3243 15.5075V12.065C21.3243 11.8702 21.3904 11.7082 21.5225 11.579C21.6545 11.4498 21.8179 11.3853 22.0127 11.3853C22.2074 11.3853 22.3688 11.4498 22.4968 11.579C22.6249 11.7082 22.6889 11.8702 22.6889 12.065V13.0936H25.9047C26.0997 13.0936 26.2618 13.1585 26.391 13.2884C26.5202 13.4182 26.5847 13.5812 26.5847 13.7771C26.5847 13.9719 26.5202 14.134 26.391 14.2636C26.2618 14.3933 26.0997 14.4582 25.9047 14.4582H22.6889V15.5075C22.6889 15.7024 22.624 15.8644 22.4941 15.9936C22.3643 16.1228 22.2013 16.1873 22.0054 16.1873ZM12.0952 14.4582C11.9002 14.4582 11.7381 14.3921 11.6089 14.26C11.4797 14.128 11.4152 13.9645 11.4152 13.7696C11.4152 13.5749 11.4797 13.4136 11.6089 13.2857C11.7381 13.1576 11.9002 13.0936 12.0952 13.0936H19.4541C19.6491 13.0936 19.8112 13.1585 19.9404 13.2884C20.0694 13.4182 20.1339 13.5812 20.1339 13.7771C20.1339 13.9719 20.0694 14.134 19.9404 14.2636C19.8112 14.3933 19.6491 14.4582 19.4541 14.4582H12.0952Z" fill="#B29FEB"/>
</g>
</svg>
