<svg width="20" height="20" viewBox="0 0 20 20" fill="none" xmlns="http://www.w3.org/2000/svg">
<mask id="mask0_4217_6055" style="mask-type:alpha" maskUnits="userSpaceOnUse" x="0" y="0" width="20" height="20">
<rect width="20" height="20" fill="white"/>
</mask>
<g mask="url(#mask0_4217_6055)">
<path d="M9.5471 17.6144C9.35238 17.6144 9.19015 17.5498 9.06043 17.4207C8.93085 17.2915 8.86606 17.1295 8.86606 16.9346V13.4921C8.86606 13.2973 8.9321 13.1353 9.06418 13.0061C9.19626 12.8769 9.35967 12.8123 9.55439 12.8123C9.74911 12.8123 9.9105 12.8769 10.0386 13.0061C10.1666 13.1353 10.2306 13.2973 10.2306 13.4921V14.5415H16.9048C17.0998 14.5415 17.2619 14.6064 17.3911 14.7363C17.5202 14.8662 17.5848 15.0291 17.5848 15.225C17.5848 15.4198 17.5202 15.5819 17.3911 15.7115C17.2619 15.8412 17.0998 15.9061 16.9048 15.9061H10.2306V16.9346C10.2306 17.1295 10.1657 17.2915 10.0358 17.4207C9.90599 17.5498 9.74307 17.6144 9.5471 17.6144ZM3.09522 15.9061C2.90022 15.9061 2.73814 15.84 2.60897 15.708C2.47981 15.5759 2.41522 15.4125 2.41522 15.2178C2.41522 15.0229 2.47981 14.8615 2.60897 14.7336C2.73814 14.6055 2.90022 14.5415 3.09522 14.5415H6.99585C7.19085 14.5415 7.35293 14.6064 7.4821 14.7363C7.61113 14.8662 7.67564 15.0291 7.67564 15.225C7.67564 15.4198 7.61113 15.5819 7.4821 15.7115C7.35293 15.8412 7.19085 15.9061 6.99585 15.9061H3.09522ZM6.99231 12.388C6.79758 12.388 6.63536 12.3223 6.50564 12.1909C6.37592 12.0595 6.31106 11.8969 6.31106 11.7032V10.6796H3.09522C2.90356 10.6796 2.74231 10.6139 2.61147 10.4823C2.48064 10.3509 2.41522 10.1889 2.41522 9.99609C2.41522 9.80345 2.48064 9.64261 2.61147 9.51359C2.74231 9.38456 2.90356 9.32005 3.09522 9.32005H6.31106V8.24984C6.31106 8.05484 6.37717 7.89282 6.50939 7.7638C6.64147 7.63463 6.80488 7.57005 6.9996 7.57005C7.19432 7.57005 7.35571 7.63463 7.48376 7.7638C7.61168 7.89282 7.67564 8.05484 7.67564 8.24984V11.7082C7.67564 11.9032 7.61078 12.0652 7.48106 12.1942C7.35119 12.3234 7.18828 12.388 6.99231 12.388ZM9.54585 10.6796C9.35418 10.6796 9.19293 10.6139 9.0621 10.4823C8.9314 10.3509 8.86606 10.1889 8.86606 9.99609C8.86606 9.80345 8.9314 9.64261 9.0621 9.51359C9.19293 9.38456 9.35418 9.32005 9.54585 9.32005H16.9048C17.0965 9.32005 17.2577 9.38581 17.3886 9.51734C17.5194 9.64873 17.5848 9.81081 17.5848 10.0036C17.5848 10.1962 17.5194 10.3571 17.3886 10.4861C17.2577 10.6151 17.0965 10.6796 16.9048 10.6796H9.54585ZM13.0054 7.18734C12.8107 7.18734 12.6485 7.12275 12.5188 6.99359C12.3892 6.86442 12.3244 6.70241 12.3244 6.50755V3.06505C12.3244 2.87018 12.3904 2.70817 12.5225 2.579C12.6546 2.44984 12.818 2.38525 13.0127 2.38525C13.2074 2.38525 13.3688 2.44984 13.4969 2.579C13.6249 2.70817 13.689 2.87018 13.689 3.06505V4.09359H16.9048C17.0998 4.09359 17.2619 4.15852 17.3911 4.28838C17.5202 4.41824 17.5848 4.58116 17.5848 4.77713C17.5848 4.97185 17.5202 5.134 17.3911 5.26359C17.2619 5.39331 17.0998 5.45817 16.9048 5.45817H13.689V6.50755C13.689 6.70241 13.624 6.86442 13.4942 6.99359C13.3643 7.12275 13.2014 7.18734 13.0054 7.18734ZM3.09522 5.45817C2.90022 5.45817 2.73814 5.39213 2.60897 5.26005C2.47981 5.12796 2.41522 4.96449 2.41522 4.76963C2.41522 4.57491 2.47981 4.41359 2.60897 4.28567C2.73814 4.15761 2.90022 4.09359 3.09522 4.09359H10.4542C10.6492 4.09359 10.8113 4.15852 10.9404 4.28838C11.0695 4.41824 11.134 4.58116 11.134 4.77713C11.134 4.97185 11.0695 5.134 10.9404 5.26359C10.8113 5.39331 10.6492 5.45817 10.4542 5.45817H3.09522Z" fill="#C8C9CE"/>
</g>
</svg>
