<svg width="38" height="38" viewBox="0 0 38 38" fill="none" xmlns="http://www.w3.org/2000/svg">
<path d="M0 4C0 1.79086 1.79086 0 4 0H34C36.2091 0 38 1.79086 38 4V34C38 36.2091 36.2091 38 34 38H4C1.79086 38 0 36.2091 0 34V4Z" fill="#201435"/>
<mask id="mask0_4124_42756" style="mask-type:alpha" maskUnits="userSpaceOnUse" x="9" y="9" width="20" height="20">
<rect x="9" y="9" width="20" height="20" fill="#201435"/>
</mask>
<g mask="url(#mask0_4124_42756)">
<path d="M12.2854 25.25C11.9586 25.25 11.6766 25.1314 11.4393 24.8942C11.2021 24.6569 11.0835 24.3749 11.0835 24.0481V13.9519C11.0835 13.6251 11.2021 13.3431 11.4393 13.1058C11.6766 12.8686 11.9586 12.75 12.2854 12.75H25.715C26.0418 12.75 26.3238 12.8686 26.561 13.1058C26.7982 13.3431 26.9168 13.6251 26.9168 13.9519V24.0481C26.9168 24.3749 26.7982 24.6569 26.561 24.8942C26.3238 25.1314 26.0418 25.25 25.715 25.25H12.2854ZM19.4729 24.3044H25.715C25.779 24.3044 25.8377 24.2777 25.8912 24.2244C25.9445 24.1709 25.9712 24.1122 25.9712 24.0481V13.9519C25.9712 13.8878 25.9445 13.8291 25.8912 13.7756C25.8377 13.7223 25.779 13.6956 25.715 13.6956H19.4729V24.3044ZM13.6477 22.1715H16.9089C17.0428 22.1715 17.155 22.1258 17.2456 22.0344C17.3363 21.943 17.3816 21.8297 17.3816 21.6946C17.3816 21.5596 17.3363 21.4477 17.2456 21.359C17.155 21.2703 17.0428 21.226 16.9089 21.226H13.6477C13.5136 21.226 13.4013 21.2717 13.3108 21.3631C13.2202 21.4545 13.175 21.5677 13.175 21.7027C13.175 21.8378 13.2202 21.9498 13.3108 22.0385C13.4013 22.1272 13.5136 22.1715 13.6477 22.1715ZM13.6477 19.5321H16.9089C17.0428 19.5321 17.155 19.4864 17.2456 19.395C17.3363 19.3036 17.3816 19.1903 17.3816 19.0552C17.3816 18.9201 17.3363 18.8082 17.2456 18.7196C17.155 18.6308 17.0428 18.5865 16.9089 18.5865H13.6477C13.5136 18.5865 13.4013 18.6322 13.3108 18.7235C13.2202 18.8149 13.175 18.9282 13.175 19.0633C13.175 19.1985 13.2202 19.3103 13.3108 19.399C13.4013 19.4877 13.5136 19.5321 13.6477 19.5321ZM13.6477 16.8927H16.9089C17.0428 16.8927 17.155 16.847 17.2456 16.7556C17.3363 16.6642 17.3816 16.551 17.3816 16.416C17.3816 16.2862 17.3363 16.1756 17.2456 16.0842C17.155 15.9928 17.0428 15.9471 16.9089 15.9471H13.6477C13.5136 15.9471 13.4013 15.9941 13.3108 16.0881C13.2202 16.182 13.175 16.2953 13.175 16.4279C13.175 16.5604 13.2202 16.671 13.3108 16.7596C13.4013 16.8483 13.5136 16.8927 13.6477 16.8927ZM21.0914 22.1715H24.3527C24.4867 22.1715 24.599 22.1258 24.6895 22.0344C24.7801 21.943 24.8254 21.8297 24.8254 21.6946C24.8254 21.5596 24.7801 21.4477 24.6895 21.359C24.599 21.2703 24.4867 21.226 24.3527 21.226H21.0914C20.9575 21.226 20.8453 21.2717 20.7547 21.3631C20.6641 21.4545 20.6187 21.5677 20.6187 21.7027C20.6187 21.8378 20.6641 21.9498 20.7547 22.0385C20.8453 22.1272 20.9575 22.1715 21.0914 22.1715ZM21.0914 19.5321H24.3527C24.4867 19.5321 24.599 19.4864 24.6895 19.395C24.7801 19.3036 24.8254 19.1903 24.8254 19.0552C24.8254 18.9201 24.7801 18.8082 24.6895 18.7196C24.599 18.6308 24.4867 18.5865 24.3527 18.5865H21.0914C20.9575 18.5865 20.8453 18.6322 20.7547 18.7235C20.6641 18.8149 20.6187 18.9282 20.6187 19.0633C20.6187 19.1985 20.6641 19.3103 20.7547 19.399C20.8453 19.4877 20.9575 19.5321 21.0914 19.5321ZM21.0914 16.8927H24.3527C24.4867 16.8927 24.599 16.847 24.6895 16.7556C24.7801 16.6642 24.8254 16.551 24.8254 16.416C24.8254 16.2862 24.7801 16.1756 24.6895 16.0842C24.599 15.9928 24.4867 15.9471 24.3527 15.9471H21.0914C20.9575 15.9471 20.8453 15.9941 20.7547 16.0881C20.6641 16.182 20.6187 16.2953 20.6187 16.4279C20.6187 16.5604 20.6641 16.671 20.7547 16.7596C20.8453 16.8483 20.9575 16.8927 21.0914 16.8927Z" fill="#B29FEB"/>
</g>
</svg>
