<svg viewBox="0 0 1604 240" fill="none" xmlns="http://www.w3.org/2000/svg">
<path d="M853.995 220H817.21V20.1069H853.995V220ZM1122.19 56.7301H938.282C924.758 56.7301 913.764 67.6911 913.764 81.1404V158.951C913.764 172.416 924.774 183.362 938.282 183.362H1122.19C1135.71 183.362 1146.71 172.401 1146.71 158.951V81.1404C1146.71 67.6758 1135.7 56.7301 1122.19 56.7301ZM1122.19 20.1069C1156.05 20.1069 1183.49 47.4331 1183.49 81.1404V158.951C1183.49 192.659 1156.05 219.985 1122.19 219.985H938.282C904.426 219.985 876.98 192.659 876.98 158.951V81.1404C876.98 47.4331 904.426 20.1069 938.282 20.1069H1122.19ZM290.265 20.1069L196.318 177.438C194.11 181.133 190.108 183.407 185.784 183.407H167.246C162.922 183.407 158.92 181.148 156.712 177.438L62.7493 20.1069H20L132.24 208.047C136.656 215.451 144.675 219.985 153.323 219.985H199.707C208.355 219.985 216.359 215.451 220.79 208.047L333.015 20.1069H290.25H290.265ZM751.308 101.75H563.367C553.217 101.75 544.983 93.5517 544.983 83.4456V75.0493C544.983 64.9432 553.217 56.7453 563.367 56.7453H786.835V20.1069H551.116C527.411 20.1069 508.198 39.2352 508.198 62.8365V95.6431C508.198 119.244 527.411 138.373 551.116 138.373H739.057C749.207 138.373 757.441 146.571 757.441 156.677V165.073C757.441 175.179 749.207 183.377 739.057 183.377H531.413L441.038 32.0449C436.622 24.6409 428.603 20.1069 419.955 20.1069H373.571C364.923 20.1069 356.919 24.6409 352.488 32.0449L240.263 219.985H283.013L376.945 62.6533C379.153 58.9589 383.155 56.6843 387.494 56.6843H406.032C410.356 56.6843 414.358 58.9437 416.581 62.6533L506.971 214.016C509.179 217.71 513.181 219.985 517.505 219.985H751.308C775.013 219.985 794.226 200.856 794.226 177.255V144.449C794.226 120.847 775.013 101.719 751.308 101.719V101.75ZM1456.29 20.1069V183.865H1445.23C1438.29 183.865 1432.02 181.026 1427.55 176.446L1299.84 39.8306C1288.62 27.7094 1272.44 20.1069 1254.46 20.1069H1206.65V220H1243.43V56.2416H1254.49C1261.43 56.2416 1267.7 59.081 1272.17 63.6608L1399.88 200.276C1411.1 212.398 1427.28 220 1445.26 220H1493.07V20.1069H1456.29Z" fill="#3D2562"/>
<path d="M1553.33 81.3333C1548.91 81.3333 1544.81 80.5708 1541.05 79.0457C1537.31 77.5206 1534.06 75.3855 1531.34 72.6658C1528.59 69.9207 1526.48 66.6926 1524.96 62.9562C1523.43 59.2198 1522.67 55.1275 1522.67 50.6794C1522.67 46.2312 1523.43 42.1644 1524.96 38.4025C1526.48 34.6661 1528.62 31.4126 1531.34 28.6929C1534.08 25.9478 1537.31 23.8381 1541.05 22.2876C1544.79 20.7625 1548.88 20 1553.33 20C1557.78 20 1561.85 20.7625 1565.62 22.2876C1569.35 23.8127 1572.61 25.9478 1575.33 28.6929C1578.08 31.438 1580.19 34.6661 1581.71 38.4025C1583.24 42.139 1584 46.2312 1584 50.6794C1584 55.1275 1583.24 59.1944 1581.71 62.9562C1580.19 66.6926 1578.05 69.9461 1575.33 72.6658C1572.61 75.3855 1569.35 77.5206 1565.62 79.0457C1561.88 80.5708 1557.78 81.3333 1553.33 81.3333ZM1553.33 76.4023C1558.29 76.4023 1562.69 75.2839 1566.51 73.0725C1570.34 70.8612 1573.35 67.811 1575.53 63.9221C1577.72 60.0331 1578.81 55.6104 1578.81 50.654C1578.81 45.6975 1577.72 41.3002 1575.53 37.4367C1573.35 33.5731 1570.34 30.5484 1566.51 28.3116C1562.67 26.1003 1558.29 24.9819 1553.33 24.9819C1548.37 24.9819 1543.98 26.1003 1540.11 28.3116C1536.25 30.523 1533.22 33.5731 1531.03 37.4367C1528.85 41.3002 1527.75 45.6975 1527.75 50.654C1527.75 55.6104 1528.85 60.0331 1531.03 63.9221C1533.22 67.811 1536.25 70.8612 1540.11 73.0725C1543.98 75.2839 1548.37 76.4023 1553.33 76.4023ZM1540.62 68.3702V32.7852H1557.22C1560.91 32.7852 1563.68 33.7765 1565.51 35.7591C1567.34 37.7417 1568.29 40.3597 1568.29 43.5878C1568.29 45.9008 1567.78 47.9342 1566.78 49.6881C1565.77 51.4419 1564.27 52.7891 1562.26 53.7041L1569.79 68.3956H1562.79L1556.05 54.8225H1547.15V68.3956H1540.67L1540.62 68.3702ZM1547.1 49.2814H1556.36C1557.91 49.2814 1559.21 48.773 1560.2 47.7817C1561.22 46.765 1561.7 45.367 1561.7 43.5878C1561.7 41.8085 1561.22 40.4614 1560.28 39.5718C1559.33 38.6821 1558.01 38.2246 1556.33 38.2246H1547.08V49.2814H1547.1Z" fill="#3D2562"/>
</svg>
