<svg width="20" height="20" viewBox="0 0 20 20" fill="none" xmlns="http://www.w3.org/2000/svg">
<g clip-path="url(#clip0_4217_6257)">
<mask id="mask0_4217_6257" style="mask-type:alpha" maskUnits="userSpaceOnUse" x="0" y="0" width="20" height="20">
<rect width="20" height="20" fill="white"/>
</mask>
<g mask="url(#mask0_4217_6257)">
<path d="M5.34659 16.8955V8.68178H6.40742C6.64714 8.68178 6.89034 8.70109 7.137 8.7397C7.38367 8.77831 7.61992 8.84019 7.84576 8.92532L12.3385 10.5314C12.8367 10.7191 13.2558 11.0054 13.5958 11.3901C13.9358 11.7747 14.1058 12.2339 14.1058 12.7678C14.1058 12.8439 14.0772 12.9094 14.0201 12.9643C13.963 13.0193 13.8817 13.0468 13.776 13.0468H11.7624C11.4998 13.0468 11.2327 13.03 10.9612 12.9966C10.6898 12.963 10.4267 12.9027 10.1718 12.8157L9.0268 12.4643L8.62284 13.6255L9.55221 13.9445C9.90194 14.061 10.2531 14.1464 10.6058 14.2007C10.9584 14.2552 11.3204 14.2824 11.6918 14.2824H16.8466C17.308 14.2824 17.6822 14.4788 17.9693 14.8716C18.2565 15.2644 18.4001 15.6975 18.4001 16.1709L11.5441 18.612L5.34659 16.8955ZM0.669922 18.4001V8.68178H3.84659V18.4001H0.669922ZM13.497 9.92533L11.3385 8.01595C10.0172 6.79192 9.20985 5.88387 8.91638 5.29178C8.62291 4.6997 8.47617 4.19442 8.47617 3.77595C8.47617 2.99095 8.75214 2.34164 9.30409 1.82803C9.85603 1.31442 10.5384 1.05762 11.3512 1.05762C11.7521 1.05762 12.1347 1.13609 12.4989 1.29303C12.8629 1.45012 13.1956 1.66574 13.497 1.93991C13.7845 1.65185 14.1137 1.43276 14.4847 1.28262C14.8558 1.13262 15.2419 1.05762 15.6428 1.05762C16.4278 1.05762 17.1033 1.32484 17.6691 1.85928C18.2349 2.39373 18.5178 3.05345 18.5178 3.83845C18.5178 4.25692 18.3761 4.75873 18.0926 5.34387C17.809 5.92901 17.0066 6.8197 15.6853 8.01595L13.497 9.92533Z" fill="#C8C9CE"/>
</g>
</g>
<defs>
<clipPath id="clip0_4217_6257">
<rect width="20" height="20" fill="white"/>
</clipPath>
</defs>
</svg>
