<svg viewBox="0 0 20 20" fill="none" xmlns="http://www.w3.org/2000/svg">
<mask id="mask0_2112_364" style="mask-type:alpha" maskUnits="userSpaceOnUse" x="0" y="0" width="20" height="20">
<rect width="20" height="20" fill="white"/>
</mask>
<g mask="url(#mask0_2112_364)">
<path d="M9.99997 12.6681C9.90664 12.6681 9.81865 12.6509 9.73601 12.6165C9.65324 12.582 9.57379 12.5268 9.49768 12.4506L5.37768 8.33064C5.23601 8.18897 5.16865 8.01974 5.1756 7.82293C5.18254 7.62613 5.25685 7.45689 5.39851 7.31522C5.54018 7.17356 5.70942 7.10272 5.90622 7.10272C6.10303 7.10272 6.27226 7.17356 6.41393 7.31522L9.99997 10.9221L13.6068 7.31522C13.7485 7.17356 13.9143 7.10619 14.1041 7.11314C14.294 7.12008 14.4598 7.19439 14.6014 7.33606C14.7431 7.47772 14.8139 7.64696 14.8139 7.84376C14.8139 8.04057 14.7431 8.20981 14.6014 8.35147L10.5023 12.4506C10.4262 12.5268 10.3467 12.582 10.2639 12.6165C10.1813 12.6509 10.0933 12.6681 9.99997 12.6681Z" fill="white"/>
</g>
</svg>
