<svg width="38" height="38" viewBox="0 0 38 38" fill="none" xmlns="http://www.w3.org/2000/svg">
<path d="M0 4C0 1.79086 1.79086 0 4 0H34C36.2091 0 38 1.79086 38 4V34C38 36.2091 36.2091 38 34 38H4C1.79086 38 0 36.2091 0 34V4Z" fill="#201435"/>
<mask id="mask0_4124_42240" style="mask-type:alpha" maskUnits="userSpaceOnUse" x="9" y="9" width="20" height="20">
<rect x="9" y="9" width="20" height="20" fill="#201435"/>
</mask>
<g mask="url(#mask0_4124_42240)">
<path d="M21.5024 17.1356V15.2461H19.6256V22.7728H21.5024V20.8646C21.5024 20.5279 21.7839 20.2472 22.1217 20.2472H27.1391C27.4769 20.2472 27.7585 20.5279 27.7585 20.8646V25.8657C27.7585 26.2025 27.4769 26.4831 27.1391 26.4831H22.1217C21.7839 26.4831 21.5024 26.2025 21.5024 25.8657V24.0199H19C18.6559 24.0199 18.3743 23.7393 18.3743 23.3963V15.2461H16.4975V17.1356C16.4975 17.4723 16.216 17.7529 15.8782 17.7529H10.8608C10.523 17.7529 10.2415 17.4723 10.2415 17.1356V12.1344C10.2415 11.7977 10.523 11.5171 10.8608 11.5171H15.8782C16.216 11.5171 16.4975 11.7977 16.4975 12.1344V13.9989H21.5024V12.1344C21.5024 11.7977 21.7839 11.5171 22.1217 11.5171H27.1391C27.4769 11.5171 27.7585 11.7977 27.7585 12.1344V17.1356C27.7585 17.4723 27.4769 17.7529 27.1391 17.7529H22.1217C21.7839 17.7529 21.5024 17.4723 21.5024 17.1356Z" fill="#B29FEB"/>
</g>
</svg>
