<svg viewBox="0 0 20 20" fill="none" xmlns="http://www.w3.org/2000/svg">
<mask id="mask0_4177_4241" style="mask-type:alpha" maskUnits="userSpaceOnUse" x="0" y="0" width="20" height="20">
<rect width="20" height="20" fill="#D9D9D9"/>
</mask>
<g mask="url(#mask0_4177_4241)">
<path fill-rule="evenodd" clip-rule="evenodd" d="M3.21579 14.6705C3.9709 15.4213 4.88513 15.7967 5.9585 15.7967H14.8797C15.7326 15.7967 16.4653 15.4905 17.0777 14.878C17.6901 14.2657 17.9963 13.5331 17.9963 12.6802C17.9963 11.7877 17.7 11.0456 17.1076 10.454C16.5151 9.86224 15.7859 9.56547 14.9201 9.56369V9.13506C14.8974 7.76915 14.4205 6.59958 13.4894 5.62635C12.5584 4.65312 11.4205 4.1665 10.0755 4.1665C8.90915 4.1665 7.87978 4.53406 6.98739 5.26916C6.09489 6.00426 5.52385 6.95356 5.2743 8.11706C4.34333 8.26565 3.57876 8.70184 2.98058 9.42563C2.3824 10.1494 2.08331 10.9842 2.08331 11.9301C2.08331 13.0063 2.46081 13.9198 3.21579 14.6705ZM8.55607 12.0991C8.65279 12.18 8.7675 12.2204 8.90019 12.2204H11.1365C11.267 12.2204 11.3811 12.18 11.479 12.0991C11.5768 12.0183 11.6257 11.9224 11.6257 11.8115V10.4094C11.6257 10.3004 11.5716 10.205 11.4633 10.1232C11.355 10.0414 11.2228 10.0005 11.0666 10.0005V9.47477C11.0666 9.23378 10.9636 9.02749 10.7575 8.8559C10.5513 8.6843 10.3052 8.59851 10.0189 8.59851C9.73052 8.59851 9.48359 8.6843 9.27813 8.8559C9.07276 9.02749 8.97007 9.23378 8.97007 9.47477V10.0005C8.81166 10.0005 8.67888 10.0414 8.57172 10.1232C8.46457 10.205 8.41099 10.3004 8.41099 10.4094V11.8115C8.41099 11.9224 8.45935 12.0183 8.55607 12.0991ZM10.6473 10.0005H9.38938V9.47477C9.38938 9.32576 9.44995 9.20087 9.57109 9.10008C9.69222 8.99937 9.84117 8.94901 10.0179 8.94901C10.1946 8.94901 10.3437 8.99964 10.4652 9.1009C10.5866 9.20215 10.6473 9.32709 10.6473 9.4757V10.0005Z" fill="#C8C9CE"/>
</g>
</svg>
