<svg width="33" height="32" viewBox="0 0 33 32" fill="none" xmlns="http://www.w3.org/2000/svg">
<path fill-rule="evenodd" clip-rule="evenodd" d="M20.1 11.5H17.7C17.2582 11.5 16.9 11.8731 16.9 12.3333V14.8333H20.1C20.191 14.8312 20.2773 14.8753 20.3314 14.9516C20.3855 15.0278 20.4006 15.1267 20.372 15.2167L19.78 17.05C19.7254 17.2183 19.5745 17.332 19.404 17.3333H16.9V23.5833C16.9 23.8135 16.7209 24 16.5 24H14.5C14.2791 24 14.1 23.8135 14.1 23.5833V17.3333H12.9C12.6791 17.3333 12.5 17.1468 12.5 16.9167V15.25C12.5 15.0199 12.6791 14.8333 12.9 14.8333H14.1V12.3333C14.1 10.4924 15.5327 9 17.3 9H20.1C20.3209 9 20.5 9.18655 20.5 9.41667V11.0833C20.5 11.3135 20.3209 11.5 20.1 11.5Z" fill="white"/>
</svg>
