<svg width="32" height="32" viewBox="0 0 32 32" fill="none" xmlns="http://www.w3.org/2000/svg">
<circle cx="16" cy="16" r="16" fill="white"/>
<path fill-rule="evenodd" clip-rule="evenodd" d="M20 7H12C9.23858 7 7 9.23858 7 12V20C7 22.7614 9.23858 25 12 25H20C22.7614 25 25 22.7614 25 20V12C25 9.23858 22.7614 7 20 7ZM23.25 20C23.2445 21.7926 21.7926 23.2445 20 23.25H12C10.2074 23.2445 8.75549 21.7926 8.75 20V12C8.75549 10.2074 10.2074 8.75549 12 8.75H20C21.7926 8.75549 23.2445 10.2074 23.25 12V20ZM21.75 11.25C21.75 11.8023 21.3023 12.25 20.75 12.25C20.1977 12.25 19.75 11.8023 19.75 11.25C19.75 10.6977 20.1977 10.25 20.75 10.25C21.3023 10.25 21.75 10.6977 21.75 11.25ZM16 11.5C13.5147 11.5 11.5 13.5147 11.5 16C11.5 18.4853 13.5147 20.5 16 20.5C18.4853 20.5 20.5 18.4853 20.5 16C20.5027 14.8057 20.0294 13.6596 19.1849 12.8151C18.3404 11.9706 17.1943 11.4973 16 11.5ZM16 18.75C14.4812 18.75 13.25 17.5188 13.25 16C13.25 14.4812 14.4812 13.25 16 13.25C17.5188 13.25 18.75 14.4812 18.75 16C18.75 17.5188 17.5188 18.75 16 18.75Z" fill="#010000"/>
</svg>
