<svg width="33" height="32" viewBox="0 0 33 32" fill="none" xmlns="http://www.w3.org/2000/svg">
<path fill-rule="evenodd" clip-rule="evenodd" d="M12.7964 14.3529V22.5882C12.7964 22.8156 12.6121 23 12.3847 23H10.3258C10.0984 23 9.91406 22.8156 9.91406 22.5882V14.3529C9.91406 14.1255 10.0984 13.9412 10.3258 13.9412H12.3847C12.6121 13.9412 12.7964 14.1255 12.7964 14.3529ZM23.9104 17.573C23.9388 15.79 22.7224 14.2275 20.9869 13.8177C19.8238 13.5673 18.6115 13.8957 17.7339 14.6989V14.353C17.7339 14.1256 17.5496 13.9412 17.3222 13.9412H15.2633C15.0359 13.9412 14.8516 14.1256 14.8516 14.353V22.5883C14.8516 22.8157 15.0359 23.0001 15.2633 23.0001H17.3222C17.5496 23.0001 17.7339 22.8157 17.7339 22.5883V17.9436C17.7136 17.1165 18.29 16.3943 19.101 16.2306C19.5839 16.1473 20.0788 16.2833 20.4513 16.6016C20.8238 16.92 21.0352 17.3877 21.028 17.8777V22.5883C21.028 22.8157 21.2124 23.0001 21.4398 23.0001H23.4986C23.726 23.0001 23.9104 22.8157 23.9104 22.5883V17.573ZM11.1471 9C10.2374 9 9.5 9.73741 9.5 10.6471C9.5 11.5567 10.2374 12.2941 11.1471 12.2941C12.0567 12.2941 12.7941 11.5567 12.7941 10.6471C12.7941 10.2102 12.6206 9.7913 12.3117 9.48241C12.0028 9.17353 11.5839 9 11.1471 9Z" fill="white"/>
</svg>
