<svg width="256" height="34" viewBox="0 0 256 34" fill="none" xmlns="http://www.w3.org/2000/svg">
<path d="M135.669 33.3304H129.685V0.669922H135.669V33.3304ZM179.297 6.65383H149.38C147.181 6.65383 145.391 8.44412 145.391 10.6431V23.3572C145.391 25.5562 147.181 27.3465 149.38 27.3465H179.297C181.496 27.3465 183.287 25.5562 183.287 23.3572V10.6431C183.287 8.44412 181.496 6.65383 179.297 6.65383ZM179.297 0.669922C184.804 0.669922 189.27 5.13453 189.27 10.6431V23.3572C189.27 28.8636 184.806 33.3304 179.297 33.3304H149.38C143.874 33.3304 139.407 28.8658 139.407 23.3572V10.6431C139.407 5.13453 143.874 0.669922 149.38 0.669922H179.297ZM43.9642 0.669922L28.6823 26.3758C28.3225 26.98 27.6717 27.351 26.9676 27.351H23.9512C23.2471 27.351 22.5962 26.98 22.2364 26.3758L6.95457 0.669922H0L18.2582 31.378C18.9779 32.5863 20.2795 33.3282 21.6878 33.3282H29.2332C30.6414 33.3282 31.943 32.5863 32.6627 31.378L50.921 0.669922H43.9642ZM118.965 14.0082H88.3904C86.7378 14.0082 85.3984 12.6688 85.3984 11.0163V9.64578C85.3984 7.99321 86.7378 6.65383 88.3904 6.65383H124.742V0.669922H86.3957C82.5397 0.669922 79.4145 3.79515 79.4145 7.65115V13.0109C79.4145 16.8669 82.5397 19.9921 86.3957 19.9921H116.971C118.623 19.9921 119.962 21.3315 119.962 22.9841V24.3546C119.962 26.0071 118.623 27.3465 116.971 27.3465H83.1927L68.4906 2.62013C67.7732 1.4118 66.4694 0.669922 65.0633 0.669922H57.5179C56.1097 0.669922 54.8058 1.4118 54.0884 2.62013L35.8324 33.3282H42.7869L58.0688 7.62227C58.4286 7.01811 59.0794 6.64717 59.7835 6.64717H62.7999C63.5041 6.64717 64.1549 7.01811 64.5147 7.62227L79.2168 32.3531C79.5766 32.9573 80.2274 33.3282 80.9316 33.3282H118.965C122.821 33.3282 125.946 30.203 125.946 26.347V20.9872C125.946 17.1312 122.821 14.006 118.965 14.006V14.0082ZM233.646 0.669922V27.4265H231.849C230.72 27.4265 229.699 26.9622 228.972 26.2137L208.197 3.89288C206.372 1.91157 203.742 0.669922 200.816 0.669922H193.038V33.3304H199.022V6.57164H200.818C201.947 6.57164 202.969 7.03587 203.695 7.78442L224.47 30.1052C226.296 32.0865 228.926 33.3282 231.851 33.3282H239.629V0.669922H233.646Z" fill="white"/>
<path d="M250.284 12.1011C249.458 12.1011 248.695 11.9605 248 11.6749C247.301 11.3893 246.7 10.993 246.188 10.4815C245.677 9.97003 245.281 9.36906 244.995 8.67006C244.709 7.97106 244.569 7.21239 244.569 6.38553C244.569 5.55866 244.709 4.79573 244.995 4.10099C245.281 3.40199 245.677 2.80102 246.188 2.28956C246.7 1.77809 247.301 1.38171 248 1.09614C248.699 0.810574 249.458 0.669922 250.284 0.669922C251.111 0.669922 251.874 0.810574 252.569 1.09614C253.268 1.38171 253.869 1.77809 254.38 2.28956C254.892 2.80102 255.288 3.40199 255.574 4.10099C255.859 4.79999 256 5.55866 256 6.38553C256 7.21239 255.859 7.97533 255.574 8.67006C255.288 9.36906 254.892 9.97003 254.38 10.4815C253.869 10.993 253.268 11.3893 252.569 11.6749C251.87 11.9605 251.111 12.1011 250.284 12.1011ZM250.284 11.1848C251.209 11.1848 252.028 10.9802 252.739 10.5667C253.451 10.1533 254.014 9.58643 254.423 8.86186C254.832 8.13729 255.037 7.31468 255.037 6.38979C255.037 5.46489 254.832 4.64655 254.423 3.92624C254.014 3.20593 253.455 2.63906 252.739 2.22562C252.028 1.81219 251.209 1.6076 250.284 1.6076C249.36 1.6076 248.541 1.81645 247.821 2.22562C247.101 2.63906 246.538 3.20593 246.129 3.92624C245.72 4.64655 245.515 5.46489 245.515 6.38979C245.515 7.31468 245.72 8.13729 246.129 8.86186C246.538 9.58643 247.101 10.1533 247.821 10.5667C248.541 10.9802 249.36 11.1848 250.284 11.1848ZM247.915 9.68447V3.05249H251.005C251.691 3.05249 252.207 3.23576 252.552 3.60657C252.897 3.97739 253.068 4.46328 253.068 5.06425C253.068 5.49473 252.974 5.87406 252.786 6.19799C252.599 6.52618 252.317 6.77339 251.942 6.94814L253.345 9.68447H252.04L250.783 7.15698H249.125V9.68447H247.919H247.915ZM249.125 6.12553H250.847C251.137 6.12553 251.376 6.03176 251.563 5.84423C251.751 5.65669 251.844 5.3967 251.844 5.06425C251.844 4.73179 251.755 4.48032 251.58 4.3141C251.401 4.14787 251.158 4.06263 250.847 4.06263H249.125V6.12127V6.12553Z" fill="white"/>
</svg>
