<svg width="33" height="32" viewBox="0 0 33 32" fill="none" xmlns="http://www.w3.org/2000/svg">
<path fill-rule="evenodd" clip-rule="evenodd" d="M24.4795 11.7391C24.1183 12.225 23.6817 12.6489 23.1865 12.9943C23.1865 13.1212 23.1865 13.2482 23.1865 13.3822C23.1904 15.6872 22.2774 17.8973 20.652 19.5173C19.0267 21.1372 16.825 22.0313 14.5405 21.9992C13.2198 22.0036 11.916 21.6995 10.7312 21.1107C10.6673 21.0825 10.6261 21.0188 10.6264 20.9485V20.8709C10.6264 20.7697 10.7077 20.6876 10.8081 20.6876C12.1063 20.6444 13.3582 20.1905 14.3867 19.3901C13.2116 19.3662 12.1544 18.6643 11.6678 17.5849C11.6432 17.5259 11.6509 17.4583 11.688 17.4065C11.7251 17.3546 11.7863 17.326 11.8495 17.331C12.2067 17.3672 12.5674 17.3337 12.9119 17.2323C11.6147 16.9608 10.6401 15.8748 10.5006 14.5457C10.4956 14.4819 10.5239 14.4201 10.5753 14.3827C10.6267 14.3452 10.6937 14.3375 10.7522 14.3623C11.1003 14.5172 11.4761 14.5988 11.8565 14.6021C10.7199 13.8498 10.2289 12.4189 10.6613 11.1186C10.7059 10.9923 10.8132 10.8989 10.9436 10.8729C11.074 10.8469 11.2084 10.892 11.2974 10.9917C12.8312 12.6378 14.9387 13.6188 17.1755 13.7277C17.1182 13.4971 17.09 13.2602 17.0916 13.0225C17.1126 11.7763 17.8773 10.666 19.0277 10.2117C20.1782 9.75729 21.4867 10.0487 22.3407 10.9494C22.9229 10.8375 23.4857 10.6404 24.0112 10.3641C24.0497 10.3398 24.0985 10.3398 24.137 10.3641C24.1611 10.4029 24.1611 10.4522 24.137 10.491C23.8825 11.0788 23.4524 11.5719 22.9069 11.9013C23.3846 11.8455 23.854 11.7318 24.3048 11.5629C24.3427 11.5368 24.3926 11.5368 24.4306 11.5629C24.4624 11.5775 24.4862 11.6056 24.4956 11.6395C24.505 11.6735 24.4991 11.7099 24.4795 11.7391Z" fill="white"/>
</svg>
