<svg width="170" height="23" viewBox="0 0 170 23" fill="none" xmlns="http://www.w3.org/2000/svg">
<path d="M23.9275 21.0811C23.5274 21.7474 23.0472 22.2538 22.4871 22.5469C21.9269 22.8401 21.18 23 20.2464 23H16.1651C15.6049 23 15.1514 22.9733 14.778 22.8934C14.4045 22.8134 14.1111 22.7068 13.8443 22.5469C13.5776 22.387 13.3642 22.1738 13.1775 21.9339C12.9907 21.6941 12.804 21.4009 12.5906 21.0811L0 0H5.12161L15.4715 17.6165C15.6316 17.9096 15.7916 18.1228 15.925 18.3094C16.0584 18.4693 16.1917 18.6025 16.3518 18.7092C16.5118 18.8158 16.6719 18.8424 16.8586 18.8691C17.0453 18.8957 17.3121 18.9224 17.6055 18.9224H18.8326C19.126 18.9224 19.3928 18.9224 19.5795 18.8691C19.7662 18.8424 19.9263 18.7891 20.0863 18.7092C20.2197 18.6292 20.3531 18.4959 20.4864 18.336C20.6198 18.1761 20.7532 17.9363 20.9399 17.6698L31.4765 0H36.5448L23.9542 21.0811H23.9275ZM97.2572 23H92.9625V0H97.2572V23ZM170 23H165.252C164.452 23 163.705 22.92 163.038 22.7868C162.371 22.6535 161.731 22.4403 161.171 22.1738C160.584 21.9073 160.05 21.5608 159.543 21.1611C159.037 20.7613 158.53 20.2816 158.05 19.7219L146.046 6.12978C145.646 5.67671 145.299 5.30359 145.005 5.03708C144.712 4.77057 144.419 4.55736 144.152 4.4241C143.858 4.29085 143.538 4.18424 143.192 4.13094C142.845 4.07764 142.391 4.05098 141.858 4.05098H141.324V22.9733H137.163V0H141.885C142.658 0 143.378 0.0533024 144.019 0.186559C144.659 0.319815 145.272 0.506373 145.806 0.746234C146.366 0.986095 146.873 1.33256 147.38 1.73233C147.86 2.1321 148.34 2.61182 148.82 3.14484L160.984 16.8436C161.437 17.3499 161.784 17.7231 162.078 18.0162C162.371 18.3094 162.664 18.4959 162.931 18.6292C163.225 18.7625 163.545 18.8424 163.891 18.8691C164.238 18.8957 164.692 18.9224 165.252 18.9224H165.812V0H170V23ZM83.893 9.38123H64.2335C62.5796 9.38123 61.7527 8.82155 61.7527 7.7022V5.78331C61.7527 4.66396 62.5796 4.07764 64.2335 4.07764H89.8415V0H64.2335C59.7254 0 57.4847 1.78563 57.4847 5.35689V8.66164C57.4847 11.8598 59.7254 13.4589 64.2335 13.4589H83.893C85.5202 13.4589 86.3471 14.0452 86.3471 15.2178V17.19C86.3471 18.336 85.5202 18.9224 83.893 18.9224H59.9388L49.7756 1.97219C49.3755 1.30591 48.8953 0.799536 48.3352 0.479722C47.775 0.159907 47.0281 0 46.0945 0H41.7198C41.1596 0 40.7061 0.0533024 40.3327 0.133256C39.9592 0.21321 39.6658 0.346466 39.399 0.506373C39.1323 0.66628 38.9189 0.87949 38.7322 1.11935C38.5454 1.35921 38.3587 1.65238 38.1453 1.97219L25.5547 22.9733H30.4896L40.9729 5.35689C41.1329 5.06373 41.293 4.85052 41.4263 4.66396C41.5597 4.50406 41.6931 4.3708 41.8265 4.26419C41.9598 4.18424 42.1466 4.13094 42.3333 4.10429C42.52 4.07764 42.7868 4.05098 43.1069 4.05098H44.734C45.0275 4.05098 45.2942 4.05098 45.4809 4.10429C45.6677 4.13094 45.8277 4.18424 45.9878 4.26419C46.1211 4.34415 46.2812 4.4774 46.4146 4.66396C46.5479 4.82387 46.708 5.06373 46.868 5.35689L56.7645 21.8806C57.1113 22.5203 57.8048 22.9733 58.6051 22.9733H83.893C88.3744 22.9733 90.5884 21.1877 90.5884 17.5898V14.6582C90.5884 11.1136 88.3477 9.32793 83.893 9.32793M126.12 0H108.327C102.512 0 99.6313 2.45191 99.6313 7.32908V15.6709C99.6313 20.5481 102.512 23 108.327 23H126.12C131.935 23 134.816 20.5481 134.816 15.6709V7.32908C134.816 2.45191 131.935 0 126.12 0ZM130.521 13.5655C130.521 16.7903 130.361 18.9224 126.12 18.9224H108.327C104.086 18.9224 103.926 16.7903 103.926 13.5655V9.43453C103.926 6.20973 104.086 4.07764 108.327 4.07764H126.12C130.361 4.07764 130.521 6.20973 130.521 9.43453V13.5655Z" fill="white"/>
</svg>
