<svg width="32" height="32" viewBox="0 0 32 32" fill="none" xmlns="http://www.w3.org/2000/svg">
<circle cx="16" cy="16" r="16" fill="white"/>
<path fill-rule="evenodd" clip-rule="evenodd" d="M24.0004 8.48992L22.5404 8.33992C18.172 7.88995 13.7688 7.88995 9.4004 8.33992L8.0004 8.48992C6.27191 8.68529 4.97395 10.1606 5.0004 11.8999V20.0999C4.97395 21.8392 6.27191 23.3146 8.0004 23.5099L9.4604 23.6599C13.8288 24.1099 18.232 24.1099 22.6004 23.6599L24.0004 23.5099C25.7289 23.3146 27.0268 21.8392 27.0004 20.0999V11.8999C27.0268 10.1606 25.7289 8.68529 24.0004 8.48992ZM19 16.62L15.11 19.22C14.8835 19.3444 14.6089 19.3433 14.3833 19.2173C14.1577 19.0913 14.0129 18.8581 14 18.6V13.4C14.0005 13.1228 14.1539 12.8685 14.3988 12.7387C14.6438 12.6089 14.9403 12.6248 15.17 12.78L19.06 15.38C19.2696 15.5166 19.396 15.7498 19.396 16C19.396 16.2502 19.2696 16.4834 19.06 16.62H19Z" fill="#010000"/>
</svg>
