<svg width="12" height="12" viewBox="0 0 12 12" fill="none" xmlns="http://www.w3.org/2000/svg">
<mask id="mask0_2323_3819" style="mask-type:alpha" maskUnits="userSpaceOnUse" x="0" y="0" width="12" height="12">
<rect width="12" height="12" />
</mask>
<g mask="url(#mask0_2323_3819)">
<path d="M8.44592 6.40087H2.35117C2.22883 6.40087 2.12729 6.36045 2.04654 6.27962C1.96571 6.19879 1.92529 6.09724 1.92529 5.97499C1.92529 5.85274 1.96571 5.7512 2.04654 5.67037C2.12729 5.58954 2.22883 5.54912 2.35117 5.54912H8.44592L6.67967 3.77987C6.59467 3.69687 6.55425 3.59791 6.55842 3.48299C6.56258 3.36808 6.60717 3.26812 6.69217 3.18312C6.77517 3.1002 6.87363 3.05924 6.98754 3.06024C7.10146 3.06116 7.20092 3.10312 7.28592 3.18612L9.77642 5.67362C9.82208 5.71929 9.85525 5.76695 9.87592 5.81662C9.8965 5.8662 9.90679 5.91899 9.90679 5.97499C9.90679 6.03099 9.8965 6.08379 9.87592 6.13337C9.85525 6.18304 9.82208 6.2307 9.77642 6.27637L7.29842 8.75137C7.21342 8.83437 7.11396 8.87633 7.00004 8.87725C6.88613 8.87825 6.78767 8.83629 6.70467 8.75137C6.61967 8.66837 6.57717 8.56733 6.57717 8.44824C6.57717 8.32916 6.61967 8.22712 6.70467 8.14212L8.44592 6.40087Z" fill="white"/>
</g>
</svg>
