<svg width="340" height="328" viewBox="0 0 340 328" fill="none" xmlns="http://www.w3.org/2000/svg">
<g filter="url(#filter0_bd_666_2719)">
<rect x="4" width="332" height="320" rx="24" fill="url(#paint0_linear_666_2719)" shape-rendering="crispEdges"/>
<rect x="4.5" y="0.5" width="331" height="319" rx="23.5" stroke="url(#paint1_linear_666_2719)" shape-rendering="crispEdges"/>
</g>
<path d="M82.4749 225.025L171.35 270.25L256.85 225.025V48.175H82.4749V225.025Z" fill="white"/>
<path d="M258.65 48.85L80.675 228.175L172.925 273.85L258.65 229.975V48.85Z" fill="#F2F3F2"/>
<path d="M76.625 107.125V228.85L79.775 230.425L168.65 275.65L171.35 277L174.05 275.65L259.775 230.425L262.925 228.85V42.325H76.625V107.125ZM82.475 225.475V48.175H257.075V225.475L171.35 270.7L82.475 225.475Z" fill="#DCDEDC"/>
<path d="M169.775 51.1C170.675 51.1 171.575 51.1 172.475 51.325L169.775 56.5C165.725 56.275 162.125 59.425 161.9 63.475C161.675 67.525 164.825 71.125 168.875 71.35H169.775C171.575 71.35 173.375 70.675 174.725 69.55L177.65 74.5C175.4 76.075 172.7 76.975 169.775 76.975C162.575 77.2 156.5 71.8 156.275 64.6C156.05 57.4 161.45 51.325 168.65 51.1H169.775ZM179 62.125L182.375 67.75L179 73.15L175.85 67.75H169.325L172.7 62.125H179ZM173.6 60.1C173.6 59.2 173.825 58.3 174.275 57.625C174.725 56.95 175.625 56.275 176.3 55.825L176.75 55.6C177.65 55.15 177.875 54.925 177.875 54.475C177.875 54.025 177.2 53.575 176.75 53.575C175.85 53.575 175.175 54.025 174.725 54.925L173.6 53.8C173.825 53.35 174.275 52.9 174.725 52.45C175.4 52 176.075 52 176.75 52C177.425 52 178.325 52.225 178.775 52.675C179.225 53.125 179.675 53.8 179.675 54.475C179.675 55.6 179 56.5 177.65 56.95L176.975 57.4C176.3 57.85 175.85 58.075 175.625 58.75H179.675V60.325L173.6 60.1ZM169.775 88.225L191.15 76.075V42.325H148.175V75.85L169.775 88.225ZM267.2 167.875H72.3501L65.1501 183.625L72.3501 199.375H267.2L274.175 183.625L267.2 167.875Z" fill="#FF492C"/>
<path d="M107.203 157.75C107.068 157.75 106.955 157.705 106.865 157.615C106.775 157.51 106.73 157.39 106.73 157.255V129.895C106.73 129.76 106.775 129.64 106.865 129.535C106.955 129.445 107.068 129.4 107.203 129.4H111.95C112.085 129.4 112.198 129.445 112.288 129.535C112.393 129.64 112.445 129.76 112.445 129.895V152.643C112.445 152.778 112.513 152.845 112.648 152.845H125.878C126.013 152.845 126.133 152.89 126.238 152.98C126.328 153.085 126.373 153.205 126.373 153.34V157.255C126.373 157.39 126.328 157.51 126.238 157.615C126.133 157.705 126.013 157.75 125.878 157.75H107.203ZM147.95 145.195C148.115 146.215 148.168 147.363 148.108 148.638C148.093 148.968 147.92 149.133 147.59 149.133H135.08C134.915 149.133 134.863 149.2 134.923 149.335C134.998 149.875 135.14 150.415 135.35 150.955C136.055 152.455 137.488 153.205 139.648 153.205C141.373 153.19 142.738 152.493 143.743 151.113C143.848 150.948 143.968 150.865 144.103 150.865C144.193 150.865 144.29 150.918 144.395 151.023L147.298 153.903C147.433 154.038 147.5 154.158 147.5 154.263C147.5 154.323 147.448 154.435 147.343 154.6C146.458 155.695 145.31 156.55 143.9 157.165C142.505 157.765 140.968 158.065 139.288 158.065C136.963 158.065 134.998 157.54 133.393 156.49C131.788 155.44 130.633 153.97 129.928 152.08C129.358 150.73 129.073 148.96 129.073 146.77C129.073 145.285 129.275 143.98 129.68 142.855C130.31 140.935 131.398 139.405 132.943 138.265C134.503 137.14 136.348 136.578 138.478 136.578C141.178 136.578 143.345 137.358 144.98 138.918C146.615 140.478 147.605 142.57 147.95 145.195ZM138.523 141.505C136.813 141.505 135.688 142.3 135.148 143.89C135.043 144.25 134.953 144.685 134.878 145.195C134.878 145.33 134.945 145.398 135.08 145.398H142.078C142.243 145.398 142.295 145.33 142.235 145.195C142.1 144.415 142.033 144.04 142.033 144.07C141.793 143.26 141.373 142.63 140.773 142.18C140.158 141.73 139.408 141.505 138.523 141.505ZM159.74 136.6C161.495 136.6 163.063 136.908 164.443 137.523C165.823 138.123 166.895 138.955 167.66 140.02C168.425 141.07 168.808 142.24 168.808 143.53V157.255C168.808 157.39 168.763 157.51 168.673 157.615C168.583 157.705 168.47 157.75 168.335 157.75H163.588C163.453 157.75 163.34 157.705 163.25 157.615C163.145 157.51 163.093 157.39 163.093 157.255V155.928C163.093 155.853 163.07 155.8 163.025 155.77C162.965 155.74 162.913 155.763 162.868 155.838C161.728 157.323 159.905 158.065 157.4 158.065C155.285 158.065 153.583 157.555 152.293 156.535C150.988 155.515 150.335 154 150.335 151.99C150.335 149.92 151.07 148.308 152.54 147.153C153.995 146.013 156.073 145.443 158.773 145.443H162.89C163.025 145.443 163.093 145.375 163.093 145.24V144.34C163.093 143.455 162.823 142.758 162.283 142.248C161.743 141.753 160.933 141.505 159.853 141.505C159.028 141.505 158.338 141.655 157.783 141.955C157.228 142.255 156.868 142.675 156.703 143.215C156.628 143.515 156.455 143.65 156.185 143.62L151.28 142.968C150.95 142.908 150.8 142.788 150.83 142.608C150.935 141.468 151.385 140.44 152.18 139.525C152.975 138.61 154.033 137.898 155.353 137.388C156.658 136.863 158.12 136.6 159.74 136.6ZM158.93 153.813C160.085 153.813 161.068 153.505 161.878 152.89C162.688 152.275 163.093 151.48 163.093 150.505V149.043C163.093 148.908 163.025 148.84 162.89 148.84H159.988C158.773 148.84 157.82 149.073 157.13 149.538C156.44 149.988 156.095 150.633 156.095 151.473C156.095 152.208 156.35 152.778 156.86 153.183C157.37 153.603 158.06 153.813 158.93 153.813ZM185.75 129.895C185.75 129.76 185.795 129.64 185.885 129.535C185.975 129.445 186.088 129.4 186.223 129.4H190.97C191.105 129.4 191.218 129.445 191.308 129.535C191.398 129.64 191.443 129.76 191.443 129.895V157.255C191.443 157.39 191.398 157.51 191.308 157.615C191.218 157.705 191.105 157.75 190.97 157.75H186.223C186.088 157.75 185.975 157.705 185.885 157.615C185.795 157.51 185.75 157.39 185.75 157.255V155.928C185.75 155.853 185.72 155.808 185.66 155.793C185.6 155.778 185.548 155.793 185.503 155.838C184.363 157.323 182.81 158.065 180.845 158.065C178.955 158.065 177.328 157.54 175.963 156.49C174.598 155.44 173.615 154 173.015 152.17C172.565 150.76 172.34 149.125 172.34 147.265C172.34 145.345 172.58 143.673 173.06 142.248C173.69 140.508 174.673 139.135 176.008 138.13C177.343 137.11 178.993 136.6 180.958 136.6C182.908 136.6 184.423 137.275 185.503 138.625C185.548 138.715 185.6 138.745 185.66 138.715C185.72 138.685 185.75 138.633 185.75 138.558V129.895ZM184.895 151.428C185.435 150.438 185.705 149.073 185.705 147.333C185.705 145.533 185.405 144.115 184.805 143.08C184.19 142.03 183.29 141.505 182.105 141.505C180.83 141.505 179.87 142.03 179.225 143.08C178.55 144.145 178.213 145.578 178.213 147.378C178.213 148.998 178.498 150.348 179.068 151.428C179.743 152.598 180.74 153.183 182.06 153.183C183.275 153.183 184.22 152.598 184.895 151.428ZM214.168 145.195C214.333 146.215 214.385 147.363 214.325 148.638C214.31 148.968 214.138 149.133 213.808 149.133H201.298C201.133 149.133 201.08 149.2 201.14 149.335C201.215 149.875 201.358 150.415 201.568 150.955C202.273 152.455 203.705 153.205 205.865 153.205C207.59 153.19 208.955 152.493 209.96 151.113C210.065 150.948 210.185 150.865 210.32 150.865C210.41 150.865 210.508 150.918 210.613 151.023L213.515 153.903C213.65 154.038 213.718 154.158 213.718 154.263C213.718 154.323 213.665 154.435 213.56 154.6C212.675 155.695 211.528 156.55 210.118 157.165C208.723 157.765 207.185 158.065 205.505 158.065C203.18 158.065 201.215 157.54 199.61 156.49C198.005 155.44 196.85 153.97 196.145 152.08C195.575 150.73 195.29 148.96 195.29 146.77C195.29 145.285 195.493 143.98 195.898 142.855C196.528 140.935 197.615 139.405 199.16 138.265C200.72 137.14 202.565 136.578 204.695 136.578C207.395 136.578 209.563 137.358 211.198 138.918C212.833 140.478 213.823 142.57 214.168 145.195ZM204.74 141.505C203.03 141.505 201.905 142.3 201.365 143.89C201.26 144.25 201.17 144.685 201.095 145.195C201.095 145.33 201.163 145.398 201.298 145.398H208.295C208.46 145.398 208.513 145.33 208.453 145.195C208.318 144.415 208.25 144.04 208.25 144.07C208.01 143.26 207.59 142.63 206.99 142.18C206.375 141.73 205.625 141.505 204.74 141.505ZM228.23 136.645C229.205 136.645 229.97 136.833 230.525 137.208C230.75 137.328 230.833 137.53 230.773 137.815L229.918 142.45C229.903 142.765 229.715 142.855 229.355 142.72C228.95 142.585 228.478 142.518 227.938 142.518C227.728 142.518 227.435 142.548 227.06 142.608C226.085 142.683 225.26 143.035 224.585 143.665C223.91 144.31 223.573 145.158 223.573 146.208V157.255C223.573 157.39 223.528 157.51 223.438 157.615C223.333 157.705 223.213 157.75 223.078 157.75H218.353C218.218 157.75 218.098 157.705 217.993 157.615C217.903 157.51 217.858 157.39 217.858 157.255V137.41C217.858 137.275 217.903 137.163 217.993 137.073C218.098 136.983 218.218 136.938 218.353 136.938H223.078C223.213 136.938 223.333 136.983 223.438 137.073C223.528 137.163 223.573 137.275 223.573 137.41V138.963C223.573 139.038 223.595 139.09 223.64 139.12C223.7 139.15 223.745 139.135 223.775 139.075C224.885 137.455 226.37 136.645 228.23 136.645Z" fill="#252530"/>
<path d="M132.785 192.58C131.615 192.58 130.595 192.393 129.725 192.018C128.855 191.643 128.18 191.117 127.7 190.442C127.235 189.767 127.002 188.973 127.002 188.058V187.495C127.002 187.42 127.032 187.352 127.092 187.292C127.137 187.247 127.197 187.225 127.272 187.225H129.275C129.35 187.225 129.417 187.247 129.477 187.292C129.522 187.352 129.545 187.42 129.545 187.495V187.923C129.545 188.613 129.852 189.182 130.467 189.632C131.082 190.097 131.922 190.33 132.987 190.33C133.902 190.33 134.592 190.135 135.057 189.745C135.522 189.355 135.755 188.853 135.755 188.238C135.755 187.818 135.627 187.458 135.372 187.158C135.117 186.873 134.757 186.61 134.292 186.37C133.812 186.13 133.1 185.83 132.155 185.47C131.09 185.08 130.227 184.713 129.567 184.368C128.907 184.023 128.36 183.55 127.925 182.95C127.475 182.365 127.25 181.63 127.25 180.745C127.25 179.425 127.73 178.383 128.69 177.618C129.65 176.853 130.932 176.47 132.537 176.47C133.662 176.47 134.66 176.665 135.53 177.055C136.385 177.445 137.052 177.992 137.532 178.697C138.012 179.387 138.252 180.19 138.252 181.105V181.488C138.252 181.563 138.222 181.63 138.162 181.69C138.117 181.735 138.057 181.757 137.982 181.757H135.957C135.882 181.757 135.822 181.735 135.777 181.69C135.717 181.63 135.687 181.563 135.687 181.488V181.24C135.687 180.535 135.402 179.943 134.832 179.463C134.247 178.968 133.445 178.72 132.425 178.72C131.6 178.72 130.962 178.893 130.512 179.238C130.047 179.583 129.815 180.07 129.815 180.7C129.815 181.15 129.935 181.518 130.175 181.803C130.415 182.088 130.775 182.342 131.255 182.567C131.735 182.807 132.477 183.108 133.482 183.468C134.547 183.873 135.402 184.24 136.047 184.57C136.677 184.9 137.225 185.357 137.69 185.942C138.14 186.542 138.365 187.285 138.365 188.17C138.365 189.52 137.862 190.592 136.857 191.387C135.867 192.182 134.51 192.58 132.785 192.58ZM146.51 192.58C145.4 192.58 144.417 192.363 143.562 191.928C142.707 191.493 142.047 190.878 141.582 190.083C141.102 189.273 140.862 188.342 140.862 187.292V176.92C140.862 176.845 140.892 176.785 140.952 176.74C140.997 176.68 141.057 176.65 141.132 176.65H143.202C143.277 176.65 143.345 176.68 143.405 176.74C143.45 176.785 143.472 176.845 143.472 176.92V187.338C143.472 188.223 143.75 188.943 144.305 189.498C144.86 190.053 145.595 190.33 146.51 190.33C147.425 190.33 148.16 190.053 148.715 189.498C149.27 188.943 149.547 188.223 149.547 187.338V176.92C149.547 176.845 149.577 176.785 149.637 176.74C149.682 176.68 149.742 176.65 149.817 176.65H151.887C151.962 176.65 152.03 176.68 152.09 176.74C152.135 176.785 152.157 176.845 152.157 176.92V187.292C152.157 188.342 151.925 189.273 151.46 190.083C150.995 190.878 150.335 191.493 149.48 191.928C148.625 192.363 147.635 192.58 146.51 192.58ZM165.455 176.83C165.53 176.71 165.635 176.65 165.77 176.65H167.84C167.915 176.65 167.982 176.68 168.042 176.74C168.087 176.785 168.11 176.845 168.11 176.92V192.13C168.11 192.205 168.087 192.265 168.042 192.31C167.982 192.37 167.915 192.4 167.84 192.4H165.77C165.695 192.4 165.627 192.37 165.567 192.31C165.522 192.265 165.5 192.205 165.5 192.13V181.398C165.5 181.353 165.477 181.323 165.432 181.308C165.402 181.293 165.38 181.307 165.365 181.352L162.552 185.673C162.477 185.793 162.372 185.852 162.237 185.852H161.202C161.067 185.852 160.962 185.793 160.887 185.673L158.052 181.375C158.037 181.33 158.007 181.315 157.962 181.33C157.932 181.345 157.917 181.375 157.917 181.42V192.13C157.917 192.205 157.895 192.265 157.85 192.31C157.79 192.37 157.722 192.4 157.647 192.4H155.577C155.502 192.4 155.442 192.37 155.397 192.31C155.337 192.265 155.307 192.205 155.307 192.13V176.92C155.307 176.845 155.337 176.785 155.397 176.74C155.442 176.68 155.502 176.65 155.577 176.65H157.647C157.782 176.65 157.887 176.71 157.962 176.83L161.63 182.387C161.66 182.417 161.69 182.433 161.72 182.433C161.75 182.433 161.772 182.417 161.787 182.387L165.455 176.83ZM181.542 176.83C181.617 176.71 181.722 176.65 181.857 176.65H183.927C184.002 176.65 184.062 176.68 184.107 176.74C184.167 176.785 184.197 176.845 184.197 176.92V192.13C184.197 192.205 184.167 192.265 184.107 192.31C184.062 192.37 184.002 192.4 183.927 192.4H181.857C181.782 192.4 181.722 192.37 181.677 192.31C181.617 192.265 181.587 192.205 181.587 192.13V181.398C181.587 181.353 181.572 181.323 181.542 181.308C181.497 181.293 181.467 181.307 181.452 181.352L178.64 185.673C178.565 185.793 178.46 185.852 178.325 185.852H177.29C177.155 185.852 177.05 185.793 176.975 185.673L174.14 181.375C174.125 181.33 174.102 181.315 174.072 181.33C174.027 181.345 174.005 181.375 174.005 181.42V192.13C174.005 192.205 173.982 192.265 173.937 192.31C173.877 192.37 173.81 192.4 173.735 192.4H171.665C171.59 192.4 171.53 192.37 171.485 192.31C171.425 192.265 171.395 192.205 171.395 192.13V176.92C171.395 176.845 171.425 176.785 171.485 176.74C171.53 176.68 171.59 176.65 171.665 176.65H173.735C173.87 176.65 173.975 176.71 174.05 176.83L177.717 182.387C177.747 182.417 177.777 182.433 177.807 182.433C177.837 182.433 177.86 182.417 177.875 182.387L181.542 176.83ZM198.147 178.63C198.147 178.705 198.125 178.765 198.08 178.81C198.02 178.87 197.952 178.9 197.877 178.9H190.205C190.13 178.9 190.092 178.937 190.092 179.012V183.22C190.092 183.295 190.13 183.333 190.205 183.333H195.357C195.432 183.333 195.5 183.355 195.56 183.4C195.605 183.46 195.627 183.527 195.627 183.602V185.313C195.627 185.388 195.605 185.455 195.56 185.515C195.5 185.56 195.432 185.583 195.357 185.583H190.205C190.13 185.583 190.092 185.62 190.092 185.695V190.037C190.092 190.112 190.13 190.15 190.205 190.15H197.877C197.952 190.15 198.02 190.18 198.08 190.24C198.125 190.285 198.147 190.345 198.147 190.42V192.13C198.147 192.205 198.125 192.265 198.08 192.31C198.02 192.37 197.952 192.4 197.877 192.4H187.752C187.677 192.4 187.617 192.37 187.572 192.31C187.512 192.265 187.482 192.205 187.482 192.13V176.92C187.482 176.845 187.512 176.785 187.572 176.74C187.617 176.68 187.677 176.65 187.752 176.65H197.877C197.952 176.65 198.02 176.68 198.08 176.74C198.125 176.785 198.147 176.845 198.147 176.92V178.63ZM209.645 192.4C209.495 192.4 209.39 192.332 209.33 192.197L206.36 185.718C206.33 185.658 206.285 185.628 206.225 185.628H203.525C203.45 185.628 203.412 185.665 203.412 185.74V192.13C203.412 192.205 203.382 192.265 203.322 192.31C203.277 192.37 203.217 192.4 203.142 192.4H201.072C200.997 192.4 200.937 192.37 200.892 192.31C200.832 192.265 200.802 192.205 200.802 192.13V176.92C200.802 176.845 200.832 176.785 200.892 176.74C200.937 176.68 200.997 176.65 201.072 176.65H207.26C208.175 176.65 208.985 176.838 209.69 177.213C210.395 177.603 210.942 178.143 211.332 178.833C211.722 179.538 211.917 180.34 211.917 181.24C211.917 182.275 211.647 183.153 211.107 183.873C210.582 184.608 209.847 185.118 208.902 185.403C208.872 185.403 208.85 185.417 208.835 185.447C208.82 185.477 208.82 185.507 208.835 185.537L212.007 192.085C212.037 192.145 212.052 192.19 212.052 192.22C212.052 192.34 211.97 192.4 211.805 192.4H209.645ZM203.525 178.9C203.45 178.9 203.412 178.937 203.412 179.012V183.49C203.412 183.565 203.45 183.602 203.525 183.602H206.9C207.62 183.602 208.197 183.385 208.632 182.95C209.082 182.53 209.307 181.967 209.307 181.262C209.307 180.557 209.082 179.988 208.632 179.553C208.197 179.118 207.62 178.9 206.9 178.9H203.525Z" fill="white"/>
<path d="M139.602 233.035C139.557 233.08 139.542 233.125 139.557 233.17C139.587 233.215 139.632 233.238 139.692 233.238H148.535C148.64 233.238 148.73 233.275 148.805 233.35C148.895 233.425 148.94 233.515 148.94 233.62V236.793C148.94 236.898 148.895 236.988 148.805 237.063C148.73 237.138 148.64 237.175 148.535 237.175H133.865C133.745 237.175 133.647 237.138 133.572 237.063C133.497 236.988 133.46 236.898 133.46 236.793V233.778C133.46 233.583 133.527 233.418 133.662 233.283C134.727 232.248 135.815 231.115 136.925 229.885C138.035 228.655 138.732 227.89 139.017 227.59C139.617 226.87 140.232 226.18 140.862 225.52C142.842 223.33 143.832 221.703 143.832 220.638C143.832 219.873 143.562 219.243 143.022 218.748C142.482 218.268 141.777 218.028 140.907 218.028C140.037 218.028 139.332 218.268 138.792 218.748C138.237 219.243 137.96 219.895 137.96 220.705V221.515C137.96 221.62 137.922 221.71 137.847 221.785C137.772 221.86 137.682 221.898 137.577 221.898H133.73C133.625 221.898 133.535 221.86 133.46 221.785C133.37 221.71 133.325 221.62 133.325 221.515V219.985C133.4 218.815 133.775 217.773 134.45 216.858C135.125 215.958 136.017 215.268 137.127 214.788C138.252 214.308 139.512 214.068 140.907 214.068C142.452 214.068 143.795 214.36 144.935 214.945C146.075 215.515 146.952 216.288 147.567 217.263C148.197 218.253 148.512 219.34 148.512 220.525C148.512 221.44 148.28 222.378 147.815 223.338C147.365 224.298 146.682 225.333 145.767 226.443C145.092 227.283 144.365 228.123 143.585 228.963C142.805 229.788 141.642 230.98 140.097 232.54L139.602 233.035ZM159.537 237.535C157.137 237.535 155.247 236.868 153.867 235.533C152.472 234.198 151.775 232.375 151.775 230.065V221.448C151.775 219.183 152.472 217.39 153.867 216.07C155.247 214.735 157.137 214.068 159.537 214.068C161.922 214.068 163.82 214.735 165.23 216.07C166.625 217.39 167.322 219.183 167.322 221.448V230.065C167.322 232.375 166.625 234.198 165.23 235.533C163.82 236.868 161.922 237.535 159.537 237.535ZM159.537 233.598C160.512 233.598 161.285 233.298 161.855 232.698C162.44 232.098 162.732 231.295 162.732 230.29V221.313C162.732 220.323 162.44 219.528 161.855 218.928C161.285 218.328 160.512 218.028 159.537 218.028C158.577 218.028 157.812 218.328 157.242 218.928C156.657 219.528 156.365 220.323 156.365 221.313V230.29C156.365 231.295 156.657 232.098 157.242 232.698C157.812 233.298 158.577 233.598 159.537 233.598ZM176.457 233.035C176.412 233.08 176.405 233.125 176.435 233.17C176.45 233.215 176.495 233.238 176.57 233.238H185.412C185.517 233.238 185.607 233.275 185.682 233.35C185.757 233.425 185.795 233.515 185.795 233.62V236.793C185.795 236.898 185.757 236.988 185.682 237.063C185.607 237.138 185.517 237.175 185.412 237.175H170.72C170.615 237.175 170.525 237.138 170.45 237.063C170.375 236.988 170.337 236.898 170.337 236.793V233.778C170.337 233.583 170.397 233.418 170.517 233.283C171.597 232.248 172.685 231.115 173.78 229.885C174.89 228.655 175.587 227.89 175.872 227.59C176.487 226.87 177.11 226.18 177.74 225.52C179.72 223.33 180.71 221.703 180.71 220.638C180.71 219.873 180.44 219.243 179.9 218.748C179.345 218.268 178.632 218.028 177.762 218.028C176.892 218.028 176.187 218.268 175.647 218.748C175.107 219.243 174.837 219.895 174.837 220.705V221.515C174.837 221.62 174.8 221.71 174.725 221.785C174.65 221.86 174.552 221.898 174.432 221.898H170.585C170.48 221.898 170.39 221.86 170.315 221.785C170.24 221.71 170.202 221.62 170.202 221.515V219.985C170.262 218.815 170.63 217.773 171.305 216.858C171.98 215.958 172.88 215.268 174.005 214.788C175.13 214.308 176.382 214.068 177.762 214.068C179.307 214.068 180.65 214.36 181.79 214.945C182.945 215.515 183.83 216.288 184.445 217.263C185.06 218.253 185.367 219.34 185.367 220.525C185.367 221.44 185.142 222.378 184.692 223.338C184.227 224.298 183.537 225.333 182.622 226.443C181.947 227.283 181.22 228.123 180.44 228.963C179.66 229.788 178.497 230.98 176.952 232.54L176.457 233.035ZM204.942 227.23C205.047 227.23 205.145 227.268 205.235 227.343C205.31 227.418 205.347 227.508 205.347 227.613V230.92C205.347 231.025 205.31 231.115 205.235 231.19C205.145 231.265 205.047 231.303 204.942 231.303H203.547C203.442 231.303 203.39 231.355 203.39 231.46V236.793C203.39 236.898 203.352 236.988 203.277 237.063C203.187 237.138 203.09 237.175 202.985 237.175H199.182C199.062 237.175 198.965 237.138 198.89 237.063C198.815 236.988 198.777 236.898 198.777 236.793V231.46C198.777 231.355 198.725 231.303 198.62 231.303H188.607C188.502 231.303 188.405 231.265 188.315 231.19C188.24 231.115 188.202 231.025 188.202 230.92V228.31C188.202 228.175 188.24 228.01 188.315 227.815L194.187 214.63C194.277 214.435 194.427 214.338 194.637 214.338H198.71C198.86 214.338 198.965 214.375 199.025 214.45C199.085 214.525 199.077 214.638 199.002 214.788L193.557 227.028C193.542 227.073 193.542 227.118 193.557 227.163C193.587 227.208 193.625 227.23 193.67 227.23H198.62C198.725 227.23 198.777 227.17 198.777 227.05V223.023C198.777 222.903 198.815 222.805 198.89 222.73C198.965 222.655 199.062 222.618 199.182 222.618H202.985C203.09 222.618 203.187 222.655 203.277 222.73C203.352 222.805 203.39 222.903 203.39 223.023V227.05C203.39 227.17 203.442 227.23 203.547 227.23H204.942Z" fill="#252530"/>
<defs>
<filter id="filter0_bd_666_2719" x="0" y="-2" width="340" height="330" filterUnits="userSpaceOnUse" color-interpolation-filters="sRGB">
<feFlood flood-opacity="0" result="BackgroundImageFix"/>
<feGaussianBlur in="BackgroundImageFix" stdDeviation="1"/>
<feComposite in2="SourceAlpha" operator="in" result="effect1_backgroundBlur_666_2719"/>
<feColorMatrix in="SourceAlpha" type="matrix" values="0 0 0 0 0 0 0 0 0 0 0 0 0 0 0 0 0 0 127 0" result="hardAlpha"/>
<feOffset dy="4"/>
<feGaussianBlur stdDeviation="2"/>
<feComposite in2="hardAlpha" operator="out"/>
<feColorMatrix type="matrix" values="0 0 0 0 0 0 0 0 0 0 0 0 0 0 0 0 0 0 0.24 0"/>
<feBlend mode="normal" in2="effect1_backgroundBlur_666_2719" result="effect2_dropShadow_666_2719"/>
<feBlend mode="normal" in="SourceGraphic" in2="effect2_dropShadow_666_2719" result="shape"/>
</filter>
<linearGradient id="paint0_linear_666_2719" x1="327.848" y1="5.92236e-06" x2="-26.9557" y2="273.032" gradientUnits="userSpaceOnUse">
<stop stop-color="#7658CD" stop-opacity="0.8"/>
<stop offset="1" stop-color="#7658CD" stop-opacity="0.1"/>
</linearGradient>
<linearGradient id="paint1_linear_666_2719" x1="330.071" y1="4.23281" x2="-23.8221" y2="268.692" gradientUnits="userSpaceOnUse">
<stop offset="0.0154329" stop-color="white"/>
<stop offset="1" stop-color="white" stop-opacity="0.1"/>
</linearGradient>
</defs>
</svg>
